<?xml version="1.0" standalone="no"?>
<!DOCTYPE svg PUBLIC "-//W3C//DTD SVG 1.1//EN" "http://www.w3.org/Graphics/SVG/1.1/DTD/svg11.dtd" >
<svg>
<metadata>
Created by FontForge 20090914 at Thu Nov  6 11:45:17 2014
 By www-data
Created by gluk with FontForge 2.0 (http://fontforge.sf.net)
This Font is licensed under the SIL Open Font License, Ver.1.1.
This license is available with a FAQ at:
http://scripts.sil.org/OFL
</metadata>
<defs>
<font id="spinweradBold" horiz-adv-x="1200" >
  <font-face 
    font-family="spinwerad"
    font-weight="700"
    font-stretch="expanded"
    units-per-em="2048"
    panose-1="0 0 10 3 0 0 0 0 0 0"
    ascent="1568"
    descent="-480"
    x-height="1040"
    cap-height="1360"
    bbox="-879.999 -594 2760 2130"
    underline-thickness="100"
    underline-position="-200"
    unicode-range="U+0020-U+FB06"
  />
<missing-glyph horiz-adv-x="728" 
d="M66 0v1332h530v-1332h-530zM132 66h398v1200h-398v-1200z" />
    <glyph glyph-name=".notdef" horiz-adv-x="728" 
d="M66 0v1332h530v-1332h-530zM132 66h398v1200h-398v-1200z" />
    <glyph glyph-name="space" unicode=" " horiz-adv-x="890" 
 />
    <glyph glyph-name="exclam" unicode="!" horiz-adv-x="520" 
d="M100 1520h266.001c17.333 0 30.666 -1.33301 39.999 -4c28.667 -8 43 -38 43 -90c0 -98.667 -29.667 -374 -89 -826h-160zM120.001 120c0 44 15.667 81.667 47 113s69 47 113 47s81.667 -15.667 113 -47s47 -69 47 -113s-15.667 -81.667 -47 -113s-69 -47 -113 -47
s-81.667 15.667 -113 47s-47 69 -47 113z" />
    <glyph glyph-name="quotedbl" unicode="&#x22;" horiz-adv-x="720" 
d="M462 1040v85.998c0 68 -6.66699 140.333 -20 217s-27.333 122.334 -42 137.001l14 14l214 -56c8 -8 12 -30 12 -66c0 -93.333 -21.333 -184.666 -64 -273.999l-28 -58h-86zM142 1040v85.998c0 68 -6.66699 140.333 -20 217s-27.333 122.334 -42 137.001l14 14l214 -56
c8 -8 12 -30 12 -66c0 -93.333 -21.333 -184.666 -64 -273.999l-28 -58h-86z" />
    <glyph glyph-name="numbersign" unicode="#" horiz-adv-x="1280" 
d="M396 0h-100l38 456h-274l10 100h274l32 380h-276l10 100h274l34 400h100l-34 -400h378l34 400h100l-34 -400h268l-10 -100h-266l-32 -380h268l-10 -100h-268l-38 -456h-100l38 456h-378zM476 936l-32 -380h378l32 380h-378z" />
    <glyph glyph-name="dollar" unicode="$" horiz-adv-x="1020" 
d="M454 -160l-19.999 0.000976562v150c-96 1.33301 -178.667 25.333 -248 72c-20 13.333 -38.667 20 -56 20c-28.667 0 -50 -16 -64 -48c-4 -9.33301 -6 -20.666 -6 -33.999h-20l6 312h20c0 -16 3.33301 -35 10 -57c16.667 -55.333 52 -108 106 -158
c26.667 -24.667 63 -45.334 109 -62.001c43.333 -16 91 -24.333 143 -25v541l-210 177c-118 99.333 -177 210 -177 332c0 94.667 48.333 171.667 145 231c68 42 148.667 67.333 242 76v113h20v-112c17.333 1.33301 35 2 53 2c16 0 31.667 -0.666992 47 -2v112h20v-114
c36 -4 68.667 -11.333 98 -22c42.667 -16.667 82.667 -25 120 -25c38 0 57 13.667 57 41h20l18 -308h-20c0 21.333 -5 46.666 -15 75.999s-26.667 61.666 -50 96.999s-60.333 65 -111 89c-34.667 16.667 -73.667 27.334 -117 32.001v-493l234 -197
c114.667 -96.667 172 -206.667 172 -330c0 -105.333 -56.667 -190 -170 -254c-66.667 -37.333 -145.334 -62 -236.001 -74v-158h-20v156c-32 -4 -65.333 -6 -100 -6v-150zM454.001 534.001l0.000976562 -524.001c37.333 0.666992 70.666 6.33398 99.999 17.001v423z
M454.002 954l100 -84v478c-14 1.33301 -28.333 2 -43 2c-20.667 0 -39.667 -1 -57 -3v-393zM434.002 971v373c-84.667 -16 -127 -61 -127 -135c0 -87.333 39.667 -164.333 119 -231zM574.002 433v-396.999c17.333 7.33301 33 17 47 29c46 38 69 84.333 69 139
c0 87.333 -28 154.666 -84 201.999z" />
    <glyph glyph-name="percent" unicode="%" horiz-adv-x="1440" 
d="M1360 1306l-1280 -1280v28l1280 1280v-28zM392 1364c81.333 0 153.664 -30.999 216.997 -92.999s95 -135 95 -219s-31.667 -157 -95 -219s-135.666 -93 -216.999 -93s-153.666 31 -216.999 93s-95 135 -95 219c0 85.333 31.333 158.666 94 219.999s135.334 92 218.001 92
zM391.998 1344c-46.667 0 -77 -16.667 -91 -50s-21 -84 -21 -152v-90v-90c0 -68 7 -118.667 21 -152s44.333 -50 91 -50s77 16.667 91 50s21 84 21 152v90v90c0 68 -7 118.667 -21 152s-44.333 50 -91 50zM1048 624.001c81.333 0 153.664 -30.999 216.997 -92.999
s95 -135 95 -219s-31.667 -157 -95 -219s-135.666 -93 -216.999 -93s-153.666 31 -216.999 93s-95 135 -95 219c0 85.333 31.333 158.666 94 219.999s135.334 92 218.001 92zM1048 604.002c-46.667 0 -77 -16.667 -91 -50s-21 -84 -21 -152v-90v-90
c0 -68 7 -118.667 21 -152s44.333 -50 91 -50s77 16.667 91 50s21 84 21 152v90v90c0 68 -7 118.667 -21 152s-44.333 50 -91 50z" />
    <glyph glyph-name="ampersand" unicode="&#x26;" horiz-adv-x="1340" 
d="M641 1366c112.667 0 214.333 -38.3359 305 -115.003v-187h-20c0 50.667 -10.333 95.334 -31 134.001c-52 98.667 -136.667 148 -254 148c-108.667 0 -163 -40.667 -163 -122c0 -44 37.333 -126 112 -246l494 -794c92 74.667 138 166.667 138 276
c0 37.333 -6.66699 78.666 -20 123.999s-40.666 90 -81.999 134s-93.333 66 -156 66v20h312v-20c-64 0 -96 -14.667 -96 -44c0 -8 10.333 -43 31 -105s31 -120.333 31 -175c0 -116 -48 -214.667 -144 -296c28 -45.333 54 -78.666 78 -99.999s43.667 -34 59 -38s37 -6 65 -6
v-20h-406c-12 0 -26.667 5.66699 -44 17s-30.666 17 -39.999 17c-82.667 -22.667 -153.334 -34 -212.001 -34c-181.333 0 -323 37 -425 111s-153 177 -153 309c0 114.667 22.667 206.334 68 275.001s120.666 112.334 225.999 131.001c-34.667 77.333 -52 148 -52 212
c0 104 38.5 184.667 115.5 242s164.833 86 263.5 86zM793.999 51.9971c-18.667 25.333 -39.332 57.333 -61.999 96l-366 580c-8 13.333 -18.667 33.333 -32 60c-26.667 -17.333 -47.334 -57.333 -62.001 -120c-8 -29.333 -12 -112 -12 -248c0 -137.333 27.333 -238 82 -302
c56 -65.333 141.333 -98 256 -98c52 0 117.333 10.667 196 32z" />
    <glyph glyph-name="quotesingle" unicode="'" horiz-adv-x="400" 
d="M228 1040l-86 -0.00195312v86c0 68 -6.66699 140.333 -20 217s-27.333 122.334 -42 137.001l14 14l214 -56c8 -8 12 -30 12 -66c0 -93.333 -21.333 -184.666 -64 -273.999z" />
    <glyph glyph-name="parenleft" unicode="(" horiz-adv-x="640" 
d="M100 640c0 222.667 45 418.667 135 588s216.333 281.333 379 336l6 -20c-114 -38.667 -187.333 -189.334 -220 -452.001c-13.333 -107.333 -20 -258 -20 -452c0 -200 6.66699 -350.667 20 -452c30.667 -235.333 104 -382.666 220 -441.999l-6 -20
c-162.667 54.667 -289 165 -379 331s-135 360.333 -135 583z" />
    <glyph glyph-name="parenright" unicode=")" horiz-adv-x="640" 
d="M540 640c0 -222.667 -45 -417.002 -135 -583.002s-216.333 -276.333 -379 -331l-6 20c114.667 58.667 188 206 220 442c13.333 98.667 20 249.334 20 452.001c0 193.333 -6.66699 344 -20 452c-32.667 262.667 -106 413.334 -220 452.001l6 20
c162.667 -54.667 289 -166.667 379 -336s135 -365.333 135 -588z" />
    <glyph glyph-name="asterisk" unicode="*" horiz-adv-x="604" 
d="M110 782c0 4 4.66602 5.99707 13.999 5.99707c2.66699 0 12 -0.666992 28 -2s30.667 -2 44 -2c22.667 0 46.667 2.66699 72 8l-24 10c-20 6.66699 -41.333 17.334 -64 32.001l-57 38c-15.333 10.667 -26.333 16 -33 16h-2l-4 -2l-4 10l118 56h2
c4 0 8.66699 -5.66699 14 -17s14.333 -28.333 27 -51s28.334 -44 47.001 -64l-4 26c-4 22.667 -6 44 -6 64c0 12 0.666992 27.667 2 47s2 32.333 2 39c0 16 -2.66699 26 -8 30l8 10l108 -74c2.66699 -2.66699 4 -4.66699 4 -6c0 -4 -4.33301 -11.333 -13 -22
s-19 -26.667 -31 -48s-21.333 -44.666 -28 -69.999l20 18c17.333 14.667 39 28.334 65 41.001l63 31c16 8 24 15.333 24 22h12l-12 -132c0 -4 -4 -6 -12 -6c-2.66699 0 -12 0.666992 -28 2s-30.667 2 -44 2c-25.333 0 -49.333 -2.66699 -72 -8l22 -8
c20 -6.66699 41.333 -17.334 64 -32.001l57 -38c15.333 -10.667 26.333 -16 33 -16c1.33301 0 2 0.333008 2 1s0.666992 1 2 1l6 -12l-120 -56h-2c-4 0 -8.66699 6 -14 18s-14 29 -26 51s-26.667 42.333 -44 61l4 -22c4 -22.667 6 -43.334 6 -62.001
c0 -13.333 -0.666992 -30.333 -2 -51s-2 -33.667 -2 -39c0 -16 2 -25.333 6 -28l-6 -10l-110 74c-1.33301 1.33301 -2 3.33301 -2 6c0 4 4.33301 11.667 13 23s18.667 27.333 30 48s20.333 42.334 27 65.001l-20 -16c-17.333 -14.667 -39 -28.667 -65 -42
s-47 -23.666 -63 -30.999s-24 -14.333 -24 -21h-12z" />
    <glyph glyph-name="plus" unicode="+" horiz-adv-x="1004" 
d="M544 860h400l-4 -80h-396v-394l-80 4v390h-404l4 80h400v410l80 -4v-406z" />
    <glyph glyph-name="comma" unicode="," horiz-adv-x="480" 
d="M80 120c0 44 15.666 81.667 46.999 113s69 47 113 47s81.667 -15.667 113 -47s47 -69 47 -113c0 -98.667 -25.667 -180.667 -77 -246s-103.666 -98 -156.999 -98v20c29.333 0 57.333 14.333 84 43s40 55.667 40 81c0 26.667 -16.667 40 -50 40
c-44 0 -81.667 15.667 -113 47s-47 69 -47 113z" />
    <glyph glyph-name="hyphen" unicode="-" horiz-adv-x="1010" 
d="M940 780h-880l10 80h880z" />
    <glyph glyph-name="period" unicode="." horiz-adv-x="480" 
d="M80 120c0 44 15.667 81.667 47 113s69 47 113 47s81.667 -15.667 113 -47s47 -69 47 -113s-15.667 -81.667 -47 -113s-69 -47 -113 -47s-81.667 15.667 -113 47s-47 69 -47 113z" />
    <glyph glyph-name="slash" unicode="/" horiz-adv-x="1164" 
d="M1124 1442l-1002 -1824l-82 58l1000 1824z" />
    <glyph glyph-name="zero" unicode="0" horiz-adv-x="1100" 
d="M20 720c0 221.333 50 401.002 150 539.002c92 127.333 215.333 191 370 191c153.333 0 276.666 -63.667 369.999 -191c100 -136.667 150 -316.334 150 -539.001s-50 -402.334 -150 -539.001c-93.333 -127.333 -216.666 -191 -369.999 -191
c-154.667 0 -278 63.667 -370 191c-100 138 -150 317.667 -150 539zM740 720.002c0 339.333 -9.33301 530.666 -28 573.999c-39.333 90.667 -96.666 136 -171.999 136c-76 0 -133.333 -45.333 -172 -136c-18.667 -43.333 -28 -234.666 -28 -573.999
s9.33301 -530.666 28 -573.999c38.667 -90.667 96 -136 172 -136c75.333 0 132.666 45.333 171.999 136c18.667 43.333 28 234.666 28 573.999z" />
    <glyph glyph-name="one" unicode="1" horiz-adv-x="720" 
d="M200 1100c0 66.667 -40 100 -120 100v20c126.667 34.667 206.667 108 240 220h200v-1280c0 -93.333 53.333 -140 160 -140v-20h-640v20c106.667 0 160 46.667 160 140v940z" />
    <glyph glyph-name="two" unicode="2" horiz-adv-x="1020" 
d="M710 20c154.667 0 238.001 93.333 250.001 280h20v-300h-980v20c23.333 0 45.666 6.66699 66.999 20c26.667 16.667 56 55.334 88 116.001l409 784c61.333 117.333 92 207 92 269c0 147.333 -72 221 -216 221c-154 0 -257 -49.333 -309 -148
c-20.667 -38.667 -31 -83.334 -31 -134.001h-20v187c90.667 76.667 210.667 115 360 115c328 -2 492 -125.667 492 -371c0 -86 -20.333 -167.667 -61 -245l-360 -686c-16 -30.667 -24 -52.667 -24 -66c0 -41.333 46.667 -62 140 -62h83z" />
    <glyph glyph-name="three" unicode="3" horiz-adv-x="975" 
d="M357 -10c-129.333 0 -238.334 34.0029 -327.001 102.003v208h20c4 -110.667 37.333 -187.334 100 -230.001c57.333 -40 126.333 -60 207 -60c110.667 0 184 51.333 220 154c25.333 72 38 157.333 38 256c-2.66699 140.667 -12 232.667 -28 276
c-30.667 82.667 -96 124 -196 124c-21.333 0 -32 7.33301 -32 22c66.667 5.33301 117.334 28.666 152.001 69.999c29.333 34.667 44 104 44 208c0 136 -14.667 220 -44 252c-35.333 38.667 -85.333 58 -150 58c-70.667 0 -130.834 -20.333 -180.501 -61
s-76.167 -107.667 -79.5 -201h-20v188c76.667 62.667 170 94 280 94c140 0 250.667 -29.333 332 -88s122 -137.334 122 -236.001c0 -162.667 -104 -260.667 -312 -294c122.667 -16 225.334 -61 308.001 -135s124 -166.333 124 -277c0 -125.333 -58.167 -228.333 -174.5 -309
s-250.833 -121 -403.5 -121z" />
    <glyph glyph-name="four" unicode="4" horiz-adv-x="1080" 
d="M10 423l593 1017h287v-980h82v-100h-82v-200c0 -93.333 53.333 -140 160 -140v-20h-640v20c106.667 0 160 46.667 160 140v200h-560v63zM54 460h516v876z" />
    <glyph glyph-name="five" unicode="5" horiz-adv-x="1002" 
d="M30 117l0.00195312 183.003h20c4 -118.667 44.667 -199.334 122 -242.001c57.333 -32 124.666 -48 201.999 -48c172.667 0 259 147.667 259 443c-0.666992 298 -87 447 -259 447c-62 0 -122.667 -12 -182 -36c-76 -30.667 -133.333 -67.334 -172 -110.001l24 610
c1.33301 34 2 59.333 2 76h794l20 -340h-20c-6.66699 49.333 -18 78.333 -34 87s-62.667 13 -140 13h-464c-42.667 0 -77.334 -14.333 -104.001 -43s-40 -70.334 -40 -125.001l-10 -224c97.333 74.667 206 112 326 112c148 0 281.333 -44.667 400 -134s178 -198 178 -326
s-59.333 -238.333 -178 -331s-252 -139 -400 -139c-126 0 -240.667 42.333 -344 127z" />
    <glyph glyph-name="six" unicode="6" horiz-adv-x="1120" 
d="M620 1450c126 0 240.668 -42.334 344.001 -127.001v-183h-20c-4 118.667 -44.667 199.334 -122 242.001c-57.333 32 -124.666 48 -201.999 48c-118.667 0 -193.334 -42.667 -224.001 -128c-25.333 -70.667 -38 -169.334 -38 -296.001c65.333 36 132.666 54 201.999 54
c136 0 256.667 -53 362 -159s158 -231.333 158 -376s-52.667 -270 -158 -376s-226 -159 -362 -159c-141.333 0 -263.333 59.333 -366 178s-154 279.334 -154 482.001c0 138.667 20 267.667 60 387s108.5 218 205.5 296s201.833 117 314.5 117zM560.001 1040
c-81.333 0 -140 -52.668 -176 -158.001c-16 -46.667 -24 -164 -24 -352c0 -162.667 8 -282 24 -358c22.667 -108 81.334 -162 176.001 -162c81.333 0 140 52.667 176 158c16 46.667 24 167.334 24 362.001c0 156 -8 272 -24 348c-22.667 108 -81.334 162 -176.001 162z" />
    <glyph glyph-name="seven" unicode="7" horiz-adv-x="1024" 
d="M220 0c79.333 360 237.333 717.332 474 1072c20 30 30 52 30 66c0 41.333 -44 62 -132 62h-432c-63.333 0 -98 -12 -104 -36l-16 -64h-20v340h984v-20c0 -23.333 -71 -114.666 -213 -273.999c-136.667 -153.333 -213 -336.333 -229 -549c-14.667 -194 -22 -393 -22 -597
h-320z" />
    <glyph glyph-name="eight" unicode="8" horiz-adv-x="1212" 
d="M564 820c-77.333 0 -134.666 -25.334 -171.999 -76.001c-30.667 -41.333 -48 -142.666 -52 -303.999c0 -172 25.333 -292 76 -360c34.667 -46.667 94.667 -70 180 -70s145.333 23.333 180 70c50.667 68 76 181.333 76 340c-2.66699 138 -13.334 231.333 -32.001 280
c-30.667 80 -94.667 120 -192 120h-64zM596 841.999c66.667 0 118 21.333 154 64c28 33.333 42 104.666 42 213.999c0 164 -33.333 261.333 -100 292c-26.667 12 -58.667 18 -96 18s-69.333 -6.66699 -96 -20c-66.667 -32 -100 -128.667 -100 -290
c0 -109.333 14 -180.666 42 -213.999c36 -42.667 87.333 -64 154 -64zM596 1450c141.333 0 252.666 -29.333 333.999 -88s122 -137.334 122 -236.001c0 -162.667 -104 -260.667 -312 -294c122.667 -16 225.334 -61 308.001 -135s124 -166.333 124 -277
c0 -125.333 -58 -228.333 -174 -309s-250 -121 -402 -121s-286 40.333 -402 121s-174 183.667 -174 309c0 110.667 41.333 203 124 277s185.334 119 308.001 135c-208 33.333 -312 131.333 -312 294c0 98.667 40.667 177.334 122 236.001s192.666 88 333.999 88z" />
    <glyph glyph-name="nine" unicode="9" horiz-adv-x="1120" 
d="M500 -10c-126 0 -240.668 42.334 -344.001 127.001v183h20c4 -118.667 44.667 -199.334 122 -242.001c57.333 -32 124.666 -48 201.999 -48c118.667 0 193.334 42.667 224.001 128c25.333 70.667 38 169.334 38 296.001c-65.333 -36 -132.666 -54 -201.999 -54
c-136 0 -256.667 53 -362 159s-158 231.333 -158 376s52.667 270 158 376s226 159 362 159c141.333 0 263.333 -59.333 366 -178s154 -279.334 154 -482.001c0 -138.667 -20 -267.667 -60 -387s-108.5 -218 -205.5 -296s-201.833 -117 -314.5 -117zM559.999 400.001
c81.333 0 140 52.668 176 158.001c16 46.667 24 164 24 352c0 162.667 -8 282 -24 358c-22.667 108 -81.334 162 -176.001 162c-81.333 0 -140 -52.667 -176 -158c-16 -46.667 -24 -167.334 -24 -362.001c0 -156 8 -272 24 -348c22.667 -108 81.334 -162 176.001 -162z" />
    <glyph glyph-name="colon" unicode=":" horiz-adv-x="480" 
d="M80 920c0 44 15.667 81.667 47 113s69 47 113 47s81.667 -15.667 113 -47s47 -69 47 -113s-15.667 -81.667 -47 -113s-69 -47 -113 -47s-81.667 15.667 -113 47s-47 69 -47 113zM80 120c0 44 15.667 81.667 47 113s69 47 113 47s81.667 -15.667 113 -47s47 -69 47 -113
s-15.667 -81.667 -47 -113s-69 -47 -113 -47s-81.667 15.667 -113 47s-47 69 -47 113z" />
    <glyph glyph-name="semicolon" unicode=";" horiz-adv-x="480" 
d="M80 920c0 44 15.667 81.667 47 113s69 47 113 47s81.667 -15.667 113 -47s47 -69 47 -113s-15.667 -81.667 -47 -113s-69 -47 -113 -47s-81.667 15.667 -113 47s-47 69 -47 113zM80 120c0 44 15.666 81.667 46.999 113s69 47 113 47s81.667 -15.667 113 -47
s47 -69 47 -113c0 -98.667 -25.667 -180.667 -77 -246s-103.666 -98 -156.999 -98v20c29.333 0 57.333 14.333 84 43s40 55.667 40 81c0 26.667 -16.667 40 -50 40c-44 0 -81.667 15.667 -113 47s-47 69 -47 113z" />
    <glyph glyph-name="less" unicode="&#x3c;" horiz-adv-x="720" 
d="M640 188l-600 605.999l600 590v-330l-260 -256c-36 -36 -54 -69.333 -54 -100c0 -29.333 22.667 -66.666 68 -111.999l246 -250v-148z" />
    <glyph glyph-name="equal" unicode="=" horiz-adv-x="1010" 
d="M940 620h-880l10 80h880zM940 940h-880l10 80h880z" />
    <glyph glyph-name="greater" unicode="&#x3e;" horiz-adv-x="720" 
d="M80 1390l600 -589.999l-600 -606v330l260 256c36 36 54 69.333 54 100c0 29.333 -22.667 66.666 -68 111.999l-246 250v148z" />
    <glyph glyph-name="question" unicode="?" horiz-adv-x="1024" 
d="M240 120c0 44 15.667 81.667 47 113s69 47 113 47s81.667 -15.667 113 -47s47 -69 47 -113s-15.667 -81.667 -47 -113s-69 -47 -113 -47s-81.667 15.667 -113 47s-47 69 -47 113zM296 902c0 61.333 32.0029 113.334 96.0029 156.001l248 158c41.333 28 62 64.667 62 110
c0 36 -21.667 73.667 -65 113s-96.333 59 -159 59c-56 0 -107 -8.33301 -153 -25s-82.333 -37.334 -109 -62.001s-49.334 -51.667 -68.001 -81s-31.334 -55 -38.001 -77s-10 -41 -10 -57l-20 -2l18 284h20c0 -17.333 4 -34.666 12 -51.999s17.333 -26 28 -26
c6.66699 0 18.667 6 36 18l58 41c21.333 15.333 52.333 29 93 41s85 18 133 18c133.333 0 244.333 -31 333 -93s133 -143 133 -243c0 -76 -33.333 -141.333 -100 -196c-22.667 -18.667 -86.667 -62.667 -192 -132c-104.667 -66.667 -159.334 -123.334 -164.001 -170.001
l-8 -84h-160c-16 200 -24 300.667 -24 302z" />
    <glyph glyph-name="at" unicode="@" horiz-adv-x="2080" 
d="M1020 100c102.667 0 168 30.668 196 92.001c29.333 69.333 44 205.333 44 408c0 178.667 -10.667 302.667 -32 372c-20 72 -89.333 108 -208 108c-120 0 -190.667 -36 -212 -108c-20 -69.333 -30 -193.333 -30 -372c0 -182.667 10 -307.334 30 -374.001
c25.333 -84 96 -126 212 -126zM1018 1100c373.333 0 559.998 -166.667 559.998 -500v-320c0 -120 46.667 -180 140 -180c64 0 132 42.667 204 128s108 194 108 326c0 166.667 -44 320.334 -132 461.001s-208 252 -360 334s-318 123 -498 123s-346 -41 -498 -123
s-272 -193.333 -360 -334s-132 -294.334 -132 -461.001s44 -320.334 132 -461.001s208 -252 360 -334s318 -123 498 -123c241.333 0 442.666 56.667 603.999 170l12 -16c-164 -116 -369.333 -174 -616 -174c-182.667 0 -351.334 41.667 -506.001 125
s-277.334 197.333 -368.001 342s-136 301.667 -136 471s45.333 326.333 136 471s213.334 258.667 368.001 342s323.334 125 506.001 125s351.334 -41.667 506.001 -125s277.334 -197.333 368.001 -342s136 -301.667 136 -471c0 -137.333 -37.667 -250.666 -113 -339.999
s-148.333 -134 -219 -134c-113.333 0 -192.666 17.333 -237.999 52c-21.333 14.667 -54 44 -98 88c-102.667 -93.333 -224 -140 -364 -140c-181.333 0 -320 44.333 -416 133s-144 217.667 -144 387c0 165.333 48 290 144 374s234.667 126 416 126z" />
    <glyph glyph-name="A" unicode="A" horiz-adv-x="1400" 
d="M743 440l-220 678l-222 -678h442zM750 420h-455l-89 -272c-8 -22.667 -12 -42 -12 -58c0 -46.667 48.667 -70 146 -70v-20h-340v20c94.667 0 156.667 45.333 186 136l325 996l-17 52c-32 90.667 -94 136 -186 136v20h386c57.333 0 102 -49.333 134 -148l344 -1056
c29.333 -90.667 92 -136 188 -136v-20h-640v20c86.667 0 130 22.667 130 68c0 15.333 -4 35.333 -12 60z" />
    <glyph glyph-name="B" unicode="B" horiz-adv-x="1360" 
d="M520 20l200 0.000976562c98.667 0 172 25.333 220 76c40 41.333 60 142.666 60 303.999c-2.66699 117.333 -30.667 210 -84 278s-145.333 102 -276 102h-120v-760zM40 0.000976562l0.00195312 19.999c102.667 0 156 40.667 160 122v1058c0 93.333 -53.333 140 -160 140
v20h520c400 0 600 -92 600 -276c0 -161.333 -126.667 -258.666 -380 -291.999c157.333 -16 286.666 -58 387.999 -126s152 -156.667 152 -266c0 -129.333 -54.333 -228.333 -163 -297s-254.334 -103 -437.001 -103h-680zM520.002 1340v-540.001h40
c98.667 0 172 20.667 220 62c40 34.667 60 107.334 60 218.001c0 92 -17.333 157.333 -52 196c-36 42.667 -112 64 -228 64h-40z" />
    <glyph glyph-name="C" unicode="C" horiz-adv-x="1040" 
d="M624 1350c-113.333 0 -193.334 -69.999 -240.001 -209.999c-29.333 -88.667 -44 -242 -44 -460c0 -189.333 14 -341.333 42 -456c34.667 -142.667 113.334 -214 236.001 -214c130.667 0 251.334 47.333 362.001 142v-26c-110.667 -90.667 -231.334 -136 -362.001 -136
c-177.333 0 -321.333 66.667 -432 200s-166 296.666 -166 489.999c0 190.667 56 353.334 168 488.001s256.667 202 434 202c62.667 0 117 -8.66699 163 -26c42.667 -16.667 82.667 -25 120 -25c38 0 57 13.667 57 41h20l18 -308h-20c0 21.333 -5 46.666 -15 75.999
c-30 87.333 -83.667 149.333 -161 186c-50.667 24 -110.667 36 -180 36z" />
    <glyph glyph-name="D" unicode="D" horiz-adv-x="1360" 
d="M720 0h-680v20c102.667 0 156 40.667 160 122v1058c0 93.333 -53.333 140 -160 140v20h680c174.667 0 318.334 -65.667 431.001 -197s169 -292.333 169 -483s-56.333 -351.667 -169 -483s-256.334 -197 -431.001 -197zM720 20c104 0 181.333 54 232 162
c32 68 48 234 48 498s-16 430 -48 498c-50.667 108 -128 162 -232 162h-200v-1320h200z" />
    <glyph glyph-name="E" unicode="E" horiz-adv-x="1240" 
d="M40 1360h1120v-300h-20c-12 186.667 -95.333 280 -250 280h-370v-560h178c93.333 0 140 53.333 140 160h20v-340h-20c0 106.667 -46.667 160 -140 160h-178v-740h390c154.667 0 238 93.333 250 280h20v-300h-1140v20c102.667 0 156 40.667 160 122v1058
c0 93.333 -53.333 140 -160 140v20z" />
    <glyph glyph-name="F" unicode="F" 
d="M40 1360h1120v-300h-20c-12 186.667 -95.333 280 -250 280h-370v-560h180c93.333 0 140 53.333 140 160h20v-340h-20c0 106.667 -46.667 160 -140 160h-180v-600c0 -93.333 53.333 -140 160 -140v-20h-640v20c106.667 0 160 46.667 160 140v1040
c0 93.333 -53.333 140 -160 140v20z" />
    <glyph glyph-name="G" unicode="G" horiz-adv-x="1240" 
d="M618 10c30 0 61.165 12.001 93.498 36.001s48.5 62 48.5 114v320c0 93.333 -53.333 140 -160 140v20h600v-20c-106.667 0 -160 -46.667 -160 -140v-274c-72 -82.667 -149.333 -142 -232 -178c-57.333 -25.333 -120.666 -38 -189.999 -38
c-177.333 0 -321.333 66.667 -432 200s-166 296.666 -166 489.999c0 190.667 56 353.334 168 488.001s256.667 202 434 202c62.667 0 117 -8.66699 163 -26c42.667 -16.667 82.667 -25 120 -25c38 0 57 13.667 57 41h20l18 -308h-20c0 21.333 -5 46.666 -15 75.999
c-30 87.333 -83.667 149.333 -161 186c-50.667 24 -110.667 36 -180 36c-113.333 0 -193.333 -70 -240 -210c-29.333 -88.667 -44 -242 -44 -460c0 -189.333 14 -341.333 42 -456c34.667 -142.667 113.334 -214 236.001 -214z" />
    <glyph glyph-name="H" unicode="H" horiz-adv-x="1520" 
d="M1000 160v580h-480v-580c0 -93.333 53.333 -140 160 -140v-20h-640v20c106.667 0 160 46.667 160 140v1040c0 93.333 -53.333 140 -160 140v20h400c53.333 0 80 -53.333 80 -160v-440h480v440c0 93.333 -53.333 140 -160 140v20h640v-20
c-106.667 0 -160 -46.667 -160 -140v-1040c0 -93.333 53.333 -140 160 -140v-20h-640v20c106.667 0 160 46.667 160 140z" />
    <glyph glyph-name="I" unicode="I" horiz-adv-x="720" 
d="M40 1360h640v-20c-106.667 0 -160 -46.667 -160 -140v-1040c0 -93.333 53.333 -140 160 -140v-20h-640v20c106.667 0 160 46.667 160 140v1040c0 93.333 -53.333 140 -160 140v20z" />
    <glyph glyph-name="J" unicode="J" horiz-adv-x="700" 
d="M0 -380c133.333 0 200 140 200 420v1160c0 93.333 -53.333 140 -160 140v20h640v-20c-106.667 0 -160 -46.667 -160 -140v-920c0 -198.667 -44.333 -361.667 -133 -489s-217.667 -191 -387 -191c-92 0 -155.333 38.667 -190 116l18 8c30.667 -69.333 88 -104 172 -104z
" />
    <glyph glyph-name="K" unicode="K" horiz-adv-x="1440" 
d="M40 1360h640v-20c-106.667 0 -160 -46.667 -160 -140v-704l564 716c22.667 30.667 34 54.667 34 72c0 37.333 -46 56 -138 56v20h340v-20c-45.333 0 -80.333 -7 -105 -21s-61.667 -52.333 -111 -115l-244 -310l370 -738c30.667 -64 55.667 -102.667 75 -116
s51 -20 95 -20v-20h-380c-50.667 -0 -98 49.333 -142 148l-236 468l-122 -154v-302c0 -93.333 53.333 -140 160 -140v-20h-640v20c106.667 0 160 46.667 160 140v1040c0 93.333 -53.333 140 -160 140v20z" />
    <glyph glyph-name="L" unicode="L" 
d="M871 20c154 0 237 93.333 249 280h20v-300h-1098v20c97.333 0 150 35.333 158 106v1074c0 93.333 -53.333 140 -160 140v20h640v-20c-105.333 0 -158 -46.667 -158 -140v-1180h349z" />
    <glyph glyph-name="M" unicode="M" horiz-adv-x="1940" 
d="M546 1360l390.002 -878l448 878h436v-20c-106.667 0 -160 -46.667 -160 -140l80 -1040c7.33301 -93.333 60.666 -140 159.999 -140v-20h-640v20c106.667 0 160 40 160 120v20l-82 1066l-391 -766c42 -80 63 -157.333 63 -232c0 -44 -4.66699 -74.667 -14 -92h-266
c6.66699 6.66699 10 16 10 28c0 5.33301 -0.666992 9.33301 -2 12l-458 1024l-80 -1040v-20c0 -80 53.333 -120 160 -120v-20h-340v20c101.333 0 154.666 46.667 159.999 140l80 1040c0 93.333 -53.333 140 -160 140v20h446z" />
    <glyph glyph-name="N" unicode="N" horiz-adv-x="1360" 
d="M1160 232v-232h-234l-706 1200v-1040c0 -93.333 53.333 -140 160 -140v-20h-340v20c106.667 0 160 46.667 160 140v1040c0 93.333 -53.333 140 -160 140v20h456l644 -1094v934c0 93.333 -53.333 140 -160 140v20h340v-20c-106.667 0 -160 -46.667 -160 -140v-968z" />
    <glyph glyph-name="O" unicode="O" horiz-adv-x="1260" 
d="M620 1370c173.333 0 316.665 -67 429.998 -201s170 -297 170 -489s-56.667 -355 -170 -489s-256.666 -201 -429.999 -201s-316.666 67 -429.999 201s-170 297 -170 489s56 355 168 489s256 201 432 201zM619.999 1350c-96 0 -166.667 -45.333 -212 -136
c-45.333 -92 -68 -270 -68 -534s22.667 -442 68 -534c45.333 -90.667 116 -136 212 -136s166.667 45.333 212 136c45.333 92 68 270 68 534s-22.667 442 -68 534c-45.333 90.667 -116 136 -212 136z" />
    <glyph glyph-name="P" unicode="P" horiz-adv-x="1360" 
d="M40 1360l680 0.00195312c174.667 0 318.334 -46.333 431.001 -139s169 -206.334 169 -341.001s-56.333 -248.334 -169 -341.001s-256.334 -139 -431.001 -139h-200v-240c0 -93.333 53.333 -140 160 -140v-20h-640v20c106.667 0 160 46.667 160 140v1058
c-4 81.333 -57.333 122 -160 122v20zM520 1340v-920h200c116 0 192 36 228 108c34.667 66.667 52 184 52 352s-17.333 285.333 -52 352c-36 72 -112 108 -228 108h-200z" />
    <glyph glyph-name="Q" unicode="Q" horiz-adv-x="1260" 
d="M620 1350c-102.667 0 -180 -55.333 -232 -166c-32 -68 -48 -236 -48 -504s16 -436 48 -504c52 -110.667 129.333 -166 232 -166s180 55.333 232 166c32 68 48 236 48 504s-16 436 -48 504c-52 110.667 -129.333 166 -232 166zM968 -182
c1.33301 -10 1.99902 -20 1.99902 -30c0 -125.333 -65.333 -188 -196 -188c-50.667 0 -94.667 12 -132 36l-134 100c-34 22.667 -65.333 34 -94 34c-53.333 0 -80 -12.667 -80 -38h-44c2.66699 40.667 12 78.667 28 114c40.667 80.667 106.334 131.667 197.001 153
c-127.333 22 -235.666 86 -324.999 192c-113.333 134 -170 297 -170 489s56 355 168 489s256 201 432 201c173.333 0 316.666 -67 429.999 -201s170 -297 170 -489s-56.667 -355 -170 -489s-256.666 -201 -429.999 -201c-106.667 0 -187.334 -30.333 -242.001 -91
c28.667 14 64.667 21 108 21c52 0 96 -13.333 132 -40l134 -100c32.667 -21.333 67 -32 103 -32c54 0 81 23.333 81 70h32z" />
    <glyph glyph-name="R" unicode="R" horiz-adv-x="1460" 
d="M520 1340v-760h200c186.667 0 280 126.667 280 380s-93.333 380 -280 380h-200zM40 1360l679.999 -0.000976562c182.667 0 328.334 -34.667 437.001 -104s163 -169.333 163 -300c0 -76 -27.333 -144.667 -82 -206s-128.667 -108.666 -222 -141.999l218 -452
c21.333 -44 42 -76 62 -96c26.667 -26.667 68 -40 124 -40v-20h-380c-50.667 -0 -98 49.333 -142 148l-198 412h-180v-400c0 -93.333 53.333 -140 160 -140v-20h-640v20c106.667 0 160 46.667 160 140v1058c-4 81.333 -57.333 122 -160 122v20z" />
    <glyph glyph-name="S" unicode="S" horiz-adv-x="1010" 
d="M507 1370c64 0 119 -8.66406 165 -25.9971c42.667 -16.667 82.667 -25 120 -25c38 0 57 13.667 57 41h20l18 -308h-20c0 21.333 -5 46.666 -15 75.999s-26.667 61.666 -50 96.999s-60.333 65 -111 89s-110.667 36 -180 36c-136 0 -204 -47 -204 -141
c0 -87.333 39.667 -164.333 119 -231l382 -322c114.667 -96.667 172 -206.667 172 -330c0 -106 -56.667 -190.667 -170 -254c-96 -54.667 -218 -82 -366 -82c-100 0 -186 24 -258 72c-20 13.333 -38.667 20 -56 20c-28.667 0 -50 -16 -64 -48
c-4 -9.33301 -6 -20.666 -6 -33.999h-20l6 312h20c0 -16 3.33301 -35 10 -57c16.667 -55.333 52 -108 106 -158c26.667 -24.667 63 -45.334 109 -62.001s97 -25 153 -25c73.333 0 132.333 18.333 177 55c46 38 69 84.333 69 139c0 87.333 -28 154.666 -84 201.999l-382 322
c-118 99.333 -177 210 -177 332c0 94.667 48.333 171.667 145 231c85.333 52.667 190.333 79 315 79z" />
    <glyph glyph-name="T" unicode="T" 
d="M310 1340c-154.667 0 -238 -93.333 -250 -280h-20v300h1120v-300h-20c-12 186.667 -95 280 -249 280h-131v-1180c0 -93.333 53.333 -140 160 -140v-20h-640v20c106.667 0 160 46.667 160 140v1180h-130z" />
    <glyph glyph-name="U" unicode="U" horiz-adv-x="1440" 
d="M1220 680l-0.000976562 520c0 93.333 -53.333 140 -160 140v20h340v-20c-106.667 0 -160 -46.667 -160 -140v-520c0 -210.667 -27.333 -371 -82 -481c-69.333 -139.333 -188.666 -209 -357.999 -209c-209.333 0 -366.666 62 -471.999 186
c-85.333 100.667 -128 255.334 -128 464.001v560c0 93.333 -53.333 140 -160 140v20h640v-20c-106.667 0 -160 -46.667 -160 -140v-800c0 -260 93.333 -390 280 -390c161.333 0 274.666 66 339.999 198c53.333 107.333 80 264.666 80 471.999z" />
    <glyph glyph-name="V" unicode="V" horiz-adv-x="1400" 
d="M20 1360h424c21.333 0 37.333 -8 48 -24c12 -16 28.667 -57.333 50 -124l315 -971l317 971c8 24.667 12 44 12 58c0 46.667 -48.667 70 -146 70v20h340v-20c-94.667 0 -156.667 -45.333 -186 -136l-325 -997l-58 -207h-125c-56.667 0 -98 39.667 -124 119l-356 1085
c-28 90.667 -90 136 -186 136v20z" />
    <glyph glyph-name="W" unicode="W" horiz-adv-x="2120" 
d="M20 1360h424c21.333 0 37.333 -8 48 -24c12 -16 28.667 -57.333 50 -124l315 -971l192 588l-123 375c-28 90.667 -90 136 -186 136v20h640v-20c-87.333 0 -131 -22.333 -131 -67c0 -14.667 4.33301 -35 13 -61l315 -971l317 971c8 24.667 12 44 12 58
c0 46.667 -48.667 70 -146 70v20h340v-20c-94.667 0 -156.667 -45.333 -186 -136l-325 -997l-58 -207h-125c-56.667 0 -98 39.667 -124 119l-222 675l-191 -587l-58 -207h-125c-56.667 0 -98 39.667 -124 119l-356 1085c-28 90.667 -90 136 -186 136v20z" />
    <glyph glyph-name="X" unicode="X" horiz-adv-x="1300" 
d="M964 1212c20 29.333 29.999 52.667 29.999 70c0 38.667 -44.667 58 -134 58v20h340v-20c-66.667 0 -118 -19.333 -154 -58c-17.333 -18.667 -38 -44.667 -62 -78l-242 -354l350 -694c34.667 -65.333 60.667 -104.333 78 -117s47.333 -19 90 -19v-20h-640v20
c88 0 132 22 132 66c0 17.333 -4.66699 38 -14 62l-202 400l-272 -400c-18.667 -32 -28 -57.333 -28 -76c0 -34.667 41.333 -52 124 -52v-20h-340v20c58.667 0 105.334 13.333 140.001 40c26.667 21.333 54.667 53.333 84 96l282 414l-320 634c-44 90.667 -106 136 -186 136
v20h398c50.667 0 98 -49.333 142 -148l172 -340z" />
    <glyph glyph-name="Y" unicode="Y" horiz-adv-x="1338" 
d="M560 1212l280.001 -554l272 554c12 24 18 44.667 18 62c0 44 -50.667 66 -152 66v20h340v-20c-56 0 -97.333 -13.333 -124 -40c-18.667 -18.667 -39.334 -50.667 -62.001 -96l-270 -546l2 -498c0 -93.333 53.333 -140 160 -140v-20h-640v20c106.667 0 160 46.667 160 140
l-2 380l-336 664c-44 90.667 -106 136 -186 136v20h398c50.667 0 98 -49.333 142 -148z" />
    <glyph glyph-name="Z" unicode="Z" horiz-adv-x="1340" 
d="M1010 20c154.667 0 238.002 93.333 250.002 280h20v-300h-1260v20c44 0 76.667 6.66699 98 20s50.666 52 87.999 116l532 1056c13.333 26.667 20 48.667 20 66c0 41.333 -46 62 -138 62h-210c-154.667 0 -238 -93.333 -250 -280h-20v300h1138v-20
c-54.667 0 -95.334 -13.333 -122.001 -40c-18 -18 -38.667 -50 -62 -96l-534 -1056c-12 -24 -18 -45.333 -18 -64c0 -42.667 45.333 -64 136 -64h332z" />
    <glyph glyph-name="bracketleft" unicode="[" horiz-adv-x="680" 
d="M580 1550c-26.667 0 -46.667 -1 -60 -3s-29.333 -6.66699 -48 -14s-32 -21.333 -40 -42s-12 -47.667 -12 -81v-1530c0 -93.333 53.333 -140 160 -140h80v-20h-560v1850h560v-20h-80z" />
    <glyph glyph-name="backslash" unicode="\" horiz-adv-x="1164" 
d="M40 1442l84 58l1000 -1824l-82 -58z" />
    <glyph glyph-name="bracketright" unicode="]" horiz-adv-x="680" 
d="M100 1550h-80v20h560v-1850h-560v20h80c106.667 0 160 46.667 160 140v1530c0 33.333 -4 60.333 -12 81s-21.333 34.667 -40 42s-34.667 12 -48 14s-33.333 3 -60 3z" />
    <glyph glyph-name="asciicircum" unicode="^" 
d="M830 960l-220.001 222c-36 36 -69.333 54 -100 54c-29.333 0 -66.666 -22.667 -111.999 -68l-212 -208h-146l568 562l552 -562h-330z" />
    <glyph glyph-name="underscore" unicode="_" horiz-adv-x="1520" 
d="M1440 -440h-1360v100h1360v-100z" />
    <glyph glyph-name="grave" unicode="`" horiz-adv-x="600" 
d="M500 1200h-59.999l-239 242c-17.333 18 -37.333 32.333 -60 43c-20.667 10 -34.334 15 -41.001 15v20h260c6.66699 0 14 -5.33301 22 -16c16 -20 48.667 -101.333 98 -244z" />
    <glyph glyph-name="a" unicode="a" horiz-adv-x="1358" 
d="M1320 0l-400 -0.000976562c-13.333 0 -28 10.667 -44 32s-25.333 32 -28 32c-68 -49.333 -150.667 -74 -248 -74c-169.333 0 -305 38 -407 114s-153 161.333 -153 256s50.667 178.334 152 251.001s237.333 109 408 109c82.667 0 162.667 -16.667 240 -50v50
c0 206.667 -86.667 310 -260 310c-110.667 0 -216.667 -28.667 -318 -86l-12 18c106.667 58.667 216.667 88 330 88c386.667 0 580 -176.667 580 -530v-360c0 -93.333 53.333 -140 160 -140v-20zM840 647.999c-76 34.667 -155.999 52 -239.999 52
c-98.667 0 -168 -37.333 -208 -112c-21.333 -36 -32 -112 -32 -228c0 -141.333 17.333 -233.333 52 -276c41.333 -49.333 104 -74 188 -74c101.333 0 182.666 25.333 243.999 76c-2.66699 82.667 -4 162 -4 238v324z" />
    <glyph glyph-name="b" unicode="b" horiz-adv-x="1220" 
d="M460 84c65.333 -48 131.999 -72 199.999 -72c86.667 0 145.334 38 176.001 114c16 42.667 24 174 24 394c0 226.667 -8 358.667 -24 396c-32 76 -90.667 114 -176 114c-68 0 -134.667 -24 -200 -72v-600v-274zM459.999 984c66.667 44 133.335 65.998 200.002 65.998
c157.333 0 283.333 -47.333 378 -142c94.667 -93.333 142 -222.666 142 -387.999s-46.667 -294.666 -140 -387.999c-94.667 -93.333 -221.334 -140 -380.001 -140c-74.667 0 -141.334 22 -200.001 66c-44 34.667 -85.333 52 -124 52c-22.667 0 -51.667 -18.333 -87 -55
s-55 -55 -59 -55h-50v1360c0 93.333 -53.333 140 -160 140v20h400c53.333 0 80 -53.333 80 -160v-376z" />
    <glyph glyph-name="c" unicode="c" horiz-adv-x="1124" 
d="M598 -10c-180 0 -317.997 46 -413.997 138s-144 222.667 -144 392c0 168 48.667 298.667 146 392c97.333 92 235.333 138 414 138c58.667 0 125 -12.333 199 -37s139.333 -59.667 196 -105s85 -92 85 -140c0 -46.667 -16 -85.667 -48 -117s-70 -47 -114 -47
c-45.333 0 -83 16.667 -113 50s-45 70 -45 110c0 24 7.33301 50.333 22 79s22 55.667 22 81c0 24 -22.333 47.667 -67 71s-90.334 35 -137.001 35c-114.667 0 -184.667 -44 -210 -132c-20 -70.667 -30 -196.667 -30 -378c0 -212 10 -340 30 -384
c37.333 -84 106.666 -126 207.999 -126c98.667 0 188.667 24 270 72s148.666 113.333 201.999 196l16 -10c-54.667 -85.333 -124 -153 -208 -203s-177.333 -75 -280 -75z" />
    <glyph glyph-name="d" unicode="d" horiz-adv-x="1280" 
d="M360 522c0 -226.667 8.00098 -358.667 24.001 -396c32 -76 90.667 -114 176 -114c69.333 0 137.333 24.667 204 74c-2.66699 24 -4 49.333 -4 76v796c-65.333 48 -132 72 -200 72c-86.667 0 -145.334 -38 -176.001 -114c-16 -42.667 -24 -174 -24 -394zM1080 1360
l-0.000976562 -1200c0 -93.333 53.333 -140 160 -140v-20h-400c-13.333 0 -28.333 10.667 -45 32s-25.667 32 -27 32c-72 -48 -141.333 -72 -208 -72c-157.333 0 -283.333 47 -378 141s-142 223.667 -142 389s47 294.666 141 387.999s220.333 140 379 140
c66.667 0 133.334 -22 200.001 -66v376c0 93.333 -53.333 140 -160 140v20h400c53.333 0 80 -53.333 80 -160z" />
    <glyph glyph-name="e" unicode="e" 
d="M360 540l479.999 -0.000976562c0 202.667 -10 325.334 -30 368.001c-37.333 81.333 -107.333 122 -210 122c-101.333 0 -166.666 -34 -195.999 -102c-29.333 -70.667 -44 -200 -44 -388zM599.999 -10.001c-180 0 -318.667 46 -416 138c-96 92 -144 222.667 -144 392
c0 168 48.667 298.667 146 392c97.333 92 235.333 138 414 138s316.667 -46 414 -138c97.333 -93.333 146 -224 146 -392h-800c0 -236 13.333 -372.667 40 -410c49.333 -66.667 116 -100 200 -100c100 0 194 24.667 282 74s158 114 210 194l16 -10
c-53.333 -84 -125.333 -151.333 -216 -202s-188 -76 -292 -76z" />
    <glyph glyph-name="f" unicode="f" horiz-adv-x="880" 
d="M200 1040c6 320 159.333 480 460 480c105.333 0 175.333 -38.667 210 -116l-18 -8c-32 69.333 -96 104 -192 104c-93.333 0 -140 -68 -140 -204v-256h180v-20h-180v-860c0 -93.333 53.333 -140 160 -140v-20h-640v20c106.667 0 160 46.667 160 140v860h-160v20h160z" />
    <glyph glyph-name="g" unicode="g" horiz-adv-x="1280" 
d="M360 520c0 -220 7.99902 -351.333 23.999 -394c30.667 -76 89.334 -114 176.001 -114c68 0 134.667 24 200 72v796c0 26.667 1.33301 52 4 76c-66.667 49.333 -134.667 74 -204 74c-85.333 0 -144 -38 -176 -114c-16 -37.333 -24 -169.333 -24 -396zM759.999 58
c-66.667 -44 -133.332 -65.998 -199.999 -65.998c-158.667 0 -285.334 46.667 -380.001 140c-93.333 93.333 -140 222.666 -140 387.999s47.333 294.666 142 387.999c94.667 94.667 220.667 142 378 142c66.667 0 136 -24 208 -72c2.66699 0 12 10 28 30
c17.333 21.333 32 32 44 32h400v-20c-106.667 0 -160 -46.667 -160 -140v-750c0 -168 -51.333 -298 -154 -390c-102.667 -93.333 -244.667 -140 -426 -140c-113.333 0 -223.333 29.333 -330 88l12 18c101.333 -57.333 207.333 -86 318 -86c96 0 162.667 25.333 200 76
c37.333 49.333 57.333 127.333 60 234v128z" />
    <glyph glyph-name="h" unicode="h" horiz-adv-x="1440" 
d="M200 1360c0 93.333 -53.334 140 -160.001 140v20h400c53.333 0 80 -53.333 80 -160v-376c66.667 44 133.334 66 200.001 66c346.667 0 520 -123.333 520 -370v-520c0 -93.333 53.333 -140 160 -140v-20h-640v20c106.667 0 160 46.667 160 140v500
c0 246.667 -66.667 370 -200 370c-68 0 -134.667 -24 -200 -72v-798c0 -93.333 53.333 -140 160 -140v-20h-640v20c106.667 0 160 46.667 160 140v1200z" />
    <glyph glyph-name="i" unicode="i" horiz-adv-x="720" 
d="M40 1040h400c53.333 0 80 -53.333 80 -160v-720c0 -93.333 53.333 -140 160 -140v-20h-640v20c106.667 0 160 46.667 160 140v720c0 93.333 -53.333 140 -160 140v20zM200 1360c0 44 15.667 81.667 47 113s69 47 113 47s81.667 -15.667 113 -47s47 -69 47 -113
s-15.667 -81.667 -47 -113s-69 -47 -113 -47s-81.667 15.667 -113 47s-47 69 -47 113z" />
    <glyph glyph-name="j" unicode="j" horiz-adv-x="610" 
d="M520 880l-0.000976562 -780c0 -149.333 -39.667 -270 -119 -362s-199.666 -138 -360.999 -138c-91.333 0 -154.666 39.333 -189.999 118l18 8c32 -70.667 89.333 -106 172 -106c103.333 0 156.666 106.667 159.999 320v940c0 93.333 -53.333 140 -160 140v20h400
c53.333 0 80 -53.333 80 -160zM199.999 1360c0 44 15.333 81.667 46 113s68.667 47 114 47c44 0 81.667 -15.667 113 -47s47 -69 47 -113s-15.667 -81.667 -47 -113s-69 -47 -113 -47c-45.333 0 -83.333 15.667 -114 47s-46 69 -46 113z" />
    <glyph glyph-name="k" unicode="k" horiz-adv-x="1340" 
d="M180 1360c0 93.333 -53.334 140 -160.001 140v20h400c53.333 0 80 -53.333 80 -160v-1058l462 590c22.667 28 34 52 34 72c0 37.333 -45.333 56 -136 56v20h340v-20c-44 0 -79.333 -7.33301 -106 -22s-64 -52.667 -112 -114l-132 -168l282 -560
c30.667 -64 55.334 -102.667 74.001 -116s50 -20 94 -20v-20h-380c-50.667 -0 -98 49.333 -142 148l-146 288l-132 -166v-110c0 -93.333 53.333 -140 160 -140v-20h-640v20c106.667 0 160 46.667 160 140v1200z" />
    <glyph glyph-name="l" unicode="l" horiz-adv-x="700" 
d="M500 1360v-1200c0 -93.333 53.333 -140 160 -140v-20h-640v20c106.667 0 160 46.667 160 140v1200c0 93.333 -53.333 140 -160 140v20h400c53.333 0 80 -53.333 80 -160z" />
    <glyph glyph-name="m" unicode="m" horiz-adv-x="2160" 
d="M520 880v-719.999c0 -93.333 53.333 -140 160 -140v-20h-640v20c106.667 0 160 46.667 160 140v720c0 93.333 -53.333 140 -160 140v20h400c12 0 26.333 -10.333 43 -31s26.334 -31 29.001 -31c72 48 141.333 72 208 72c209.333 0 356 -45.333 440 -136
c24 25.333 48 46.666 72 63.999c72 48 141.333 72 208 72c346.667 0 520 -123.333 520 -370v-520c0 -93.333 53.333 -140 160 -140v-20h-640v20c106.667 0 160 46.667 160 140v500c0 246.667 -66.667 370 -200 370c-69.333 0 -137.333 -24.667 -204 -74
c-26.667 -20 -47.334 -40 -62.001 -60c44 -56 66 -128 66 -216v-520c0 -93.333 53.333 -140 160 -140v-20h-640v20c106.667 0 160 46.667 160 140v500c0 246.667 -66.667 370 -200 370c-69.333 0 -137.333 -24.667 -204 -74c2.66699 -24 4 -49.333 4 -76z" />
    <glyph glyph-name="n" unicode="n" horiz-adv-x="1440" 
d="M520 880l-0.000976562 -720c0 -93.333 53.333 -140 160 -140v-20h-640v20c106.667 0 160 46.667 160 140v720c0 93.333 -53.333 140 -160 140v20h400c12 0 26.333 -10.333 43 -31s26.334 -31 29.001 -31c72 48 141.333 72 208 72c346.667 0 520 -123.333 520 -370v-520
c0 -93.333 53.333 -140 160 -140v-20h-640v20c106.667 0 160 46.667 160 140v500c0 246.667 -66.667 370 -200 370c-69.333 0 -137.333 -24.667 -204 -74c2.66699 -24 4 -49.333 4 -76z" />
    <glyph glyph-name="o" unicode="o" 
d="M600 10c101.333 0 166.666 35.333 195.999 106c29.333 72 44 206.667 44 404s-14.667 332 -44 404c-29.333 70.667 -94.666 106 -195.999 106c-114.667 0 -184.667 -44 -210 -132c-20 -70.667 -30 -196.667 -30 -378s10 -307.333 30 -378
c25.333 -88 95.333 -132 210 -132zM600 -10c-180 0 -318.667 46 -416 138c-96 92 -144 222.667 -144 392c0 168 48.667 298.667 146 392c97.333 92 235.333 138 414 138s316.667 -46 414 -138c97.333 -93.333 146 -224 146 -392c0 -169.333 -48 -300 -144 -392
c-97.333 -92 -236 -138 -416 -138z" />
    <glyph glyph-name="p" unicode="p" horiz-adv-x="1280" 
d="M520 -240c0 -93.333 53.333 -140.001 160 -140.001v-20h-640v20c106.667 0 160 46.667 160 140v1120c0 93.333 -53.333 140 -160 140v20h400c12 0 26.333 -10.333 43 -31s26.334 -31 29.001 -31c72 48 141.333 72 208 72c157.333 0 283.333 -47 378 -141
s142 -223.667 142 -389s-47 -294.666 -141 -387.999s-220.333 -140 -379 -140c-66.667 0 -133.334 22 -200.001 66v-298zM920 519.999c0 226.667 -8.00098 358.667 -24.001 396c-32 76 -90.667 114 -176 114c-69.333 0 -137.333 -24.667 -204 -74
c2.66699 -24 4 -49.333 4 -76v-796c65.333 -48 132 -72 200 -72c86.667 0 145.334 38 176.001 114c16 42.667 24 174 24 394z" />
    <glyph glyph-name="q" unicode="q" horiz-adv-x="1280" 
d="M360 520c0 -220 7.99902 -351.333 23.999 -394c30.667 -76 89.334 -114 176.001 -114c68 0 134.667 24 200 72v796c0 26.667 1.33301 52 4 76c-66.667 49.333 -134.667 74 -204 74c-85.333 0 -144 -38 -176 -114c-16 -37.333 -24 -169.333 -24 -396zM759.999 -240
v298.001c-66.667 -44 -133.334 -66 -200.001 -66c-158.667 0 -285 46.667 -379 140s-141 222.666 -141 387.999s47.333 295 142 389s220.667 141 378 141c66.667 0 136 -24 208 -72c2.66699 0 12.334 10.333 29.001 31s31 31 43 31h400v-20
c-106.667 0 -160 -46.667 -160 -140v-1120c0 -93.333 53.333 -140 160 -140v-20h-400c-53.333 0 -80 53.333 -80 160z" />
    <glyph glyph-name="r" unicode="r" horiz-adv-x="1180" 
d="M1160 850c0 -42.667 -15.334 -80 -46.001 -112s-68.667 -48 -114 -48c-42.667 0 -80 15.333 -112 46s-48 68.667 -48 114l8 80c0 53.333 -25.333 80 -76 80c-90.667 0 -174.667 -44 -252 -132v-718c0 -93.333 53.333 -140 160 -140v-20h-640v20
c106.667 0 160 46.667 160 140v720c0 93.333 -53.333 140 -160 140v20h400c12 0 24 -10.667 36 -32c14.667 -22.667 25.334 -44 32.001 -64l12 -34c52 48 98.667 82 140 102c53.333 25.333 128 38 224 38c72 0 136 -17.333 192 -52s84 -84 84 -148z" />
    <glyph glyph-name="s" unicode="s" horiz-adv-x="984" 
d="M842 1030l20 0.000976562l18 -282h-20c-5.33301 50 -27.666 104 -66.999 162c-23.333 34 -60.333 62.5 -111 85.5s-110.667 34.5 -180 34.5c-62.667 0 -112.334 -16.333 -149.001 -49s-55 -67 -55 -103c0 -45.333 15.333 -79.333 46 -102c28 -21.333 65.333 -44 112 -68
l300 -140c125.333 -66.667 188 -153.334 188 -260.001c0 -212 -160 -318 -480 -318c-50 0 -97.333 6.66699 -142 20c-61.333 18.667 -116 47.334 -164 86.001c-16.667 13.333 -33.334 20 -50.001 20c-33.333 0 -50 -37.333 -50 -112h-20l8 308h20
c0 -20 7.33301 -45.333 22 -76c42 -87.333 105 -150 189 -188c56 -25.333 118.333 -38 187 -38c136 0 204 50.667 204 152c0 72 -40 128.667 -120 170l-282 128c-69.333 31.333 -122.333 70.666 -159 117.999c-34 44.667 -51 96.667 -51 156c0 98.667 41 176 123 232
c80.667 56 188.334 84 323.001 84c64 0 119 -8.66699 165 -26c42.667 -16.667 81.5 -25 116.5 -25s54.5 10.333 58.5 31z" />
    <glyph glyph-name="t" unicode="t" horiz-adv-x="790" 
d="M460 215c0 -136.667 40 -205 120 -205c82.667 0 140 34.667 172 104l18 -8c-34.667 -77.333 -98 -116 -190 -116c-293.333 0 -440 166.667 -440 500v390c0 93.333 -53.333 140 -160 140v20h88c128 0 192 93.333 192 280h200v-280h280v-20h-280v-805z" />
    <glyph glyph-name="u" unicode="u" horiz-adv-x="1380" 
d="M1180 880l0.000976562 -720c0 -93.333 53.333 -140 160 -140v-20h-400c-12 -0 -26.333 10.333 -43 31s-26.334 31 -29.001 31c-72 -48 -141.333 -72 -208 -72c-346.667 0 -520 123.333 -520 370v520c0 93.333 -53.333 140 -160 140v20h400c53.333 0 80 -53.333 80 -160
v-660c0 -140 66.667 -210 200 -210c69.333 0 137.333 24.667 204 74c-2.66699 24 -4 49.333 -4 76v720c0 93.333 -53.333 140 -160 140v20h400c53.333 0 80 -53.333 80 -160z" />
    <glyph glyph-name="v" unicode="v" horiz-adv-x="1140" 
d="M482 892l231.999 -570.001l230 570c9.33301 22.667 14 44 14 64c0 42.667 -39.333 64 -118 64v20h260v-20c-57.333 -1.33301 -102.666 -46.666 -135.999 -135.999l-238 -592l-116 -292h-64c-24 -0 -42 7.33301 -54 22c-1.33301 2.66699 -17.333 44.667 -48 126l-296 736
c-26.667 66.667 -50.667 106 -72 118c-18.667 12 -50.667 18 -96 18v20h380c45.333 0 86 -49.333 122 -148z" />
    <glyph glyph-name="w" unicode="w" horiz-adv-x="1780" 
d="M1250 0l-64 -0.000976562c-24 0 -42 7.33301 -54 22c-1.33301 2.66699 -17.333 44.667 -48 126l-208 518l-150 -374l-116 -292h-64c-24 0 -42 7.33301 -54 22c-1.33301 2.66699 -17.333 44.667 -48 126l-296 736c-26.667 66.667 -50.667 106 -72 118
c-18.667 12 -50.667 18 -96 18v20h380c45.333 0 86 -49.333 122 -148l232 -570l152 374l-76 188c-18.667 48 -34.667 80 -48 96c-22.667 26.667 -63.334 40 -122.001 40v20h620v-20c-85.333 0 -128 -22 -128 -66c0 -21.333 4 -42 12 -62l230 -570l230 570
c9.33301 22.667 14 44 14 64c0 42.667 -39.333 64 -118 64v20h260v-20c-57.333 -1.33301 -102.666 -46.666 -135.999 -135.999l-238 -592z" />
    <glyph glyph-name="x" unicode="x" horiz-adv-x="1140" 
d="M786 892c21.333 29.333 32.002 52.667 32.002 70c0 38.667 -46 58 -138 58v20h340v-20c-45.333 0 -81.333 -7.33301 -108 -22s-62.667 -52.667 -108 -114l-152 -208l262 -520c22.667 -44 44 -76 64 -96c26.667 -26.667 67.334 -40 122.001 -40v-20h-640v20
c77.333 0 116 19.333 116 58c0 14.667 -5.33301 38 -16 70l-122 240l-176 -240c-20 -25.333 -30 -48 -30 -68c0 -40 42.667 -60 128 -60v-20h-340v20c33.333 0 58.666 1.33301 75.999 4c45.333 9.33301 94.666 53.333 147.999 132l184 252l-240 476
c-32 62.667 -57.333 101 -76 115s-49.334 21 -92.001 21v20h380c50.667 0 98 -49.333 142 -148l100 -196z" />
    <glyph glyph-name="y" unicode="y" horiz-adv-x="1140" 
d="M482 892l231.998 -570l230 570c9.33301 23.333 14 44.666 14 63.999c0 42.667 -39.333 64 -118 64v20h260v-20c-57.333 -1.33301 -102.666 -46.666 -135.999 -135.999l-238 -592l-112 -282l-114 -282c-46.667 -98.667 -104 -148 -172 -148c-44 0 -81.667 15.667 -113 47
s-47 69 -47 113s15.333 81.667 46 113s68 47 112 47c40.667 0 77.334 -14 110.001 -42c28 -24 49.333 -36 64 -36c10.667 0 18 5.33301 22 16l64 162h-40c-28.667 -0 -46.667 7.33301 -54 22c-1.33301 2.66699 -17.333 44.667 -48 126l-296 736c-26 64.667 -50 104 -72 118
c-18.667 12 -50.667 18 -96 18v20h380c45.333 0 86 -49.333 122 -148z" />
    <glyph glyph-name="z" unicode="z" horiz-adv-x="1210" 
d="M870 20c154.667 0 237.998 93.333 249.998 280h20v-300h-1120v20c28 0 73.333 45.333 136 136l476 736c13.333 20.667 20 42.667 20 66c0 41.333 -46 62 -138 62h-184c-154.667 0 -238 -93.333 -250 -280h-20v300h1080v-20c-15.333 0 -37.666 -13.333 -66.999 -40
c-3.33301 -2.66699 -24.666 -34.667 -63.999 -96l-476 -736c-12 -18.667 -18 -40.667 -18 -66c0 -41.333 45.333 -62 136 -62h219z" />
    <glyph glyph-name="braceleft" unicode="{" horiz-adv-x="740" 
d="M478 -108c0 -53.333 16.001 -91.9961 48.001 -115.996s70 -36 114 -36h80v-20h-240c-73.333 0 -145.666 35.333 -216.999 106s-107 142 -107 214c0 12 7.66699 60 23 144s23 152 23 204c0 44 -9 77.333 -27 100c-12 15.333 -30.333 35.333 -55 60
c-40 41.333 -60 75.333 -60 102c0 29.333 20 63.333 60 102c41.333 41.333 64.666 70.333 69.999 87c8 26 12 50.333 12 73c0 46.667 -7.66699 111 -23 193s-23 130.333 -23 145c0 72 35.667 143.333 107 214s143.666 106 216.999 106h240v-20h-80c-44 0 -82 -12 -114 -36
s-48 -62.667 -48 -116c0 -5.33301 6 -71 18 -197s18 -203 18 -231c0 -40 -22.667 -75.667 -68 -107s-95 -55.333 -149 -72s-103.667 -37.334 -149 -62.001s-68 -51 -68 -79s22.667 -55.333 68 -82s95 -49.334 149 -68.001s103.667 -43.334 149 -74.001
s68 -63.334 68 -98.001c0 -36 -6 -116.333 -18 -241s-18 -189.667 -18 -195z" />
    <glyph glyph-name="bar" unicode="|" horiz-adv-x="480" 
d="M80 1568h320v-2048h-320v2048z" />
    <glyph glyph-name="braceright" unicode="}" horiz-adv-x="740" 
d="M262 -108c0 5.33301 -5.99902 70.3291 -17.999 194.996s-18 205 -18 241c0 34.667 22.667 67.334 68 98.001s95 55.334 149 74.001s103.667 41.334 149 68.001s68 54 68 82s-22.667 54.333 -68 79s-95 45.334 -149 62.001s-103.667 40.667 -149 72s-68 67 -68 107
c0 28 6 105 18 231s18 191.667 18 197c0 53.333 -16 92 -48 116s-70 36 -114 36h-80v20h240c73.333 0 145.666 -35.333 216.999 -106s107 -142 107 -214c0 -14.667 -7.66699 -63 -23 -145s-23 -146.333 -23 -193c0 -22.667 4 -47 12 -73
c5.33301 -16.667 28.666 -45.667 69.999 -87c40 -38.667 60 -72.667 60 -102c0 -26.667 -20 -60.667 -60 -102c-24.667 -24.667 -43 -44.667 -55 -60c-18 -22.667 -27 -56 -27 -100c0 -52 7.66699 -120 23 -204s23 -132 23 -144c0 -72 -35.667 -143.333 -107 -214
s-143.666 -106 -216.999 -106h-240v20h80c44 0 82 12 114 36s48 62.667 48 116z" />
    <glyph glyph-name="asciitilde" unicode="~" horiz-adv-x="1160" 
d="M740 448c-46.667 0 -92.334 12.667 -137.001 38s-82 53 -112 83s-66 57.667 -108 83s-84.333 38 -127 38c-77.333 0 -124.666 -44.667 -141.999 -134l-16 -78l-18 2l44 236c12 68 47.667 129 107 183s123 81 191 81c48 0 94.333 -12.667 139 -38s82 -53 112 -83
s65.333 -57.667 106 -83s81.667 -38 123 -38s74 13.333 98 40s39.333 58.667 46 96l14 78l20 -4l-44 -236c-12 -68 -47.667 -129 -107 -183s-122.333 -81 -189 -81z" />
    <glyph glyph-name="exclamdown" unicode="&#xa1;" horiz-adv-x="480" 
d="M306 -400l-226.002 0.00195312l80 920h160c45.333 -513.333 68 -783.333 68 -810c0 -34.667 -4.66699 -60.334 -14 -77.001s-18.666 -26.334 -27.999 -29.001s-22.666 -4 -39.999 -4zM79.998 920.002c0 44 15.667 81.667 47 113s69 47 113 47s81.667 -15.667 113 -47
s47 -69 47 -113s-15.667 -81.667 -47 -113s-69 -47 -113 -47s-81.667 15.667 -113 47s-47 69 -47 113z" />
    <glyph glyph-name="cent" unicode="&#xa2;" horiz-adv-x="1124" 
d="M594 1320l20 -0.000976562v-190c55.333 -2 117 -14.333 185 -37c74 -24.667 139.333 -59.667 196 -105s85 -92 85 -140c0 -46.667 -16 -85.667 -48 -117s-70 -47 -114 -47c-45.333 0 -83 16.667 -113 50s-45 70 -45 110c0 24 7.33301 50.333 22 79s22 55.667 22 81
c0 24 -22.333 47.667 -67 71c-40 20.667 -81 32.334 -123 35.001v-1020c92.667 2.66699 177.334 26.667 254.001 72c81.333 48 148.666 113.333 201.999 196l16 -10c-54.667 -85.333 -124 -153 -208 -203c-79.333 -47.333 -167.333 -72.333 -264 -75v-150h-20v150
c-178 0.666992 -314.667 46.667 -410 138c-96 92 -144 222.667 -144 392c0 168 48.667 298.667 146 392c96 90.667 232 136.667 408 138v190zM594 89.999v1020c-111.333 -1.33301 -179.333 -45.333 -204 -132c-20 -70.667 -30 -196.667 -30 -378
c0 -211.333 10 -339.333 30 -384c37.333 -82.667 105.333 -124.667 204 -126z" />
    <glyph glyph-name="currency" unicode="&#xa4;" horiz-adv-x="846" 
d="M216 660c0 -56.667 20.167 -105.167 60.5 -145.5s88.833 -60.5 145.5 -60.5s105.167 20.167 145.5 60.5s60.5 88.833 60.5 145.5s-20.167 105.167 -60.5 145.5s-88.833 60.5 -145.5 60.5s-105.167 -20.167 -145.5 -60.5s-60.5 -88.833 -60.5 -145.5zM193 833
l-113 112.999l60 54l110 -111c49.333 38 106.666 57 171.999 57s123 -19 173 -57l117 117l54 -58l-115 -115c38 -50 57 -107.667 57 -173s-19 -122.666 -57 -171.999l111 -110l-60 -54l-107 107c-50 -38 -107.667 -57 -173 -57s-122.666 19 -171.999 57l-106 -107l-54 60
l103 103c-38 50 -57 107.667 -57 173s19 123 57 173z" />
    <glyph glyph-name="yen" unicode="&#xa5;" horiz-adv-x="1338" 
d="M560 1212l280.001 -554.001l272 554c12 24.667 18 45.334 18 62.001c0 44 -50.667 66 -152 66v20h340v-20c-56 0 -97.333 -13.333 -124 -40c-18.667 -18.667 -39.334 -50.667 -62.001 -96l-270 -546l1 -148h297l-10 -100h-287v-80h297l-10 -100h-286v-70
c0.666992 -93.333 54 -140 160 -140v-20h-640v20c106.667 0 160 46.667 160 140v70h-1h-313l10 100h303v80h-313l10 100h302v30l-336 664c-44 90.667 -106 136 -186 136v20h398c50.667 0 98 -49.333 142 -148z" />
    <glyph glyph-name="brokenbar" unicode="&#xa6;" horiz-adv-x="480" 
d="M400 320v-800h-320v800h320zM80 720v800h320v-800h-320z" />
    <glyph glyph-name="section" unicode="&#xa7;" horiz-adv-x="1360" 
d="M680 1520c92 0 185 -28.667 279 -86s141 -122.666 141 -195.999c0 -46.667 -16 -85.667 -48 -117s-70 -47 -114 -47c-45.333 0 -83 16.667 -113 50s-45 70 -45 110c0 24 7.33301 50.333 22 79s22 55.667 22 81c0 70.667 -48 106 -144 106c-113.333 0 -170 -38 -170 -114
c0 -89.333 50 -175.333 150 -258l428 -322c130.667 -98.667 196 -201.334 196 -308.001c0 -189.333 -121.333 -306.666 -364 -351.999c128 -106.667 192 -210 192 -310c0 -210.667 -144 -316 -432 -316c-92 0 -185 28.667 -279 86s-141 122.666 -141 195.999
c0 46.667 16 85.667 48 117s70 47 114 47c45.333 0 83 -16.667 113 -50s45 -70 45 -110c0 -24 -7.33301 -50.333 -22 -79s-22 -55.667 -22 -81c0 -70.667 48 -106 144 -106c113.333 0 170 38 170 114c0 89.333 -50 175.333 -150 258l-428 322
c-130.667 98.667 -196 201.334 -196 308.001c0 189.333 121.333 306.666 364 351.999c-128 106.667 -192 210 -192 310c0 210.667 144 316 432 316zM460 876c-80 -13.333 -120 -56 -120 -128c0 -109.333 44.667 -197.333 134 -264l426 -320c80 13.333 120 56 120 128
c0 109.333 -44.667 197.333 -134 264z" />
    <glyph glyph-name="dieresis" unicode="&#xa8;" 
d="M680 1320c0 44 15.667 81.667 47 113s69 47 113 47s81.667 -15.667 113 -47s47 -69 47 -113s-15.667 -81.667 -47 -113s-69 -47 -113 -47s-81.667 15.667 -113 47s-47 69 -47 113zM200 1320c0 44 15.667 81.667 47 113s69 47 113 47s81.667 -15.667 113 -47
s47 -69 47 -113s-15.667 -81.667 -47 -113s-69 -47 -113 -47s-81.667 15.667 -113 47s-47 69 -47 113z" />
    <glyph glyph-name="copyright" unicode="&#xa9;" horiz-adv-x="2060" 
d="M1028 30c-180 0 -317.999 46 -413.999 138s-144 222.667 -144 392c0 168 48.667 298.333 146 391s235.333 139 414 139c58.667 0 125 -12.333 199 -37s139.333 -59.667 196 -105s85 -92 85 -140c0 -46.667 -16 -85.667 -48 -117s-70 -47 -114 -47
c-45.333 0 -83 16.667 -113 50s-45 70 -45 110c0 24 7.33301 50.333 22 79s22 55.667 22 81c0 24 -22.333 47.667 -67 71s-90.334 35 -137.001 35c-29.333 0 -55.666 -2.33301 -78.999 -7s-43.333 -13.667 -60 -27s-30.667 -26 -42 -38s-21 -32 -29 -60s-14 -51.333 -18 -70
s-7 -48.667 -9 -90s-3 -74.666 -3 -99.999v-118c0 -72 0.333008 -124.667 1 -158s3.33398 -74.333 8.00098 -123s11.667 -83.334 21 -104.001s22.666 -42.667 39.999 -66s40 -39 68 -47s61.333 -12 100 -12c98.667 0 188.667 24 270 72s148.666 113.333 201.999 196l16 -10
c-54.667 -85.333 -124 -153 -208 -203s-177.333 -75 -280 -75zM1030 -364c180 0 346 41 498 123s272 193.333 360 334s132 294.334 132 461.001s-44 320.334 -132 461.001s-208 252 -360 334s-318 123 -498 123s-346 -41 -498 -123s-272 -193.333 -360 -334
s-132 -294.334 -132 -461.001s44 -320.334 132 -461.001s208 -252 360 -334s318 -123 498 -123zM2040 554c0 -169.333 -45.333 -326.333 -136 -471s-213.334 -258.667 -368.001 -342s-323.334 -125 -506.001 -125s-351.334 41.667 -506.001 125
s-277.334 197.333 -368.001 342s-136 301.667 -136 471s45.333 326.333 136 471s213.334 258.667 368.001 342s323.334 125 506.001 125s351.334 -41.667 506.001 -125s277.334 -197.333 368.001 -342s136 -301.667 136 -471z" />
    <glyph glyph-name="guillemotleft" unicode="&#xab;" horiz-adv-x="1280" 
d="M1200 188l-600 605.999l600 590v-330l-260 -256c-36 -36 -54 -69.333 -54 -100c0 -29.333 22.667 -66.666 68 -111.999l246 -250v-148zM640 187.999l-600 605.999l600 590v-330l-260 -256c-36 -36 -54 -69.333 -54 -100c0 -29.333 22.667 -66.666 68 -111.999l246 -250
v-148z" />
    <glyph glyph-name="registered" unicode="&#xae;" horiz-adv-x="2060" 
d="M910 1080v-640h160c133.333 0 200 100 200 300c0 226.667 -66.667 340 -200 340h-160zM2040 554c0 -169.333 -45.333 -326.333 -136 -471s-213.334 -258.667 -368.001 -342s-323.334 -125 -506.001 -125s-351.334 41.667 -506.001 125s-277.334 197.333 -368.001 342
s-136 301.667 -136 471s45.333 326.333 136 471s213.334 258.667 368.001 342s323.334 125 506.001 125s351.334 -41.667 506.001 -125s277.334 -197.333 368.001 -342s136 -301.667 136 -471zM1030 -364c180 0 346 41 498 123s272 193.333 360 334s132 294.334 132 461.001
s-44 320.334 -132 461.001s-208 252 -360 334s-318 123 -498 123s-346 -41 -498 -123s-272 -193.333 -360 -334s-132 -294.334 -132 -461.001s44 -320.334 132 -461.001s208 -252 360 -334s318 -123 498 -123zM430 1100h640c140 0 257 -33 351 -99
c112.667 -79.333 169 -166.333 169 -261s-56.333 -175 -169 -241l-26 -14l129 -269c21.333 -44 42 -76 62 -96c26.667 -26.667 68 -40 124 -40v-20h-380c-50.667 0 -98 49.333 -142 148l-102 212h-16h-160v-200c0 -93.333 53.333 -140 160 -140v-20h-640v20
c106.667 0 160 46.667 160 140v738c-4 81.333 -57.333 122 -160 122v20z" />
    <glyph glyph-name="macron" unicode="&#xaf;" horiz-adv-x="1050" 
d="M960 1260h-880l10 100h880z" />
    <glyph glyph-name="degree" unicode="&#xb0;" horiz-adv-x="480" 
d="M240 1440c49.333 0 95 -20.333 137 -61s63 -87 63 -139s-21 -98.333 -63 -139s-87.667 -61 -137 -61s-95 20.667 -137 62s-63 87.333 -63 138c0 52 21 98.333 63 139s87.667 61 137 61zM240 1420c-66.667 0 -100 -60 -100 -180s33.333 -180 100 -180s100 60 100 180
s-33.333 180 -100 180z" />
    <glyph glyph-name="plusminus" unicode="&#xb1;" horiz-adv-x="1050" 
d="M960 220h-880l10 100h880zM564 940h400l-4 -80h-396v-394l-80 4v390h-404l4 80h400v410l80 -4v-406z" />
    <glyph glyph-name="acute" unicode="&#xb4;" horiz-adv-x="920" 
d="M260 1200l20.001 60c49.333 142.667 82 224 98 244c8 10.667 15.333 16 22 16h260v-20c-6.66699 0 -20.334 -5 -41.001 -15c-22.667 -10.667 -42.667 -25 -60 -43l-239 -242h-60z" />
    <glyph glyph-name="uni00B5" unicode="&#xb5;" horiz-adv-x="1380" 
d="M240 -117c24.667 8 46 12.001 64 12.001c21.333 0 42.333 -4.33301 63 -13c65.333 -27.333 98 -76 98 -146c0 -20.667 -4.33301 -41.334 -13 -62.001c-27.333 -66 -76.666 -99 -147.999 -99c-20.667 0 -41 4 -61 12c-62.667 26 -97 93.667 -103 203v1090
c0 93.333 -53.333 140 -160 140v20h400c53.333 0 80 -53.333 80 -160v-500c0 -246.667 66.667 -370 200 -370c69.333 0 137.333 24.667 204 74c-2.66699 24 -4 49.333 -4 76v720c0 93.333 -53.333 140 -160 140v20h640v-20c-106.667 0 -160 -46.667 -160 -140v-720
c0 -93.333 53.333 -140 160 -140v-20h-400c-12 -0 -26.333 10.333 -43 31s-26.334 31 -29.001 31c-72 -48 -141.333 -72 -208 -72c-194.667 0 -334.667 39 -420 117v-224z" />
    <glyph glyph-name="paragraph" unicode="&#xb6;" horiz-adv-x="1320" 
d="M360 1420c-77.333 0 -145.333 -29 -204 -87s-88 -126.333 -88 -205s29.667 -147 89 -205s127 -87 203 -87h40v584h-40zM880 -480l-0.00195312 1760c0 93.333 -40 140 -120 140s-120 -46.667 -120 -140v-1760h-400v20c106.667 0 160 46.667 160 140v1136h-40
c-81.333 0 -153.666 31 -216.999 93s-95 135 -95 219c0 85.333 31.333 158.666 94 219.999s135.334 92 218.001 92h920v-20c-106.667 0 -160 -46.667 -160 -140v-1600c0 -93.333 53.333 -140 160 -140v-20h-400z" />
    <glyph glyph-name="periodcentered" unicode="&#xb7;" horiz-adv-x="480" 
d="M80 720c0 44 15.667 81.667 47 113s69 47 113 47s81.667 -15.667 113 -47s47 -69 47 -113s-15.667 -81.667 -47 -113s-69 -47 -113 -47s-81.667 15.667 -113 47s-47 69 -47 113z" />
    <glyph glyph-name="cedilla" unicode="&#xb8;" horiz-adv-x="840" 
d="M366 14l-20.999 -91c20.667 9.33301 46 14 76 14c71.333 0 134.333 -26 189 -78c36.667 -35.333 55 -74.666 55 -117.999c0 -58.667 -29.333 -106.334 -88 -143.001c-44 -27.333 -94.333 -41 -151 -41c-76 0 -142.667 32 -200 96l3 22
c59.333 -64.667 119.666 -97 180.999 -97c88.667 0 133 69.333 133 208c0 86 -40.333 129 -121 129c-46 0 -82.667 -11.333 -110 -34l30 135z" />
    <glyph glyph-name="guillemotright" unicode="&#xbb;" horiz-adv-x="1280" 
d="M640 1390l600 -589.999l-600 -606v330l260 256c36 36 54 69.333 54 100c0 29.333 -22.667 66.666 -68 111.999l-246 250v148zM80 1390l600 -589.999l-600 -606v330l260 256c36 36 54 69.333 54 100c0 29.333 -22.667 66.666 -68 111.999l-246 250v148z" />
    <glyph glyph-name="questiondown" unicode="&#xbf;" horiz-adv-x="984" 
d="M744 920c0 -44 -15.667 -81.667 -47 -113s-69 -47 -113 -47s-81.667 15.667 -113 47s-47 69 -47 113s15.667 81.667 47 113s69 47 113 47s81.667 -15.667 113 -47s47 -69 47 -113zM688 218c0 -61.333 -31.9961 -113.337 -95.9961 -156.004l-152 -98
c-9.33301 -6.66699 -25.333 -16.667 -48 -30s-38.334 -23 -47.001 -29s-19.334 -15 -32.001 -27s-21 -24.667 -25 -38s-6 -28.666 -6 -45.999c0 -36 21.667 -73.667 65 -113s96.333 -59 159 -59c56 0 107 8.33301 153 25s82.333 37.334 109 62.001s49.334 51.667 68.001 81
s31.334 55 38.001 77s10 41 10 57l20 2l-18 -284h-20c0 17.333 -4 34.666 -12 51.999s-17.333 26 -28 26c-6.66699 0 -22.667 -9.66699 -48 -29s-61.333 -39 -108 -59s-101.334 -30 -164.001 -30c-133.333 0 -244.333 31 -333 93s-133 143 -133 243
c0 42.667 10.667 81.334 32 116.001s43.666 61.334 66.999 80.001s60.333 44.667 111 78l82 54c5.33301 2.66699 17.666 10 36.999 22s34 21.667 44 29s22.333 17.333 37 30s25.667 26.334 33 41.001s11.666 30.667 12.999 48l8 84h160c16 -200 24 -300.667 24 -302z" />
    <glyph glyph-name="Agrave" unicode="&#xc0;" horiz-adv-x="1400" 
d="M752 1440h-59.999l-239 242c-17.333 18 -37.333 32.333 -60 43c-20.667 10 -34.334 15 -41.001 15v20h260c6.66699 0 14 -5.33301 22 -16c16 -20 48.667 -101.333 98 -244zM743.001 440l-220 678l-222 -678h442zM750.001 420h-455l-89 -272c-8 -22.667 -12 -42 -12 -58
c0 -46.667 48.667 -70 146 -70v-20h-340v20c94.667 0 156.667 45.333 186 136l325 996l-17 52c-32 90.667 -94 136 -186 136v20h386c57.333 0 102 -49.333 134 -148l344 -1056c29.333 -90.667 92 -136 188 -136v-20h-640v20c86.667 0 130 22.667 130 68
c0 15.333 -4 35.333 -12 60z" />
    <glyph glyph-name="Aacute" unicode="&#xc1;" horiz-adv-x="1400" 
d="M580 1440l20.001 60c49.333 142.667 82 224 98 244c8 10.667 15.333 16 22 16h260v-20c-6.66699 0 -20.334 -5 -41.001 -15c-22.667 -10.667 -42.667 -25 -60 -43l-239 -242h-60zM743.001 440l-220 678l-222 -678h442zM750.001 420h-455l-89 -272
c-8 -22.667 -12 -42 -12 -58c0 -46.667 48.667 -70 146 -70v-20h-340v20c94.667 0 156.667 45.333 186 136l325 996l-17 52c-32 90.667 -94 136 -186 136v20h386c57.333 0 102 -49.333 134 -148l344 -1056c29.333 -90.667 92 -136 188 -136v-20h-640v20
c86.667 0 130 22.667 130 68c0 15.333 -4 35.333 -12 60z" />
    <glyph glyph-name="Acircumflex" unicode="&#xc2;" horiz-adv-x="1400" 
d="M680 1680c-18.667 0 -50 -17.333 -94 -52l-236 -188h-30l200 320h320l200 -320h-30l-234 188c-44 34.667 -76 52 -96 52zM743 440l-220 678l-222 -678h442zM750 420h-455l-89 -272c-8 -22.667 -12 -42 -12 -58c0 -46.667 48.667 -70 146 -70v-20h-340v20
c94.667 0 156.667 45.333 186 136l325 996l-17 52c-32 90.667 -94 136 -186 136v20h386c57.333 0 102 -49.333 134 -148l344 -1056c29.333 -90.667 92 -136 188 -136v-20h-640v20c86.667 0 130 22.667 130 68c0 15.333 -4 35.333 -12 60z" />
    <glyph glyph-name="Atilde" unicode="&#xc3;" horiz-adv-x="1400" 
d="M633 1720l134 -100c32.667 -21.333 60 -32 82 -32c69.333 0 104 32 104 96c0 13.333 -2.66699 27.333 -8 42l18 8c14.667 -38.667 22 -74 22 -106c0 -125.333 -70.667 -188 -212 -188c-40 0 -78.667 12 -116 36l-134 100c-34 22.667 -68.667 34 -104 34
c-54.667 0 -82 -32.667 -82 -98c0 -12 2.66699 -26 8 -42l-18 -8c-14.667 40 -22 76 -22 108c0 126.667 65.333 190 196 190c52 0 96 -13.333 132 -40zM743 440l-220 678l-222 -678h442zM750 420h-455l-89 -272c-8 -22.667 -12 -42 -12 -58c0 -46.667 48.667 -70 146 -70
v-20h-340v20c94.667 0 156.667 45.333 186 136l325 996l-17 52c-32 90.667 -94 136 -186 136v20h386c57.333 0 102 -49.333 134 -148l344 -1056c29.333 -90.667 92 -136 188 -136v-20h-640v20c86.667 0 130 22.667 130 68c0 15.333 -4 35.333 -12 60z" />
    <glyph glyph-name="Adieresis" unicode="&#xc4;" horiz-adv-x="1400" 
d="M700 1600c0 44 15.667 81.667 47 113s69 47 113 47s81.667 -15.667 113 -47s47 -69 47 -113s-15.667 -81.667 -47 -113s-69 -47 -113 -47s-81.667 15.667 -113 47s-47 69 -47 113zM220 1600c0 44 15.667 81.667 47 113s69 47 113 47s81.667 -15.667 113 -47
s47 -69 47 -113s-15.667 -81.667 -47 -113s-69 -47 -113 -47s-81.667 15.667 -113 47s-47 69 -47 113zM743 440l-220 678l-222 -678h442zM750 420h-455l-89 -272c-8 -22.667 -12 -42 -12 -58c0 -46.667 48.667 -70 146 -70v-20h-340v20c94.667 0 156.667 45.333 186 136
l325 996l-17 52c-32 90.667 -94 136 -186 136v20h386c57.333 0 102 -49.333 134 -148l344 -1056c29.333 -90.667 92 -136 188 -136v-20h-640v20c86.667 0 130 22.667 130 68c0 15.333 -4 35.333 -12 60z" />
    <glyph glyph-name="Aring" unicode="&#xc5;" horiz-adv-x="1400" 
d="M620 1761c49.333 0 95 -20.333 137 -61s63 -87 63 -139s-21 -98.333 -63 -139s-87.667 -61 -137 -61s-95 20.667 -137 62s-63 87.333 -63 138c0 52 21 98.333 63 139s87.667 61 137 61zM620 1741c-66.667 0 -100 -60 -100 -180s33.333 -180 100 -180s100 60 100 180
s-33.333 180 -100 180zM743 440l-220 678l-222 -678h442zM750 420h-455l-89 -272c-8 -22.667 -12 -42 -12 -58c0 -46.667 48.667 -70 146 -70v-20h-340v20c94.667 0 156.667 45.333 186 136l325 996l-17 52c-32 90.667 -94 136 -186 136v20h386
c57.333 0 102 -49.333 134 -148l344 -1056c29.333 -90.667 92 -136 188 -136v-20h-640v20c86.667 0 130 22.667 130 68c0 15.333 -4 35.333 -12 60z" />
    <glyph glyph-name="AE" unicode="&#xc6;" horiz-adv-x="1940" 
d="M742 1340c-37.333 0 -65 -13 -83 -39s-47 -96.333 -87 -211l-226 -650h554v760c0 93.333 -52.667 140 -158 140zM1860 1360v-300.002h-20c-12 186.667 -95.333 280 -250 280h-370v-560h178c93.333 0 140 53.333 140 160h20v-340h-20c0 106.667 -46.667 160 -140 160h-178
v-740h390c154.667 0 238 93.333 250 280h20v-300h-1140v20c102.667 0 156 40.667 160 122v278h-560l-94 -272c-8 -23.333 -12 -42.666 -12 -57.999c0 -46.667 48.667 -70 146 -70v-20h-340v20c92.667 0 154.667 45.333 186 136l334 968c12 34.667 18 65.334 18 92.001
c0 82.667 -76.667 124 -230 124v20h1512z" />
    <glyph glyph-name="Ccedilla" unicode="&#xc7;" horiz-adv-x="1040" 
d="M624 1350c-113.333 0 -193.333 -69.999 -240 -209.999c-29.333 -88.667 -44 -242 -44 -460c0 -189.333 14 -341.333 42 -456c34.667 -142.667 113.334 -214 236.001 -214c130.667 0 251.334 47.333 362.001 142v-26c-110.667 -90.667 -231.334 -136 -362.001 -136
c-16.667 0 -32.667 0.666992 -48 2l-19 -81c20.667 9.33301 46 14 76 14c71.333 0 134.333 -26 189 -78c36.667 -35.333 55 -74.666 55 -117.999c0 -58.667 -29.333 -106.334 -88 -143.001c-44 -27.333 -94.333 -41 -151 -41c-76 0 -142.667 32 -200 96l3 22
c59.333 -64.667 119.666 -97 180.999 -97c88.667 0 133 69.333 133 208c0 86 -40.333 129 -121 129c-46 0 -82.667 -11.333 -110 -34l28 125c-144.667 16 -264.667 81.333 -360 196c-110.667 133.333 -166 296.666 -166 489.999c0 190.667 56 353.334 168 488.001
s256.667 202 434 202c62.667 0 117 -8.66699 163 -26c42.667 -16.667 82.667 -25 120 -25c38 0 57 13.667 57 41h20l18 -308h-20c0 21.333 -5 46.666 -15 75.999c-30 87.333 -83.667 149.333 -161 186c-50.667 24 -110.667 36 -180 36z" />
    <glyph glyph-name="Egrave" unicode="&#xc8;" horiz-adv-x="1240" 
d="M800 1440h-59.999l-239 242c-17.333 18 -37.333 32.333 -60 43c-20.667 10 -34.334 15 -41.001 15v20h260c6.66699 0 14 -5.33301 22 -16c16 -20 48.667 -101.333 98 -244zM40.001 1360h1120v-300h-20c-12 186.667 -95.333 280 -250 280h-370v-560h178
c93.333 0 140 53.333 140 160h20v-340h-20c0 106.667 -46.667 160 -140 160h-178v-740h390c154.667 0 238 93.333 250 280h20v-300h-1140v20c102.667 0 156 40.667 160 122v1058c0 93.333 -53.333 140 -160 140v20z" />
    <glyph glyph-name="Eacute" unicode="&#xc9;" horiz-adv-x="1240" 
d="M520 1440l20.001 60c49.333 142.667 82 224 98 244c8 10.667 15.333 16 22 16h260v-20c-6.66699 0 -20.334 -5 -41.001 -15c-22.667 -10.667 -42.667 -25 -60 -43l-239 -242h-60zM40.001 1360h1120v-300h-20c-12 186.667 -95.333 280 -250 280h-370v-560h178
c93.333 0 140 53.333 140 160h20v-340h-20c0 106.667 -46.667 160 -140 160h-178v-740h390c154.667 0 238 93.333 250 280h20v-300h-1140v20c102.667 0 156 40.667 160 122v1058c0 93.333 -53.333 140 -160 140v20z" />
    <glyph glyph-name="Ecircumflex" unicode="&#xca;" horiz-adv-x="1240" 
d="M640 1680c-18.667 0 -50 -17.333 -94 -52l-236 -188h-30l200 320h320l200 -320h-30l-234 188c-44 34.667 -76 52 -96 52zM40 1360h1120v-300h-20c-12 186.667 -95.333 280 -250 280h-370v-560h178c93.333 0 140 53.333 140 160h20v-340h-20
c0 106.667 -46.667 160 -140 160h-178v-740h390c154.667 0 238 93.333 250 280h20v-300h-1140v20c102.667 0 156 40.667 160 122v1058c0 93.333 -53.333 140 -160 140v20z" />
    <glyph glyph-name="Edieresis" unicode="&#xcb;" horiz-adv-x="1240" 
d="M720 1600c0 44 15.667 81.667 47 113s69 47 113 47s81.667 -15.667 113 -47s47 -69 47 -113s-15.667 -81.667 -47 -113s-69 -47 -113 -47s-81.667 15.667 -113 47s-47 69 -47 113zM240 1600c0 44 15.667 81.667 47 113s69 47 113 47s81.667 -15.667 113 -47
s47 -69 47 -113s-15.667 -81.667 -47 -113s-69 -47 -113 -47s-81.667 15.667 -113 47s-47 69 -47 113zM40 1360h1120v-300h-20c-12 186.667 -95.333 280 -250 280h-370v-560h178c93.333 0 140 53.333 140 160h20v-340h-20c0 106.667 -46.667 160 -140 160h-178v-740h390
c154.667 0 238 93.333 250 280h20v-300h-1140v20c102.667 0 156 40.667 160 122v1058c0 93.333 -53.333 140 -160 140v20z" />
    <glyph glyph-name="Igrave" unicode="&#xcc;" horiz-adv-x="720" 
d="M460 1440h-59.999l-239 242c-17.333 18 -37.333 32.333 -60 43c-20.667 10 -34.334 15 -41.001 15v20h260c6.66699 0 14 -5.33301 22 -16c16 -20 48.667 -101.333 98 -244zM40.001 1360h640v-20c-106.667 0 -160 -46.667 -160 -140v-1040c0 -93.333 53.333 -140 160 -140
v-20h-640v20c106.667 0 160 46.667 160 140v1040c0 93.333 -53.333 140 -160 140v20z" />
    <glyph glyph-name="Iacute" unicode="&#xcd;" horiz-adv-x="720" 
d="M260 1440l20.001 60c49.333 142.667 82 224 98 244c8 10.667 15.333 16 22 16h260v-20c-6.66699 0 -20.334 -5 -41.001 -15c-22.667 -10.667 -42.667 -25 -60 -43l-239 -242h-60zM40.001 1360h640v-20c-106.667 0 -160 -46.667 -160 -140v-1040
c0 -93.333 53.333 -140 160 -140v-20h-640v20c106.667 0 160 46.667 160 140v1040c0 93.333 -53.333 140 -160 140v20z" />
    <glyph glyph-name="Icircumflex" unicode="&#xce;" horiz-adv-x="720" 
d="M360 1680c-18.667 0 -50 -17.333 -94 -52l-236 -188h-30l200 320h320l200 -320h-30l-234 188c-44 34.667 -76 52 -96 52zM40 1360h640v-20c-106.667 0 -160 -46.667 -160 -140v-1040c0 -93.333 53.333 -140 160 -140v-20h-640v20c106.667 0 160 46.667 160 140v1040
c0 93.333 -53.333 140 -160 140v20z" />
    <glyph glyph-name="Idieresis" unicode="&#xcf;" horiz-adv-x="720" 
d="M440 1600c0 44 15.667 81.667 47 113s69 47 113 47s81.667 -15.667 113 -47s47 -69 47 -113s-15.667 -81.667 -47 -113s-69 -47 -113 -47s-81.667 15.667 -113 47s-47 69 -47 113zM-40 1600c0 44 15.667 81.667 47 113s69 47 113 47s81.667 -15.667 113 -47
s47 -69 47 -113s-15.667 -81.667 -47 -113s-69 -47 -113 -47s-81.667 15.667 -113 47s-47 69 -47 113zM40 1360h640v-20c-106.667 0 -160 -46.667 -160 -140v-1040c0 -93.333 53.333 -140 160 -140v-20h-640v20c106.667 0 160 46.667 160 140v1040
c0 93.333 -53.333 140 -160 140v20z" />
    <glyph glyph-name="Eth" unicode="&#xd0;" horiz-adv-x="1360" 
d="M720 20c104 0 181.333 54 232 162c32 68 48 234 48 498s-16 430 -48 498c-50.667 108 -128 162 -232 162h-200v-610h220l-10 -100h-210v-610h200zM720 0h-680v20c102.667 0 156 40.667 160 122v488h-150l10 100h140v470c0 93.333 -53.333 140 -160 140v20h680
c174.667 0 318.334 -65.667 431.001 -197s169 -292.333 169 -483s-56.333 -351.667 -169 -483s-256.334 -197 -431.001 -197z" />
    <glyph glyph-name="Ntilde" unicode="&#xd1;" horiz-adv-x="1360" 
d="M667 1720l134 -100c32.667 -21.333 60 -32 82 -32c69.333 0 104 32 104 96c0 13.333 -2.66699 27.333 -8 42l18 8c14.667 -38.667 22 -74 22 -106c0 -125.333 -70.667 -188 -212 -188c-40 0 -78.667 12 -116 36l-134 100c-34 22.667 -68.667 34 -104 34
c-54.667 0 -82 -32.667 -82 -98c0 -12 2.66699 -26 8 -42l-18 -8c-14.667 40 -22 76 -22 108c0 126.667 65.333 190 196 190c52 0 96 -13.333 132 -40zM1160 232v-232h-234l-706 1200v-1040c0 -93.333 53.333 -140 160 -140v-20h-340v20c106.667 0 160 46.667 160 140v1040
c0 93.333 -53.333 140 -160 140v20h456l644 -1094v934c0 93.333 -53.333 140 -160 140v20h340v-20c-106.667 0 -160 -46.667 -160 -140v-968z" />
    <glyph glyph-name="Ograve" unicode="&#xd2;" horiz-adv-x="1260" 
d="M720 1440h-59.999l-239 242c-17.333 18 -37.333 32.333 -60 43c-20.667 10 -34.334 15 -41.001 15v20h260c6.66699 0 14 -5.33301 22 -16c16 -20 48.667 -101.333 98 -244zM620.001 1370c173.333 0 316.665 -67 429.998 -201s170 -297 170 -489s-56.667 -355 -170 -489
s-256.666 -201 -429.999 -201s-316.666 67 -429.999 201s-170 297 -170 489s56 355 168 489s256 201 432 201zM620 1350c-96 0 -166.667 -45.333 -212 -136c-45.333 -92 -68 -270 -68 -534s22.667 -442 68 -534c45.333 -90.667 116 -136 212 -136s166.667 45.333 212 136
c45.333 92 68 270 68 534s-22.667 442 -68 534c-45.333 90.667 -116 136 -212 136z" />
    <glyph glyph-name="Oacute" unicode="&#xd3;" horiz-adv-x="1260" 
d="M520 1440l20.001 60c49.333 142.667 82 224 98 244c8 10.667 15.333 16 22 16h260v-20c-6.66699 0 -20.334 -5 -41.001 -15c-22.667 -10.667 -42.667 -25 -60 -43l-239 -242h-60zM620.001 1370c173.333 0 316.665 -67 429.998 -201s170 -297 170 -489
s-56.667 -355 -170 -489s-256.666 -201 -429.999 -201s-316.666 67 -429.999 201s-170 297 -170 489s56 355 168 489s256 201 432 201zM620 1350c-96 0 -166.667 -45.333 -212 -136c-45.333 -92 -68 -270 -68 -534s22.667 -442 68 -534c45.333 -90.667 116 -136 212 -136
s166.667 45.333 212 136c45.333 92 68 270 68 534s-22.667 442 -68 534c-45.333 90.667 -116 136 -212 136z" />
    <glyph glyph-name="Ocircumflex" unicode="&#xd4;" horiz-adv-x="1260" 
d="M620 1680c-18.667 0 -50 -17.333 -94 -52l-236 -188h-30l200 320h320l200 -320h-30l-234 188c-44 34.667 -76 52 -96 52zM620 1370c173.333 0 316.665 -67 429.998 -201s170 -297 170 -489s-56.667 -355 -170 -489s-256.666 -201 -429.999 -201s-316.666 67 -429.999 201
s-170 297 -170 489s56 355 168 489s256 201 432 201zM619.999 1350c-96 0 -166.667 -45.333 -212 -136c-45.333 -92 -68 -270 -68 -534s22.667 -442 68 -534c45.333 -90.667 116 -136 212 -136s166.667 45.333 212 136c45.333 92 68 270 68 534s-22.667 442 -68 534
c-45.333 90.667 -116 136 -212 136z" />
    <glyph glyph-name="Otilde" unicode="&#xd5;" horiz-adv-x="1260" 
d="M607 1726l134 -100c32.667 -21.333 60 -32 82 -32c69.333 0 104 32 104 96c0 13.333 -2.66699 27.333 -8 42l18 8c14.667 -38.667 22 -74 22 -106c0 -125.333 -70.667 -188 -212 -188c-40 0 -78.667 12 -116 36l-134 100c-34 22.667 -68.667 34 -104 34
c-54.667 0 -82 -32.667 -82 -98c0 -12 2.66699 -26 8 -42l-18 -8c-14.667 40 -22 76 -22 108c0 126.667 65.333 190 196 190c52 0 96 -13.333 132 -40zM620 1370c173.333 0 316.665 -67 429.998 -201s170 -297 170 -489s-56.667 -355 -170 -489s-256.666 -201 -429.999 -201
s-316.666 67 -429.999 201s-170 297 -170 489s56 355 168 489s256 201 432 201zM619.999 1350c-96 0 -166.667 -45.333 -212 -136c-45.333 -92 -68 -270 -68 -534s22.667 -442 68 -534c45.333 -90.667 116 -136 212 -136s166.667 45.333 212 136c45.333 92 68 270 68 534
s-22.667 442 -68 534c-45.333 90.667 -116 136 -212 136z" />
    <glyph glyph-name="Odieresis" unicode="&#xd6;" horiz-adv-x="1260" 
d="M700 1600c0 44 15.667 81.667 47 113s69 47 113 47s81.667 -15.667 113 -47s47 -69 47 -113s-15.667 -81.667 -47 -113s-69 -47 -113 -47s-81.667 15.667 -113 47s-47 69 -47 113zM220 1600c0 44 15.667 81.667 47 113s69 47 113 47s81.667 -15.667 113 -47
s47 -69 47 -113s-15.667 -81.667 -47 -113s-69 -47 -113 -47s-81.667 15.667 -113 47s-47 69 -47 113zM620 1370c173.333 0 316.665 -67 429.998 -201s170 -297 170 -489s-56.667 -355 -170 -489s-256.666 -201 -429.999 -201s-316.666 67 -429.999 201s-170 297 -170 489
s56 355 168 489s256 201 432 201zM619.999 1350c-96 0 -166.667 -45.333 -212 -136c-45.333 -92 -68 -270 -68 -534s22.667 -442 68 -534c45.333 -90.667 116 -136 212 -136s166.667 45.333 212 136c45.333 92 68 270 68 534s-22.667 442 -68 534
c-45.333 90.667 -116 136 -212 136z" />
    <glyph glyph-name="multiply" unicode="&#xd7;" horiz-adv-x="846" 
d="M478 660l284 -282l-60 -54l-280 280l-278 -280l-54 60l276 276l-286 286l60 54l282 -284l290 290l54 -58z" />
    <glyph glyph-name="Oslash" unicode="&#xd8;" horiz-adv-x="1260" 
d="M620 1350c-50.667 0 -93.667 -13 -129 -39s-62.666 -58.333 -81.999 -97s-34.333 -90 -45 -154s-17.334 -123.333 -20.001 -178s-4 -122 -4 -202c0 -138.667 4.66699 -246 14 -322l528 672c-32 213.333 -119.333 320 -262 320zM88 -16l-16.001 12l136 174
c-125.333 136 -188 306 -188 510c0 192 56 355 168 489s256 201 432 201c154.667 0 287.334 -55.333 398.001 -166l134 172l16 -12l-136 -174c125.333 -136 188 -306 188 -510c0 -192 -56.667 -355 -170 -489s-256.666 -201 -429.999 -201
c-154.667 0 -287.334 55.333 -398.001 166zM885.999 1002l-528 -672c32 -213.333 119.333 -320 262 -320c50.667 0 93.667 13 129 39s62.666 58.333 81.999 97s34.333 90 45 154s17.334 123.333 20.001 178s4 122 4 202c0 138.667 -4.66699 246 -14 322z" />
    <glyph glyph-name="Ugrave" unicode="&#xd9;" horiz-adv-x="1440" 
d="M920 1440h-59.999l-239 242c-17.333 18 -37.333 32.333 -60 43c-20.667 10 -34.334 15 -41.001 15v20h260c6.66699 0 14 -5.33301 22 -16c16 -20 48.667 -101.333 98 -244zM1220 680l-0.000976562 520c0 93.333 -53.333 140 -160 140v20h340v-20
c-106.667 0 -160 -46.667 -160 -140v-520c0 -210.667 -27.333 -371 -82 -481c-69.333 -139.333 -188.666 -209 -357.999 -209c-209.333 0 -366.666 62 -471.999 186c-85.333 100.667 -128 255.334 -128 464.001v560c0 93.333 -53.333 140 -160 140v20h640v-20
c-106.667 0 -160 -46.667 -160 -140v-800c0 -260 93.333 -390 280 -390c161.333 0 274.666 66 339.999 198c53.333 107.333 80 264.666 80 471.999z" />
    <glyph glyph-name="Uacute" unicode="&#xda;" horiz-adv-x="1440" 
d="M674 1442l20.001 60c49.333 142.667 82 224 98 244c8 10.667 15.333 16 22 16h260v-20c-6.66699 0 -20.334 -5 -41.001 -15c-22.667 -10.667 -42.667 -25 -60 -43l-239 -242h-60zM1220 680l-0.000976562 520c0 93.333 -53.333 140 -160 140v20h340v-20
c-106.667 0 -160 -46.667 -160 -140v-520c0 -210.667 -27.333 -371 -82 -481c-69.333 -139.333 -188.666 -209 -357.999 -209c-209.333 0 -366.666 62 -471.999 186c-85.333 100.667 -128 255.334 -128 464.001v560c0 93.333 -53.333 140 -160 140v20h640v-20
c-106.667 0 -160 -46.667 -160 -140v-800c0 -260 93.333 -390 280 -390c161.333 0 274.666 66 339.999 198c53.333 107.333 80 264.666 80 471.999z" />
    <glyph glyph-name="Ucircumflex" unicode="&#xdb;" horiz-adv-x="1440" 
d="M780 1680c-18.667 0 -50 -17.333 -94 -52l-236 -188h-30l200 320h320l200 -320h-30l-234 188c-44 34.667 -76 52 -96 52zM1220 680l-0.000976562 520c0 93.333 -53.333 140 -160 140v20h340v-20c-106.667 0 -160 -46.667 -160 -140v-520
c0 -210.667 -27.333 -371 -82 -481c-69.333 -139.333 -188.666 -209 -357.999 -209c-209.333 0 -366.666 62 -471.999 186c-85.333 100.667 -128 255.334 -128 464.001v560c0 93.333 -53.333 140 -160 140v20h640v-20c-106.667 0 -160 -46.667 -160 -140v-800
c0 -260 93.333 -390 280 -390c161.333 0 274.666 66 339.999 198c53.333 107.333 80 264.666 80 471.999z" />
    <glyph glyph-name="Udieresis" unicode="&#xdc;" horiz-adv-x="1440" 
d="M820 1600c0 44 15.667 81.667 47 113s69 47 113 47s81.667 -15.667 113 -47s47 -69 47 -113s-15.667 -81.667 -47 -113s-69 -47 -113 -47s-81.667 15.667 -113 47s-47 69 -47 113zM340 1600c0 44 15.667 81.667 47 113s69 47 113 47s81.667 -15.667 113 -47
s47 -69 47 -113s-15.667 -81.667 -47 -113s-69 -47 -113 -47s-81.667 15.667 -113 47s-47 69 -47 113zM1220 680l-0.000976562 520c0 93.333 -53.333 140 -160 140v20h340v-20c-106.667 0 -160 -46.667 -160 -140v-520c0 -210.667 -27.333 -371 -82 -481
c-69.333 -139.333 -188.666 -209 -357.999 -209c-209.333 0 -366.666 62 -471.999 186c-85.333 100.667 -128 255.334 -128 464.001v560c0 93.333 -53.333 140 -160 140v20h640v-20c-106.667 0 -160 -46.667 -160 -140v-800c0 -260 93.333 -390 280 -390
c161.333 0 274.666 66 339.999 198c53.333 107.333 80 264.666 80 471.999z" />
    <glyph glyph-name="Yacute" unicode="&#xdd;" horiz-adv-x="1338" 
d="M589 1440l20.001 60c49.333 142.667 82 224 98 244c8 10.667 15.333 16 22 16h260v-20c-6.66699 0 -20.334 -5 -41.001 -15c-22.667 -10.667 -42.667 -25 -60 -43l-239 -242h-60zM560.001 1212l280.001 -554l272 554c12 24 18 44.667 18 62c0 44 -50.667 66 -152 66v20
h340v-20c-56 0 -97.333 -13.333 -124 -40c-18.667 -18.667 -39.334 -50.667 -62.001 -96l-270 -546l2 -498c0 -93.333 53.333 -140 160 -140v-20h-640v20c106.667 0 160 46.667 160 140l-2 380l-336 664c-44 90.667 -106 136 -186 136v20h398c50.667 0 98 -49.333 142 -148z
" />
    <glyph glyph-name="Thorn" unicode="&#xde;" horiz-adv-x="1360" 
d="M520 1180v-920h200c116 0 192 36 228 108c34.667 66.667 52 184 52 352s-17.333 285.333 -52 352c-36 72 -112 108 -228 108h-200zM40 1360l640 0.00195312v-20c-106.667 0 -160 -46.667 -160 -140h200c174.667 0 318.334 -46.333 431.001 -139
s169 -206.334 169 -341.001s-56.333 -248.334 -169 -341.001s-256.334 -139 -431.001 -139h-200v-80c0 -93.333 53.333 -140 160 -140v-20h-640v20c106.667 0 160 46.667 160 140v1040c0 93.333 -53.333 140 -160 140v20z" />
    <glyph glyph-name="germandbls" unicode="&#xdf;" horiz-adv-x="1440" 
d="M780 1520c197.333 0 295.998 -80.666 295.998 -241.999c0 -29.333 -6.66699 -56.333 -20 -81s-29.666 -46.334 -48.999 -65.001l-59 -58c-20 -20 -36.667 -46 -50 -78s-20 -68 -20 -108c0 -46 41.333 -96 124 -150l254 -170c96 -68 144 -154.667 144 -260
c-1.33301 -212 -146.666 -318 -435.999 -318c-40.667 0 -78.667 6.66699 -114 20c-21.333 8 -61.333 36.667 -120 86c-16 13.333 -30 20 -42 20c-33.333 0 -50 -38.667 -50 -116h-20l8 312h20c0 -25.333 12.333 -61 37 -107s62.667 -90 114 -132s107 -63 167 -63
c116 0 174 54 174 162c0 73.333 -30 126.666 -90 159.999l-236 158c-82.667 55.333 -132 108 -148 158c-8 25.333 -12 54 -12 86c0 62.667 14 117.334 42 164.001s61.667 84 101 112s78.666 54.333 117.999 79s73 52.667 101 84s42 66.333 42 105c0 148 -92 222 -276 222
c-103.333 0 -175.333 -45.333 -216 -136c-40 -89.333 -61.333 -204 -64 -344v-1020h-480v20c106.667 0 160 46.667 160 140v840h-140v20h140c6.66699 146.667 57.334 266.667 152.001 360s244 140 448 140z" />
    <glyph glyph-name="agrave" unicode="&#xe0;" horiz-adv-x="1358" 
d="M780 1200h-59.999l-239 242c-17.333 18 -37.333 32.333 -60 43c-20.667 10 -34.334 15 -41.001 15v20h260c6.66699 0 14 -5.33301 22 -16c16 -20 48.667 -101.333 98 -244zM1320 0l-400 -0.000976562c-13.333 0 -28 10.667 -44 32s-25.333 32 -28 32
c-68 -49.333 -150.667 -74 -248 -74c-169.333 0 -305 38 -407 114s-153 161.333 -153 256s50.667 178.334 152 251.001s237.333 109 408 109c82.667 0 162.667 -16.667 240 -50v50c0 206.667 -86.667 310 -260 310c-110.667 0 -216.667 -28.667 -318 -86l-12 18
c106.667 58.667 216.667 88 330 88c386.667 0 580 -176.667 580 -530v-360c0 -93.333 53.333 -140 160 -140v-20zM840.001 647.999c-76 34.667 -155.999 52 -239.999 52c-98.667 0 -168 -37.333 -208 -112c-21.333 -36 -32 -112 -32 -228
c0 -141.333 17.333 -233.333 52 -276c41.333 -49.333 104 -74 188 -74c101.333 0 182.666 25.333 243.999 76c-2.66699 82.667 -4 162 -4 238v324z" />
    <glyph glyph-name="aacute" unicode="&#xe1;" horiz-adv-x="1358" 
d="M500 1200l20.001 60c49.333 142.667 82 224 98 244c8 10.667 15.333 16 22 16h260v-20c-6.66699 0 -20.334 -5 -41.001 -15c-22.667 -10.667 -42.667 -25 -60 -43l-239 -242h-60zM1320 0l-400 -0.000976562c-13.333 0 -28 10.667 -44 32s-25.333 32 -28 32
c-68 -49.333 -150.667 -74 -248 -74c-169.333 0 -305 38 -407 114s-153 161.333 -153 256s50.667 178.334 152 251.001s237.333 109 408 109c82.667 0 162.667 -16.667 240 -50v50c0 206.667 -86.667 310 -260 310c-110.667 0 -216.667 -28.667 -318 -86l-12 18
c106.667 58.667 216.667 88 330 88c386.667 0 580 -176.667 580 -530v-360c0 -93.333 53.333 -140 160 -140v-20zM840.001 647.999c-76 34.667 -155.999 52 -239.999 52c-98.667 0 -168 -37.333 -208 -112c-21.333 -36 -32 -112 -32 -228
c0 -141.333 17.333 -233.333 52 -276c41.333 -49.333 104 -74 188 -74c101.333 0 182.666 25.333 243.999 76c-2.66699 82.667 -4 162 -4 238v324z" />
    <glyph glyph-name="acircumflex" unicode="&#xe2;" horiz-adv-x="1358" 
d="M680 1440c-18.667 0 -50 -17.333 -94 -52l-236 -188h-30l200 320h320l200 -320h-30l-234 188c-44 34.667 -76 52 -96 52zM1320 0l-400 -0.000976562c-13.333 0 -28 10.667 -44 32s-25.333 32 -28 32c-68 -49.333 -150.667 -74 -248 -74c-169.333 0 -305 38 -407 114
s-153 161.333 -153 256s50.667 178.334 152 251.001s237.333 109 408 109c82.667 0 162.667 -16.667 240 -50v50c0 206.667 -86.667 310 -260 310c-110.667 0 -216.667 -28.667 -318 -86l-12 18c106.667 58.667 216.667 88 330 88c386.667 0 580 -176.667 580 -530v-360
c0 -93.333 53.333 -140 160 -140v-20zM840 647.999c-76 34.667 -155.999 52 -239.999 52c-98.667 0 -168 -37.333 -208 -112c-21.333 -36 -32 -112 -32 -228c0 -141.333 17.333 -233.333 52 -276c41.333 -49.333 104 -74 188 -74c101.333 0 182.666 25.333 243.999 76
c-2.66699 82.667 -4 162 -4 238v324z" />
    <glyph glyph-name="atilde" unicode="&#xe3;" horiz-adv-x="1358" 
d="M667 1480l134 -100c32.667 -21.333 60 -32 82 -32c69.333 0 104 32 104 96c0 13.333 -2.66699 27.333 -8 42l18 8c14.667 -38.667 22 -74 22 -106c0 -125.333 -70.667 -188 -212 -188c-40 0 -78.667 12 -116 36l-134 100c-34 22.667 -68.667 34 -104 34
c-54.667 0 -82 -32.667 -82 -98c0 -12 2.66699 -26 8 -42l-18 -8c-14.667 40 -22 76 -22 108c0 126.667 65.333 190 196 190c52 0 96 -13.333 132 -40zM1320 0l-400 -0.000976562c-13.333 0 -28 10.667 -44 32s-25.333 32 -28 32c-68 -49.333 -150.667 -74 -248 -74
c-169.333 0 -305 38 -407 114s-153 161.333 -153 256s50.667 178.334 152 251.001s237.333 109 408 109c82.667 0 162.667 -16.667 240 -50v50c0 206.667 -86.667 310 -260 310c-110.667 0 -216.667 -28.667 -318 -86l-12 18c106.667 58.667 216.667 88 330 88
c386.667 0 580 -176.667 580 -530v-360c0 -93.333 53.333 -140 160 -140v-20zM840 647.999c-76 34.667 -155.999 52 -239.999 52c-98.667 0 -168 -37.333 -208 -112c-21.333 -36 -32 -112 -32 -228c0 -141.333 17.333 -233.333 52 -276c41.333 -49.333 104 -74 188 -74
c101.333 0 182.666 25.333 243.999 76c-2.66699 82.667 -4 162 -4 238v324z" />
    <glyph glyph-name="adieresis" unicode="&#xe4;" horiz-adv-x="1358" 
d="M740 1360c0 44 15.667 81.667 47 113s69 47 113 47s81.667 -15.667 113 -47s47 -69 47 -113s-15.667 -81.667 -47 -113s-69 -47 -113 -47s-81.667 15.667 -113 47s-47 69 -47 113zM260 1360c0 44 15.667 81.667 47 113s69 47 113 47s81.667 -15.667 113 -47
s47 -69 47 -113s-15.667 -81.667 -47 -113s-69 -47 -113 -47s-81.667 15.667 -113 47s-47 69 -47 113zM1320 0l-400 -0.000976562c-13.333 0 -28 10.667 -44 32s-25.333 32 -28 32c-68 -49.333 -150.667 -74 -248 -74c-169.333 0 -305 38 -407 114s-153 161.333 -153 256
s50.667 178.334 152 251.001s237.333 109 408 109c82.667 0 162.667 -16.667 240 -50v50c0 206.667 -86.667 310 -260 310c-110.667 0 -216.667 -28.667 -318 -86l-12 18c106.667 58.667 216.667 88 330 88c386.667 0 580 -176.667 580 -530v-360
c0 -93.333 53.333 -140 160 -140v-20zM840 647.999c-76 34.667 -155.999 52 -239.999 52c-98.667 0 -168 -37.333 -208 -112c-21.333 -36 -32 -112 -32 -228c0 -141.333 17.333 -233.333 52 -276c41.333 -49.333 104 -74 188 -74c101.333 0 182.666 25.333 243.999 76
c-2.66699 82.667 -4 162 -4 238v324z" />
    <glyph glyph-name="aring" unicode="&#xe5;" horiz-adv-x="1358" 
d="M640 1580c49.333 0 95 -20.333 137 -61s63 -87 63 -139s-21 -98.333 -63 -139s-87.667 -61 -137 -61s-95 20.667 -137 62s-63 87.333 -63 138c0 52 21 98.333 63 139s87.667 61 137 61zM640 1560c-66.667 0 -100 -60 -100 -180s33.333 -180 100 -180s100 60 100 180
s-33.333 180 -100 180zM1320 0l-400 -0.000976562c-13.333 0 -28 10.667 -44 32s-25.333 32 -28 32c-68 -49.333 -150.667 -74 -248 -74c-169.333 0 -305 38 -407 114s-153 161.333 -153 256s50.667 178.334 152 251.001s237.333 109 408 109
c82.667 0 162.667 -16.667 240 -50v50c0 206.667 -86.667 310 -260 310c-110.667 0 -216.667 -28.667 -318 -86l-12 18c106.667 58.667 216.667 88 330 88c386.667 0 580 -176.667 580 -530v-360c0 -93.333 53.333 -140 160 -140v-20zM840 647.999
c-76 34.667 -155.999 52 -239.999 52c-98.667 0 -168 -37.333 -208 -112c-21.333 -36 -32 -112 -32 -228c0 -141.333 17.333 -233.333 52 -276c41.333 -49.333 104 -74 188 -74c101.333 0 182.666 25.333 243.999 76c-2.66699 82.667 -4 162 -4 238v324z" />
    <glyph glyph-name="ae" unicode="&#xe6;" horiz-adv-x="2000" 
d="M360 360c0 -141.333 17.333 -233.333 52 -276c41.333 -49.333 104 -74 188 -74c96 0 159 24.333 189 73s47 129 51 241v324c-76 34.667 -156 52 -240 52c-96 0 -166 -37.333 -210 -112c-20 -33.333 -30 -109.333 -30 -228zM1160 574
c61.333 -22.667 125.333 -34.001 192 -34.001h288v148c-4 134.667 -28 229.334 -72 284.001c-30.667 38.667 -86.667 58 -168 58c-97.333 0 -161 -30.667 -191 -92s-46.333 -170 -49 -326v-38zM1160 551.999l-0.000976562 -196.002c1.33301 -124 17.333 -212.667 48 -266
s94.667 -80 192 -80c100 0 194 24.667 282 74s158 114 210 194l16 -10c-53.333 -84 -125.333 -151.333 -216 -202s-188 -76 -292 -76c-96 0 -174 13.333 -234 40s-114.667 69.334 -164 128.001c-90.667 -72 -160.667 -118 -210 -138s-113.333 -30 -192 -30
c-169.333 0 -305 38 -407 114s-153 161.333 -153 256s50.667 178.334 152 251.001s237.333 109 408 109c82.667 0 162.667 -16.667 240 -50v50c-2.66699 106.667 -22.667 185 -60 235s-104 75 -200 75c-110.667 0 -216.667 -28.667 -318 -86l-12 18
c106.667 58.667 216.667 88 330 88c182.667 0 323.334 -42 422.001 -126c96 84 228.667 126 398 126c178.667 0 316.667 -46.333 414 -139s146 -223 146 -391h-608c-64 0 -128 10.667 -192 32z" />
    <glyph glyph-name="ccedilla" unicode="&#xe7;" horiz-adv-x="1124" 
d="M512 -6c-138.667 12.667 -247.997 57.333 -327.997 134c-96 92 -144 222.667 -144 392c0 168 48.667 298.667 146 392c97.333 92 235.333 138 414 138c58.667 0 125 -12.333 199 -37s139.333 -59.667 196 -105s85 -92 85 -140c0 -46.667 -16 -85.667 -48 -117
s-70 -47 -114 -47c-45.333 0 -83 16.667 -113 50s-45 70 -45 110c0 24 7.33301 50.333 22 79s22 55.667 22 81c0 24 -22.333 47.667 -67 71s-90.334 35 -137.001 35c-114.667 0 -184.667 -44 -210 -132c-20 -70.667 -30 -196.667 -30 -378c0 -211.333 10 -339.333 30 -384
c38 -84 107.333 -126 208 -126c98.667 0 188.667 24 270 72s148.666 113.333 201.999 196l16 -10c-54.667 -85.333 -124 -153 -208 -203s-177.333 -75 -280 -75c-21.333 0 -42 0.666992 -62 2l-17 -73c20.667 9.33301 46 14 76 14c71.333 0 134.333 -26 189 -78
c36.667 -35.333 55 -74.666 55 -117.999c0 -58.667 -29.333 -106.334 -88 -143.001c-44 -27.333 -94.333 -41 -151 -41c-76 0 -142.667 32 -200 96l3 22c59.333 -64.667 119.666 -97 180.999 -97c88.667 0 133 69.333 133 208c0 86 -40.333 129 -121 129
c-46 0 -82.667 -11.333 -110 -34z" />
    <glyph glyph-name="egrave" unicode="&#xe8;" 
d="M720 1200h-59.999l-239 242c-17.333 18 -37.333 32.333 -60 43c-20.667 10 -34.334 15 -41.001 15v20h260c6.66699 0 14 -5.33301 22 -16c16 -20 48.667 -101.333 98 -244zM360.001 540l479.999 -0.000976562c0 202.667 -10 325.334 -30 368.001
c-37.333 81.333 -107.333 122 -210 122c-101.333 0 -166.666 -34 -195.999 -102c-29.333 -70.667 -44 -200 -44 -388zM600 -10.001c-180 0 -318.667 46 -416 138c-96 92 -144 222.667 -144 392c0 168 48.667 298.667 146 392c97.333 92 235.333 138 414 138
s316.667 -46 414 -138c97.333 -93.333 146 -224 146 -392h-800c0 -236 13.333 -372.667 40 -410c49.333 -66.667 116 -100 200 -100c100 0 194 24.667 282 74s158 114 210 194l16 -10c-53.333 -84 -125.333 -151.333 -216 -202s-188 -76 -292 -76z" />
    <glyph glyph-name="eacute" unicode="&#xe9;" 
d="M500 1200l20.001 60c49.333 142.667 82 224 98 244c8 10.667 15.333 16 22 16h260v-20c-6.66699 0 -20.334 -5 -41.001 -15c-22.667 -10.667 -42.667 -25 -60 -43l-239 -242h-60zM360.001 540l479.999 -0.000976562c0 202.667 -10 325.334 -30 368.001
c-37.333 81.333 -107.333 122 -210 122c-101.333 0 -166.666 -34 -195.999 -102c-29.333 -70.667 -44 -200 -44 -388zM600 -10.001c-180 0 -318.667 46 -416 138c-96 92 -144 222.667 -144 392c0 168 48.667 298.667 146 392c97.333 92 235.333 138 414 138
s316.667 -46 414 -138c97.333 -93.333 146 -224 146 -392h-800c0 -236 13.333 -372.667 40 -410c49.333 -66.667 116 -100 200 -100c100 0 194 24.667 282 74s158 114 210 194l16 -10c-53.333 -84 -125.333 -151.333 -216 -202s-188 -76 -292 -76z" />
    <glyph glyph-name="ecircumflex" unicode="&#xea;" 
d="M620 1440c-18.667 0 -50 -17.333 -94 -52l-236 -188h-30l200 320h320l200 -320h-30l-234 188c-44 34.667 -76 52 -96 52zM360 540l479.999 -0.000976562c0 202.667 -10 325.334 -30 368.001c-37.333 81.333 -107.333 122 -210 122c-101.333 0 -166.666 -34 -195.999 -102
c-29.333 -70.667 -44 -200 -44 -388zM599.999 -10.001c-180 0 -318.667 46 -416 138c-96 92 -144 222.667 -144 392c0 168 48.667 298.667 146 392c97.333 92 235.333 138 414 138s316.667 -46 414 -138c97.333 -93.333 146 -224 146 -392h-800
c0 -236 13.333 -372.667 40 -410c49.333 -66.667 116 -100 200 -100c100 0 194 24.667 282 74s158 114 210 194l16 -10c-53.333 -84 -125.333 -151.333 -216 -202s-188 -76 -292 -76z" />
    <glyph glyph-name="edieresis" unicode="&#xeb;" 
d="M680 1360c0 44 15.667 81.667 47 113s69 47 113 47s81.667 -15.667 113 -47s47 -69 47 -113s-15.667 -81.667 -47 -113s-69 -47 -113 -47s-81.667 15.667 -113 47s-47 69 -47 113zM200 1360c0 44 15.667 81.667 47 113s69 47 113 47s81.667 -15.667 113 -47
s47 -69 47 -113s-15.667 -81.667 -47 -113s-69 -47 -113 -47s-81.667 15.667 -113 47s-47 69 -47 113zM360 540l479.999 -0.000976562c0 202.667 -10 325.334 -30 368.001c-37.333 81.333 -107.333 122 -210 122c-101.333 0 -166.666 -34 -195.999 -102
c-29.333 -70.667 -44 -200 -44 -388zM599.999 -10.001c-180 0 -318.667 46 -416 138c-96 92 -144 222.667 -144 392c0 168 48.667 298.667 146 392c97.333 92 235.333 138 414 138s316.667 -46 414 -138c97.333 -93.333 146 -224 146 -392h-800
c0 -236 13.333 -372.667 40 -410c49.333 -66.667 116 -100 200 -100c100 0 194 24.667 282 74s158 114 210 194l16 -10c-53.333 -84 -125.333 -151.333 -216 -202s-188 -76 -292 -76z" />
    <glyph glyph-name="igrave" unicode="&#xec;" horiz-adv-x="720" 
d="M480 1200h-59.999l-239 242c-17.333 18 -37.333 32.333 -60 43c-20.667 10 -34.334 15 -41.001 15v20h260c6.66699 0 14 -5.33301 22 -16c16 -20 48.667 -101.333 98 -244zM40.001 1040l400 0.000976562c14.667 0 25.334 -1 32.001 -3s14.667 -7.66699 24 -17
s15.666 -25.333 18.999 -48s5 -53.334 5 -92.001v-720c0 -33.333 4 -60.333 12 -81s21.333 -34.667 40 -42s34.667 -12 48 -14s33.333 -3 60 -3v-20h-640v20c26.667 0 46.667 1 60 3s29.333 6.66699 48 14s32 21.333 40 42s12 47.667 12 81v720c0 33.333 -4 60.333 -12 81
s-21.333 34.667 -40 42s-34.667 12 -48 14s-33.333 3 -60 3v20z" />
    <glyph glyph-name="iacute" unicode="&#xed;" horiz-adv-x="720" 
d="M220 1200l20.001 60c49.333 142.667 82 224 98 244c8 10.667 15.333 16 22 16h260v-20c-6.66699 0 -20.334 -5 -41.001 -15c-22.667 -10.667 -42.667 -25 -60 -43l-239 -242h-60zM40.001 1040l400 0.000976562c14.667 0 25.334 -1 32.001 -3s14.667 -7.66699 24 -17
s15.666 -25.333 18.999 -48s5 -53.334 5 -92.001v-720c0 -33.333 4 -60.333 12 -81s21.333 -34.667 40 -42s34.667 -12 48 -14s33.333 -3 60 -3v-20h-640v20c26.667 0 46.667 1 60 3s29.333 6.66699 48 14s32 21.333 40 42s12 47.667 12 81v720c0 33.333 -4 60.333 -12 81
s-21.333 34.667 -40 42s-34.667 12 -48 14s-33.333 3 -60 3v20z" />
    <glyph glyph-name="icircumflex" unicode="&#xee;" horiz-adv-x="720" 
d="M360 1440c-18.667 0 -50 -17.333 -94 -52l-236 -188h-30l200 320h320l200 -320h-30l-234 188c-44 34.667 -76 52 -96 52zM40 1040l400 0.000976562c14.667 0 25.334 -1 32.001 -3s14.667 -7.66699 24 -17s15.666 -25.333 18.999 -48s5 -53.334 5 -92.001v-720
c0 -33.333 4 -60.333 12 -81s21.333 -34.667 40 -42s34.667 -12 48 -14s33.333 -3 60 -3v-20h-640v20c26.667 0 46.667 1 60 3s29.333 6.66699 48 14s32 21.333 40 42s12 47.667 12 81v720c0 33.333 -4 60.333 -12 81s-21.333 34.667 -40 42s-34.667 12 -48 14
s-33.333 3 -60 3v20z" />
    <glyph glyph-name="idieresis" unicode="&#xef;" horiz-adv-x="720" 
d="M40 1040l400 0.000976562c14.667 0 25.334 -1 32.001 -3s14.667 -7.66699 24 -17s15.666 -25.333 18.999 -48s5 -53.334 5 -92.001v-720c0 -33.333 4 -60.333 12 -81s21.333 -34.667 40 -42s34.667 -12 48 -14s33.333 -3 60 -3v-20h-640v20c26.667 0 46.667 1 60 3
s29.333 6.66699 48 14s32 21.333 40 42s12 47.667 12 81v720c0 33.333 -4 60.333 -12 81s-21.333 34.667 -40 42s-34.667 12 -48 14s-33.333 3 -60 3v20zM400 1360c0 44 15.667 81.667 47 113s69 47 113 47s81.667 -15.667 113 -47s47 -69 47 -113s-15.667 -81.667 -47 -113
s-69 -47 -113 -47s-81.667 15.667 -113 47s-47 69 -47 113zM0 1360c0 44 15.667 81.667 47 113s69 47 113 47s81.667 -15.667 113 -47s47 -69 47 -113s-15.667 -81.667 -47 -113s-69 -47 -113 -47s-81.667 15.667 -113 47s-47 69 -47 113z" />
    <glyph glyph-name="eth" unicode="&#xf0;" horiz-adv-x="1120" 
d="M560 1030c-94.667 0 -153.334 -54 -176.001 -162c-16 -81.333 -24 -197.333 -24 -348c0 -185.333 8 -302.666 24 -351.999c37.333 -105.333 96 -158 176 -158c94.667 0 153.334 54 176.001 162c16 81.333 24 197.333 24 348c0 185.333 -8 302.666 -24 351.999
c-37.333 105.333 -96 158 -176 158zM514 1196l58.001 147.998c-60 21.333 -140 39.333 -240 54l2 18c102.667 -14.667 184 -32 244 -52l42 108l20 -6l-42 -110c156 -53.333 277.333 -158.666 364 -315.999c38.667 -69.333 68 -142 88 -218s30 -150 30 -222v-80
c0 -141.333 -52.667 -265 -158 -371s-226 -159 -362 -159s-256.667 53 -362 159s-158 229.667 -158 371s52.667 265 158 371s226 159 362 159c69.333 0 136.666 -18 201.999 -54c0 82.667 -7.33301 149.334 -22 200.001c-18.667 68 -68.667 115.333 -150 142l-56 -150z" />
    <glyph glyph-name="ntilde" unicode="&#xf1;" horiz-adv-x="1440" 
d="M707 1486l134 -100c32.667 -21.333 60 -32 82 -32c69.333 0 104 32 104 96c0 13.333 -2.66699 27.333 -8 42l18 8c14.667 -38.667 22 -74 22 -106c0 -125.333 -70.667 -188 -212 -188c-40 0 -78.667 12 -116 36l-134 100c-34 22.667 -68.667 34 -104 34
c-54.667 0 -82 -32.667 -82 -98c0 -12 2.66699 -26 8 -42l-18 -8c-14.667 40 -22 76 -22 108c0 126.667 65.333 190 196 190c52 0 96 -13.333 132 -40zM520 880l-0.000976562 -720c0 -93.333 53.333 -140 160 -140v-20h-640v20c106.667 0 160 46.667 160 140v720
c0 93.333 -53.333 140 -160 140v20h400c12 0 26.333 -10.333 43 -31s26.334 -31 29.001 -31c72 48 141.333 72 208 72c346.667 0 520 -123.333 520 -370v-520c0 -93.333 53.333 -140 160 -140v-20h-640v20c106.667 0 160 46.667 160 140v500c0 246.667 -66.667 370 -200 370
c-69.333 0 -137.333 -24.667 -204 -74c2.66699 -24 4 -49.333 4 -76z" />
    <glyph glyph-name="ograve" unicode="&#xf2;" 
d="M740 1200h-59.999l-239 242c-17.333 18 -37.333 32.333 -60 43c-20.667 10 -34.334 15 -41.001 15v20h260c6.66699 0 14 -5.33301 22 -16c16 -20 48.667 -101.333 98 -244zM600.001 10c101.333 0 166.666 35.333 195.999 106c29.333 72 44 206.667 44 404
s-14.667 332 -44 404c-29.333 70.667 -94.666 106 -195.999 106c-114.667 0 -184.667 -44 -210 -132c-20 -70.667 -30 -196.667 -30 -378s10 -307.333 30 -378c25.333 -88 95.333 -132 210 -132zM600.001 -10c-180 0 -318.667 46 -416 138c-96 92 -144 222.667 -144 392
c0 168 48.667 298.667 146 392c97.333 92 235.333 138 414 138s316.667 -46 414 -138c97.333 -93.333 146 -224 146 -392c0 -169.333 -48 -300 -144 -392c-97.333 -92 -236 -138 -416 -138z" />
    <glyph glyph-name="oacute" unicode="&#xf3;" 
d="M476 1200l20.001 60c49.333 142.667 82 224 98 244c8 10.667 15.333 16 22 16h260v-20c-6.66699 0 -20.334 -5 -41.001 -15c-22.667 -10.667 -42.667 -25 -60 -43l-239 -242h-60zM600.001 10c101.333 0 166.666 35.333 195.999 106c29.333 72 44 206.667 44 404
s-14.667 332 -44 404c-29.333 70.667 -94.666 106 -195.999 106c-114.667 0 -184.667 -44 -210 -132c-20 -70.667 -30 -196.667 -30 -378s10 -307.333 30 -378c25.333 -88 95.333 -132 210 -132zM600.001 -10c-180 0 -318.667 46 -416 138c-96 92 -144 222.667 -144 392
c0 168 48.667 298.667 146 392c97.333 92 235.333 138 414 138s316.667 -46 414 -138c97.333 -93.333 146 -224 146 -392c0 -169.333 -48 -300 -144 -392c-97.333 -92 -236 -138 -416 -138z" />
    <glyph glyph-name="ocircumflex" unicode="&#xf4;" 
d="M600 1440c-18.667 0 -50 -17.333 -94 -52l-236 -188h-30l200 320h320l200 -320h-30l-234 188c-44 34.667 -76 52 -96 52zM600 10c101.333 0 166.666 35.333 195.999 106c29.333 72 44 206.667 44 404s-14.667 332 -44 404c-29.333 70.667 -94.666 106 -195.999 106
c-114.667 0 -184.667 -44 -210 -132c-20 -70.667 -30 -196.667 -30 -378s10 -307.333 30 -378c25.333 -88 95.333 -132 210 -132zM600 -10c-180 0 -318.667 46 -416 138c-96 92 -144 222.667 -144 392c0 168 48.667 298.667 146 392c97.333 92 235.333 138 414 138
s316.667 -46 414 -138c97.333 -93.333 146 -224 146 -392c0 -169.333 -48 -300 -144 -392c-97.333 -92 -236 -138 -416 -138z" />
    <glyph glyph-name="otilde" unicode="&#xf5;" 
d="M586 1480l134 -100c32.667 -21.333 60 -32 82 -32c69.333 0 104 32 104 96c0 13.333 -2.66699 27.333 -8 42l18 8c14.667 -38.667 22 -74 22 -106c0 -125.333 -70.667 -188 -212 -188c-40 0 -78.667 12 -116 36l-134 100c-34 22.667 -68.667 34 -104 34
c-54.667 0 -82 -32.667 -82 -98c0 -12 2.66699 -26 8 -42l-18 -8c-14.667 40 -22 76 -22 108c0 126.667 65.333 190 196 190c52 0 96 -13.333 132 -40zM600 10c101.333 0 166.666 35.333 195.999 106c29.333 72 44 206.667 44 404s-14.667 332 -44 404
c-29.333 70.667 -94.666 106 -195.999 106c-114.667 0 -184.667 -44 -210 -132c-20 -70.667 -30 -196.667 -30 -378s10 -307.333 30 -378c25.333 -88 95.333 -132 210 -132zM600 -10c-180 0 -318.667 46 -416 138c-96 92 -144 222.667 -144 392
c0 168 48.667 298.667 146 392c97.333 92 235.333 138 414 138s316.667 -46 414 -138c97.333 -93.333 146 -224 146 -392c0 -169.333 -48 -300 -144 -392c-97.333 -92 -236 -138 -416 -138z" />
    <glyph glyph-name="odieresis" unicode="&#xf6;" 
d="M680 1360c0 44 15.667 81.667 47 113s69 47 113 47s81.667 -15.667 113 -47s47 -69 47 -113s-15.667 -81.667 -47 -113s-69 -47 -113 -47s-81.667 15.667 -113 47s-47 69 -47 113zM200 1360c0 44 15.667 81.667 47 113s69 47 113 47s81.667 -15.667 113 -47
s47 -69 47 -113s-15.667 -81.667 -47 -113s-69 -47 -113 -47s-81.667 15.667 -113 47s-47 69 -47 113zM600 10c101.333 0 166.666 35.333 195.999 106c29.333 72 44 206.667 44 404s-14.667 332 -44 404c-29.333 70.667 -94.666 106 -195.999 106
c-114.667 0 -184.667 -44 -210 -132c-20 -70.667 -30 -196.667 -30 -378s10 -307.333 30 -378c25.333 -88 95.333 -132 210 -132zM600 -10c-180 0 -318.667 46 -416 138c-96 92 -144 222.667 -144 392c0 168 48.667 298.667 146 392c97.333 92 235.333 138 414 138
s316.667 -46 414 -138c97.333 -93.333 146 -224 146 -392c0 -169.333 -48 -300 -144 -392c-97.333 -92 -236 -138 -416 -138z" />
    <glyph glyph-name="divide" unicode="&#xf7;" horiz-adv-x="1050" 
d="M340 1040c0 44 15.667 81.667 47 113s69 47 113 47s81.667 -15.667 113 -47s47 -69 47 -113s-15.667 -81.667 -47 -113s-69 -47 -113 -47s-81.667 15.667 -113 47s-47 69 -47 113zM340 240c0 44 15.667 81.667 47 113s69 47 113 47s81.667 -15.667 113 -47
s47 -69 47 -113s-15.667 -81.667 -47 -113s-69 -47 -113 -47s-81.667 15.667 -113 47s-47 69 -47 113zM960 600h-880l10 100h880z" />
    <glyph glyph-name="oslash" unicode="&#xf8;" 
d="M600 1030c-122.667 0 -198.667 -67.333 -228 -202c-8 -37.333 -12 -140 -12 -308l4 -226l470 478c-16 172 -94 258 -234 258zM88 -18l-16 16l122 122c-102.667 90.667 -154 224 -154 400c0 168 48.667 298.333 146 391s235.333 139 414 139
c162.667 0 292.667 -39.333 390 -118l122 126l16 -16l-122 -122c102.667 -94.667 154 -228 154 -400c0 -169.333 -48.333 -300 -145 -392s-235 -138 -415 -138c-165.333 0 -296 38.667 -392 116zM836 746l-469.999 -477.999c8 -90.667 28.667 -156.334 62 -197.001
s90.666 -61 171.999 -61c128 0 201.333 52.667 220 158c13.333 82.667 20 200 20 352z" />
    <glyph glyph-name="ugrave" unicode="&#xf9;" horiz-adv-x="1380" 
d="M780 1200h-59.999l-239 242c-17.333 18 -37.333 32.333 -60 43c-20.667 10 -34.334 15 -41.001 15v20h260c6.66699 0 14 -5.33301 22 -16c16 -20 48.667 -101.333 98 -244zM1180 880l0.000976562 -720c0 -93.333 53.333 -140 160 -140v-20h-400
c-12 -0 -26.333 10.333 -43 31s-26.334 31 -29.001 31c-72 -48 -141.333 -72 -208 -72c-346.667 0 -520 123.333 -520 370v520c0 93.333 -53.333 140 -160 140v20h400c53.333 0 80 -53.333 80 -160v-660c0 -140 66.667 -210 200 -210c69.333 0 137.333 24.667 204 74
c-2.66699 24 -4 49.333 -4 76v720c0 93.333 -53.333 140 -160 140v20h400c53.333 0 80 -53.333 80 -160z" />
    <glyph glyph-name="uacute" unicode="&#xfa;" horiz-adv-x="1380" 
d="M540 1200l20.001 60c49.333 142.667 82 224 98 244c8 10.667 15.333 16 22 16h260v-20c-6.66699 0 -20.334 -5 -41.001 -15c-22.667 -10.667 -42.667 -25 -60 -43l-239 -242h-60zM1180 880l0.000976562 -720c0 -93.333 53.333 -140 160 -140v-20h-400
c-12 -0 -26.333 10.333 -43 31s-26.334 31 -29.001 31c-72 -48 -141.333 -72 -208 -72c-346.667 0 -520 123.333 -520 370v520c0 93.333 -53.333 140 -160 140v20h400c53.333 0 80 -53.333 80 -160v-660c0 -140 66.667 -210 200 -210c69.333 0 137.333 24.667 204 74
c-2.66699 24 -4 49.333 -4 76v720c0 93.333 -53.333 140 -160 140v20h400c53.333 0 80 -53.333 80 -160z" />
    <glyph glyph-name="ucircumflex" unicode="&#xfb;" horiz-adv-x="1380" 
d="M660 1440c-18.667 0 -50 -17.333 -94 -52l-236 -188h-30l200 320h320l200 -320h-30l-234 188c-44 34.667 -76 52 -96 52zM1180 880l0.000976562 -720c0 -93.333 53.333 -140 160 -140v-20h-400c-12 -0 -26.333 10.333 -43 31s-26.334 31 -29.001 31
c-72 -48 -141.333 -72 -208 -72c-346.667 0 -520 123.333 -520 370v520c0 93.333 -53.333 140 -160 140v20h400c53.333 0 80 -53.333 80 -160v-660c0 -140 66.667 -210 200 -210c69.333 0 137.333 24.667 204 74c-2.66699 24 -4 49.333 -4 76v720
c0 93.333 -53.333 140 -160 140v20h400c53.333 0 80 -53.333 80 -160z" />
    <glyph glyph-name="udieresis" unicode="&#xfc;" horiz-adv-x="1380" 
d="M720 1360c0 44 15.667 81.667 47 113s69 47 113 47s81.667 -15.667 113 -47s47 -69 47 -113s-15.667 -81.667 -47 -113s-69 -47 -113 -47s-81.667 15.667 -113 47s-47 69 -47 113zM240 1360c0 44 15.667 81.667 47 113s69 47 113 47s81.667 -15.667 113 -47
s47 -69 47 -113s-15.667 -81.667 -47 -113s-69 -47 -113 -47s-81.667 15.667 -113 47s-47 69 -47 113zM1180 880l0.000976562 -720c0 -93.333 53.333 -140 160 -140v-20h-400c-12 -0 -26.333 10.333 -43 31s-26.334 31 -29.001 31c-72 -48 -141.333 -72 -208 -72
c-346.667 0 -520 123.333 -520 370v520c0 93.333 -53.333 140 -160 140v20h400c53.333 0 80 -53.333 80 -160v-660c0 -140 66.667 -210 200 -210c69.333 0 137.333 24.667 204 74c-2.66699 24 -4 49.333 -4 76v720c0 93.333 -53.333 140 -160 140v20h400
c53.333 0 80 -53.333 80 -160z" />
    <glyph glyph-name="yacute" unicode="&#xfd;" horiz-adv-x="1140" 
d="M460 1200l20.001 60c49.333 142.667 82 224 98 244c8 10.667 15.333 16 22 16h260v-20c-6.66699 0 -20.334 -5 -41.001 -15c-22.667 -10.667 -42.667 -25 -60 -43l-239 -242h-60zM482.001 892l231.998 -570l230 570c9.33301 23.333 14 44.666 14 63.999
c0 42.667 -39.333 64 -118 64v20h260v-20c-57.333 -1.33301 -102.666 -46.666 -135.999 -135.999l-238 -592l-112 -282l-114 -282c-46.667 -98.667 -104 -148 -172 -148c-44 0 -81.667 15.667 -113 47s-47 69 -47 113s15.333 81.667 46 113s68 47 112 47
c40.667 0 77.334 -14 110.001 -42c28 -24 49.333 -36 64 -36c10.667 0 18 5.33301 22 16l64 162h-40c-28.667 -0 -46.667 7.33301 -54 22c-1.33301 2.66699 -17.333 44.667 -48 126l-296 736c-26 64.667 -50 104 -72 118c-18.667 12 -50.667 18 -96 18v20h380
c45.333 0 86 -49.333 122 -148z" />
    <glyph glyph-name="thorn" unicode="&#xfe;" horiz-adv-x="1220" 
d="M460 983c69.333 44.667 136.001 66.999 200.001 66.999c157.333 0 283.333 -47 378 -141s142 -223.667 142 -389s-47 -294.666 -141 -387.999s-220.333 -140 -379 -140c-66.667 0 -133.334 22 -200.001 66v-298c0 -93.333 53.333 -140 160 -140v-20h-640v20
c106.667 0 160 46.667 160 140v1600c0 93.333 -53.333 140 -160 140v20h400c53.333 0 80 -53.333 80 -160v-377zM460.001 958.999l-0.000976562 -875c65.333 -48 132 -72 200 -72c86.667 0 145.334 38 176.001 114c16 42.667 24 174 24 394c0 226.667 -8 358.667 -24 396
c-32 76 -90.667 114 -176 114c-68 0 -134.667 -23.667 -200 -71z" />
    <glyph glyph-name="ydieresis" unicode="&#xff;" horiz-adv-x="1140" 
d="M660 1360c0 44 15.667 81.667 47 113s69 47 113 47s81.667 -15.667 113 -47s47 -69 47 -113s-15.667 -81.667 -47 -113s-69 -47 -113 -47s-81.667 15.667 -113 47s-47 69 -47 113zM180 1360c0 44 15.667 81.667 47 113s69 47 113 47s81.667 -15.667 113 -47
s47 -69 47 -113s-15.667 -81.667 -47 -113s-69 -47 -113 -47s-81.667 15.667 -113 47s-47 69 -47 113zM482 892l231.998 -570l230 570c9.33301 23.333 14 44.666 14 63.999c0 42.667 -39.333 64 -118 64v20h260v-20c-57.333 -1.33301 -102.666 -46.666 -135.999 -135.999
l-238 -592l-112 -282l-114 -282c-46.667 -98.667 -104 -148 -172 -148c-44 0 -81.667 15.667 -113 47s-47 69 -47 113s15.333 81.667 46 113s68 47 112 47c40.667 0 77.334 -14 110.001 -42c28 -24 49.333 -36 64 -36c10.667 0 18 5.33301 22 16l64 162h-40
c-28.667 -0 -46.667 7.33301 -54 22c-1.33301 2.66699 -17.333 44.667 -48 126l-296 736c-26 64.667 -50 104 -72 118c-18.667 12 -50.667 18 -96 18v20h380c45.333 0 86 -49.333 122 -148z" />
    <glyph glyph-name="Amacron" unicode="&#x100;" horiz-adv-x="1400" 
d="M1015 1520h-720l10 100h720zM743 440l-220 678l-222 -678h442zM750 420h-455l-89 -272c-8 -22.667 -12 -42 -12 -58c0 -46.667 48.667 -70 146 -70v-20h-340v20c94.667 0 156.667 45.333 186 136l325 996l-17 52c-32 90.667 -94 136 -186 136v20h386
c57.333 0 102 -49.333 134 -148l344 -1056c29.333 -90.667 92 -136 188 -136v-20h-640v20c86.667 0 130 22.667 130 68c0 15.333 -4 35.333 -12 60z" />
    <glyph glyph-name="amacron" unicode="&#x101;" horiz-adv-x="1358" 
d="M1015 1260h-720l10 100h720zM1320 0l-400 -0.000976562c-13.333 0 -28 10.667 -44 32s-25.333 32 -28 32c-68 -49.333 -150.667 -74 -248 -74c-169.333 0 -305 38 -407 114s-153 161.333 -153 256s50.667 178.334 152 251.001s237.333 109 408 109
c82.667 0 162.667 -16.667 240 -50v50c0 206.667 -86.667 310 -260 310c-110.667 0 -216.667 -28.667 -318 -86l-12 18c106.667 58.667 216.667 88 330 88c386.667 0 580 -176.667 580 -530v-360c0 -93.333 53.333 -140 160 -140v-20zM840 647.999
c-76 34.667 -155.999 52 -239.999 52c-98.667 0 -168 -37.333 -208 -112c-21.333 -36 -32 -112 -32 -228c0 -141.333 17.333 -233.333 52 -276c41.333 -49.333 104 -74 188 -74c101.333 0 182.666 25.333 243.999 76c-2.66699 82.667 -4 162 -4 238v324z" />
    <glyph glyph-name="Abreve" unicode="&#x102;" horiz-adv-x="1400" 
d="M260 1760h40c69.333 -101.333 176 -152 320 -152s250.667 50.667 320 152h40c-110.667 -213.333 -230.667 -320 -360 -320c-128 0 -248 106.667 -360 320zM743 440l-220 678l-222 -678h442zM750 420h-455l-89 -272c-8 -22.667 -12 -42 -12 -58
c0 -46.667 48.667 -70 146 -70v-20h-340v20c94.667 0 156.667 45.333 186 136l325 996l-17 52c-32 90.667 -94 136 -186 136v20h386c57.333 0 102 -49.333 134 -148l344 -1056c29.333 -90.667 92 -136 188 -136v-20h-640v20c86.667 0 130 22.667 130 68
c0 15.333 -4 35.333 -12 60z" />
    <glyph glyph-name="abreve" unicode="&#x103;" horiz-adv-x="1358" 
d="M320 1520h40c69.333 -101.333 176 -152 320 -152s250.667 50.667 320 152h40c-110.667 -213.333 -230.667 -320 -360 -320c-128 0 -248 106.667 -360 320zM1320 0l-400 -0.000976562c-13.333 0 -28 10.667 -44 32s-25.333 32 -28 32c-68 -49.333 -150.667 -74 -248 -74
c-169.333 0 -305 38 -407 114s-153 161.333 -153 256s50.667 178.334 152 251.001s237.333 109 408 109c82.667 0 162.667 -16.667 240 -50v50c0 206.667 -86.667 310 -260 310c-110.667 0 -216.667 -28.667 -318 -86l-12 18c106.667 58.667 216.667 88 330 88
c386.667 0 580 -176.667 580 -530v-360c0 -93.333 53.333 -140 160 -140v-20zM840 647.999c-76 34.667 -155.999 52 -239.999 52c-98.667 0 -168 -37.333 -208 -112c-21.333 -36 -32 -112 -32 -228c0 -141.333 17.333 -233.333 52 -276c41.333 -49.333 104 -74 188 -74
c101.333 0 182.666 25.333 243.999 76c-2.66699 82.667 -4 162 -4 238v324z" />
    <glyph glyph-name="Aogonek" unicode="&#x104;" horiz-adv-x="1400" 
d="M743 440l-220 678l-222 -678h442zM852 -24c9.33301 7.33301 14 21.335 14 42.002c0 29.333 -9.33301 72.666 -28 129.999l-88 272h-455l-89 -272c-8 -24.667 -12 -44 -12 -58c0 -46.667 48.667 -70 146 -70v-20h-340v20c94.667 0 156.667 45.333 186 136l325 996l-17 52
c-32 90.667 -94 136 -186 136v20h386c57.333 0 102 -49.333 134 -148l344 -1056c29.333 -90.667 92 -136 188 -136v-20h-340c-68.667 -4 -118.667 -20 -150 -48c-32 -28 -48 -62.333 -48 -103c0 -68 38 -102 114 -102c68 0 113.333 26.667 136 80l19 -8l-75 -199h-44
c-120 0 -180 76.333 -180 229c0 53.333 20 95.666 60 126.999z" />
    <glyph glyph-name="aogonek" unicode="&#x105;" horiz-adv-x="1358" 
d="M1001 -24l-6 24h-75c-13.333 0 -28 10.667 -44 32s-25.333 32 -28 32c-68 -49.333 -150.667 -74 -248 -74c-169.333 0 -305 38 -407 114s-153 161.333 -153 256s50.667 178.334 152 251.001s237.333 109 408 109c82.667 0 162.667 -16.667 240 -50v50
c0 206.667 -86.667 310 -260 310c-110.667 0 -216.667 -28.667 -318 -86l-12 18c106.667 58.667 216.667 88 330 88c386.667 0 580 -176.667 580 -530v-360c0 -93.333 53.333 -140 160 -140v-20h-151c-68.667 -4 -118.667 -20 -150 -48c-32 -28 -48 -62.333 -48 -103
c0 -54.667 34.667 -82 104 -82c61.333 0 103.333 26.667 126 80l19 -8l-75 -199h-44c-106.667 0 -160 69.667 -160 209c0 53.333 20 95.666 60 126.999zM840 648c-76 34.667 -155.999 52 -239.999 52c-98.667 0 -168 -37.333 -208 -112c-21.333 -36 -32 -112 -32 -228
c0 -141.333 17.333 -233.333 52 -276c41.333 -49.333 104 -74 188 -74c101.333 0 182.666 25.333 243.999 76c-2.66699 82.667 -4 162 -4 238v324z" />
    <glyph glyph-name="Cacute" unicode="&#x106;" horiz-adv-x="1040" 
d="M522 1440l20.001 60c49.333 142.667 82 224 98 244c8 10.667 15.333 16 22 16h260v-20c-6.66699 0 -20.334 -5 -41.001 -15c-22.667 -10.667 -42.667 -25 -60 -43l-239 -242h-60zM624.001 1350c-113.333 0 -193.334 -69.999 -240.001 -209.999
c-29.333 -88.667 -44 -242 -44 -460c0 -189.333 14 -341.333 42 -456c34.667 -142.667 113.334 -214 236.001 -214c130.667 0 251.334 47.333 362.001 142v-26c-110.667 -90.667 -231.334 -136 -362.001 -136c-177.333 0 -321.333 66.667 -432 200
s-166 296.666 -166 489.999c0 190.667 56 353.334 168 488.001s256.667 202 434 202c62.667 0 117 -8.66699 163 -26c42.667 -16.667 82.667 -25 120 -25c38 0 57 13.667 57 41h20l18 -308h-20c0 21.333 -5 46.666 -15 75.999c-30 87.333 -83.667 149.333 -161 186
c-50.667 24 -110.667 36 -180 36z" />
    <glyph glyph-name="cacute" unicode="&#x107;" horiz-adv-x="1124" 
d="M476 1200l20.001 60c49.333 142.667 82 224 98 244c8 10.667 15.333 16 22 16h260v-20c-6.66699 0 -20.334 -5 -41.001 -15c-22.667 -10.667 -42.667 -25 -60 -43l-239 -242h-60zM598.001 -10c-180 0 -317.997 46 -413.997 138s-144 222.667 -144 392
c0 168 48.667 298.667 146 392c97.333 92 235.333 138 414 138c58.667 0 125 -12.333 199 -37s139.333 -59.667 196 -105s85 -92 85 -140c0 -46.667 -16 -85.667 -48 -117s-70 -47 -114 -47c-45.333 0 -83 16.667 -113 50s-45 70 -45 110c0 24 7.33301 50.333 22 79
s22 55.667 22 81c0 24 -22.333 47.667 -67 71s-90.334 35 -137.001 35c-114.667 0 -184.667 -44 -210 -132c-20 -70.667 -30 -196.667 -30 -378c0 -212 10 -340 30 -384c37.333 -84 106.666 -126 207.999 -126c98.667 0 188.667 24 270 72s148.666 113.333 201.999 196
l16 -10c-54.667 -85.333 -124 -153 -208 -203s-177.333 -75 -280 -75z" />
    <glyph glyph-name="Ccircumflex" unicode="&#x108;" horiz-adv-x="1040" 
d="M550 1680c-18.667 0 -50 -17.333 -94 -52l-236 -188h-30l200 320h320l200 -320h-30l-234 188c-44 34.667 -76 52 -96 52zM624 1350c-113.333 0 -193.334 -69.999 -240.001 -209.999c-29.333 -88.667 -44 -242 -44 -460c0 -189.333 14 -341.333 42 -456
c34.667 -142.667 113.334 -214 236.001 -214c130.667 0 251.334 47.333 362.001 142v-26c-110.667 -90.667 -231.334 -136 -362.001 -136c-177.333 0 -321.333 66.667 -432 200s-166 296.666 -166 489.999c0 190.667 56 353.334 168 488.001s256.667 202 434 202
c62.667 0 117 -8.66699 163 -26c42.667 -16.667 82.667 -25 120 -25c38 0 57 13.667 57 41h20l18 -308h-20c0 21.333 -5 46.666 -15 75.999c-30 87.333 -83.667 149.333 -161 186c-50.667 24 -110.667 36 -180 36z" />
    <glyph glyph-name="ccircumflex" unicode="&#x109;" horiz-adv-x="1124" 
d="M583 1440c-18.667 0 -50 -17.333 -94 -52l-236 -188h-30l200 320h320l200 -320h-30l-234 188c-44 34.667 -76 52 -96 52zM598 -10c-180 0 -317.997 46 -413.997 138s-144 222.667 -144 392c0 168 48.667 298.667 146 392c97.333 92 235.333 138 414 138
c58.667 0 125 -12.333 199 -37s139.333 -59.667 196 -105s85 -92 85 -140c0 -46.667 -16 -85.667 -48 -117s-70 -47 -114 -47c-45.333 0 -83 16.667 -113 50s-45 70 -45 110c0 24 7.33301 50.333 22 79s22 55.667 22 81c0 24 -22.333 47.667 -67 71s-90.334 35 -137.001 35
c-114.667 0 -184.667 -44 -210 -132c-20 -70.667 -30 -196.667 -30 -378c0 -212 10 -340 30 -384c37.333 -84 106.666 -126 207.999 -126c98.667 0 188.667 24 270 72s148.666 113.333 201.999 196l16 -10c-54.667 -85.333 -124 -153 -208 -203s-177.333 -75 -280 -75z" />
    <glyph glyph-name="Cdotaccent" unicode="&#x10a;" horiz-adv-x="1040" 
d="M450 1600c0 44 15.667 81.667 47 113s69 47 113 47s81.667 -15.667 113 -47s47 -69 47 -113s-15.667 -81.667 -47 -113s-69 -47 -113 -47s-81.667 15.667 -113 47s-47 69 -47 113zM624 1350c-113.333 0 -193.334 -69.999 -240.001 -209.999
c-29.333 -88.667 -44 -242 -44 -460c0 -189.333 14 -341.333 42 -456c34.667 -142.667 113.334 -214 236.001 -214c130.667 0 251.334 47.333 362.001 142v-26c-110.667 -90.667 -231.334 -136 -362.001 -136c-177.333 0 -321.333 66.667 -432 200
s-166 296.666 -166 489.999c0 190.667 56 353.334 168 488.001s256.667 202 434 202c62.667 0 117 -8.66699 163 -26c42.667 -16.667 82.667 -25 120 -25c38 0 57 13.667 57 41h20l18 -308h-20c0 21.333 -5 46.666 -15 75.999c-30 87.333 -83.667 149.333 -161 186
c-50.667 24 -110.667 36 -180 36z" />
    <glyph glyph-name="cdotaccent" unicode="&#x10b;" horiz-adv-x="1124" 
d="M423 1360c0 44 15.667 81.667 47 113s69 47 113 47s81.667 -15.667 113 -47s47 -69 47 -113s-15.667 -81.667 -47 -113s-69 -47 -113 -47s-81.667 15.667 -113 47s-47 69 -47 113zM598 -10c-180 0 -317.997 46 -413.997 138s-144 222.667 -144 392
c0 168 48.667 298.667 146 392c97.333 92 235.333 138 414 138c58.667 0 125 -12.333 199 -37s139.333 -59.667 196 -105s85 -92 85 -140c0 -46.667 -16 -85.667 -48 -117s-70 -47 -114 -47c-45.333 0 -83 16.667 -113 50s-45 70 -45 110c0 24 7.33301 50.333 22 79
s22 55.667 22 81c0 24 -22.333 47.667 -67 71s-90.334 35 -137.001 35c-114.667 0 -184.667 -44 -210 -132c-20 -70.667 -30 -196.667 -30 -378c0 -212 10 -340 30 -384c37.333 -84 106.666 -126 207.999 -126c98.667 0 188.667 24 270 72s148.666 113.333 201.999 196
l16 -10c-54.667 -85.333 -124 -153 -208 -203s-177.333 -75 -280 -75z" />
    <glyph glyph-name="Ccaron" unicode="&#x10c;" horiz-adv-x="1040" 
d="M550 1520c20 0 52 17.333 96 52l234 188h30l-200 -320h-320l-200 320h30l236 -188c44 -34.667 75.333 -52 94 -52zM624 1350c-113.333 0 -193.334 -69.999 -240.001 -209.999c-29.333 -88.667 -44 -242 -44 -460c0 -189.333 14 -341.333 42 -456
c34.667 -142.667 113.334 -214 236.001 -214c130.667 0 251.334 47.333 362.001 142v-26c-110.667 -90.667 -231.334 -136 -362.001 -136c-177.333 0 -321.333 66.667 -432 200s-166 296.666 -166 489.999c0 190.667 56 353.334 168 488.001s256.667 202 434 202
c62.667 0 117 -8.66699 163 -26c42.667 -16.667 82.667 -25 120 -25c38 0 57 13.667 57 41h20l18 -308h-20c0 21.333 -5 46.666 -15 75.999c-30 87.333 -83.667 149.333 -161 186c-50.667 24 -110.667 36 -180 36z" />
    <glyph glyph-name="ccaron" unicode="&#x10d;" horiz-adv-x="1124" 
d="M583 1280c20 0 52 17.333 96 52l234 188h30l-200 -320h-320l-200 320h30l236 -188c44 -34.667 75.333 -52 94 -52zM598 -10c-180 0 -317.997 46 -413.997 138s-144 222.667 -144 392c0 168 48.667 298.667 146 392c97.333 92 235.333 138 414 138
c58.667 0 125 -12.333 199 -37s139.333 -59.667 196 -105s85 -92 85 -140c0 -46.667 -16 -85.667 -48 -117s-70 -47 -114 -47c-45.333 0 -83 16.667 -113 50s-45 70 -45 110c0 24 7.33301 50.333 22 79s22 55.667 22 81c0 24 -22.333 47.667 -67 71s-90.334 35 -137.001 35
c-114.667 0 -184.667 -44 -210 -132c-20 -70.667 -30 -196.667 -30 -378c0 -212 10 -340 30 -384c37.333 -84 106.666 -126 207.999 -126c98.667 0 188.667 24 270 72s148.666 113.333 201.999 196l16 -10c-54.667 -85.333 -124 -153 -208 -203s-177.333 -75 -280 -75z" />
    <glyph glyph-name="Dcaron" unicode="&#x10e;" horiz-adv-x="1360" 
d="M660 1520c20 0 52 17.333 96 52l234 188h30l-200 -320h-320l-200 320h30l236 -188c44 -34.667 75.333 -52 94 -52zM720 0h-680v20c102.667 0 156 40.667 160 122v1058c0 93.333 -53.333 140 -160 140v20h680c174.667 0 318.334 -65.667 431.001 -197
s169 -292.333 169 -483s-56.333 -351.667 -169 -483s-256.334 -197 -431.001 -197zM720 20c104 0 181.333 54 232 162c32 68 48 234 48 498s-16 430 -48 498c-50.667 108 -128 162 -232 162h-200v-1320h200z" />
    <glyph glyph-name="dcaron" unicode="&#x10f;" horiz-adv-x="1520" 
d="M1180 1440c0 44 15.666 81.667 46.999 113s69 47 113 47s81.667 -15.667 113 -47s47 -69 47 -113c0 -98.667 -25.667 -180.667 -77 -246s-103.666 -98 -156.999 -98v20c29.333 0 57.333 14.333 84 43s40 55.667 40 81c0 26.667 -16.667 40 -50 40
c-44 0 -81.667 15.667 -113 47s-47 69 -47 113zM359.999 522c0 -226.667 8.00098 -358.667 24.001 -396c32 -76 90.667 -114 176 -114c69.333 0 137.333 24.667 204 74c-2.66699 24 -4 49.333 -4 76v796c-65.333 48 -132 72 -200 72c-86.667 0 -145.334 -38 -176.001 -114
c-16 -42.667 -24 -174 -24 -394zM1080 1360l-0.000976562 -1200c0 -93.333 53.333 -140 160 -140v-20h-400c-13.333 0 -28.333 10.667 -45 32s-25.667 32 -27 32c-72 -48 -141.333 -72 -208 -72c-157.333 0 -283.333 47 -378 141s-142 223.667 -142 389
s47 294.666 141 387.999s220.333 140 379 140c66.667 0 133.334 -22 200.001 -66v376c0 93.333 -53.333 140 -160 140v20h400c53.333 0 80 -53.333 80 -160z" />
    <glyph glyph-name="Dcroat" unicode="&#x110;" horiz-adv-x="1360" 
d="M720 20c104 0 181.333 54 232 162c32 68 48 234 48 498s-16 430 -48 498c-50.667 108 -128 162 -232 162h-200v-610h200l-10 -100h-190v-610h200zM720 0h-680v20c102.667 0 156 40.667 160 122v488h-170l10 100h160v470c0 93.333 -53.333 140 -160 140v20h680
c174.667 0 318.334 -65.667 431.001 -197s169 -292.333 169 -483s-56.333 -351.667 -169 -483s-256.334 -197 -431.001 -197z" />
    <glyph glyph-name="dcroat" unicode="&#x111;" horiz-adv-x="1280" 
d="M360 522c0 -226.667 8.00098 -358.667 24.001 -396c32 -76 90.667 -114 176 -114c69.333 0 137.333 24.667 204 74c-2.66699 24 -4 49.333 -4 76v796c-65.333 48 -132 72 -200 72c-86.667 0 -145.334 -38 -176.001 -114c-16 -42.667 -24 -174 -24 -394zM1220 1260
l-10.001 -79.999h-130v-1020c0 -93.333 53.333 -140 160 -140v-20h-400c-13.333 0 -28.333 10.667 -45 32s-25.667 32 -27 32c-72 -48 -141.333 -72 -208 -72c-157.333 0 -283.333 47 -378 141s-142 223.667 -142 389s47 294.666 141 387.999s220.333 140 379 140
c66.667 0 133.334 -22 200.001 -66v196h-310l10 80h300v100c0 93.333 -53.333 140 -160 140v20h400c53.333 0 80 -53.333 80 -160v-100h140z" />
    <glyph glyph-name="Emacron" unicode="&#x112;" horiz-adv-x="1240" 
d="M1015 1520h-720l10 100h720zM40 1360h1120v-300h-20c-12 186.667 -95.333 280 -250 280h-370v-560h178c93.333 0 140 53.333 140 160h20v-340h-20c0 106.667 -46.667 160 -140 160h-178v-740h390c154.667 0 238 93.333 250 280h20v-300h-1140v20
c102.667 0 156 40.667 160 122v1058c0 93.333 -53.333 140 -160 140v20z" />
    <glyph glyph-name="emacron" unicode="&#x113;" 
d="M955 1260h-720l10 100h720zM360 540l479.999 -0.000976562c0 202.667 -10 325.334 -30 368.001c-37.333 81.333 -107.333 122 -210 122c-101.333 0 -166.666 -34 -195.999 -102c-29.333 -70.667 -44 -200 -44 -388zM599.999 -10.001c-180 0 -318.667 46 -416 138
c-96 92 -144 222.667 -144 392c0 168 48.667 298.667 146 392c97.333 92 235.333 138 414 138s316.667 -46 414 -138c97.333 -93.333 146 -224 146 -392h-800c0 -236 13.333 -372.667 40 -410c49.333 -66.667 116 -100 200 -100c100 0 194 24.667 282 74s158 114 210 194
l16 -10c-53.333 -84 -125.333 -151.333 -216 -202s-188 -76 -292 -76z" />
    <glyph glyph-name="Ebreve" unicode="&#x114;" horiz-adv-x="1240" 
d="M280 1760h40c69.333 -101.333 176 -152 320 -152s250.667 50.667 320 152h40c-110.667 -213.333 -230.667 -320 -360 -320c-128 0 -248 106.667 -360 320zM40 1360h1120v-300h-20c-12 186.667 -95.333 280 -250 280h-370v-560h178c93.333 0 140 53.333 140 160h20v-340
h-20c0 106.667 -46.667 160 -140 160h-178v-740h390c154.667 0 238 93.333 250 280h20v-300h-1140v20c102.667 0 156 40.667 160 122v1058c0 93.333 -53.333 140 -160 140v20z" />
    <glyph glyph-name="ebreve" unicode="&#x115;" 
d="M260 1520h40c69.333 -101.333 176 -152 320 -152s250.667 50.667 320 152h40c-110.667 -213.333 -230.667 -320 -360 -320c-128 0 -248 106.667 -360 320zM360 540l479.999 -0.000976562c0 202.667 -10 325.334 -30 368.001c-37.333 81.333 -107.333 122 -210 122
c-101.333 0 -166.666 -34 -195.999 -102c-29.333 -70.667 -44 -200 -44 -388zM599.999 -10.001c-180 0 -318.667 46 -416 138c-96 92 -144 222.667 -144 392c0 168 48.667 298.667 146 392c97.333 92 235.333 138 414 138s316.667 -46 414 -138
c97.333 -93.333 146 -224 146 -392h-800c0 -236 13.333 -372.667 40 -410c49.333 -66.667 116 -100 200 -100c100 0 194 24.667 282 74s158 114 210 194l16 -10c-53.333 -84 -125.333 -151.333 -216 -202s-188 -76 -292 -76z" />
    <glyph glyph-name="Edotaccent" unicode="&#x116;" horiz-adv-x="1240" 
d="M520 1600c0 44 15.667 81.667 47 113s69 47 113 47s81.667 -15.667 113 -47s47 -69 47 -113s-15.667 -81.667 -47 -113s-69 -47 -113 -47s-81.667 15.667 -113 47s-47 69 -47 113zM40 1360h1120v-300h-20c-12 186.667 -95.333 280 -250 280h-370v-560h178
c93.333 0 140 53.333 140 160h20v-340h-20c0 106.667 -46.667 160 -140 160h-178v-740h390c154.667 0 238 93.333 250 280h20v-300h-1140v20c102.667 0 156 40.667 160 122v1058c0 93.333 -53.333 140 -160 140v20z" />
    <glyph glyph-name="edotaccent" unicode="&#x117;" 
d="M460 1360c0 44 15.667 81.667 47 113s69 47 113 47s81.667 -15.667 113 -47s47 -69 47 -113s-15.667 -81.667 -47 -113s-69 -47 -113 -47s-81.667 15.667 -113 47s-47 69 -47 113zM360 540l479.999 -0.000976562c0 202.667 -10 325.334 -30 368.001
c-37.333 81.333 -107.333 122 -210 122c-101.333 0 -166.666 -34 -195.999 -102c-29.333 -70.667 -44 -200 -44 -388zM599.999 -10.001c-180 0 -318.667 46 -416 138c-96 92 -144 222.667 -144 392c0 168 48.667 298.667 146 392c97.333 92 235.333 138 414 138
s316.667 -46 414 -138c97.333 -93.333 146 -224 146 -392h-800c0 -236 13.333 -372.667 40 -410c49.333 -66.667 116 -100 200 -100c100 0 194 24.667 282 74s158 114 210 194l16 -10c-53.333 -84 -125.333 -151.333 -216 -202s-188 -76 -292 -76z" />
    <glyph glyph-name="Eogonek" unicode="&#x118;" horiz-adv-x="1240" 
d="M844 -24v24.001h-804v20c102.667 0 156 40.667 160 122v1058c0 93.333 -53.333 140 -160 140v20h1120v-300h-20c-12 186.667 -95.333 280 -250 280h-370v-560h178c93.333 0 140 53.333 140 160h20v-340h-20c0 106.667 -46.667 160 -140 160h-178v-740h390
c154.667 0 238 93.333 250 280h20v-300h-168c-68.667 -4 -118.667 -20 -150 -48c-32 -28 -48 -62.333 -48 -103c0 -54.667 34.667 -82 104 -82c61.333 0 103.333 26.667 126 80l19 -8l-75 -199h-44c-106.667 0 -160 69.667 -160 209c0 53.333 20 95.666 60 126.999z" />
    <glyph glyph-name="eogonek" unicode="&#x119;" 
d="M360 540h479.999c0 202 -10 324.667 -30 368c-38 81.333 -108 122 -210 122c-101.333 0 -166.666 -34 -195.999 -102c-29.333 -70.667 -44 -200 -44 -388zM599.999 -10c-180 0 -318.667 46.001 -416 138.001c-96 92 -144 222.667 -144 392c0 168 48.667 298.667 146 392
c97.333 92 235.333 138 414 138s316.667 -46 414 -138c97.333 -93.333 146 -224 146 -392h-800c0 -236 13.333 -372.667 40 -410c49.333 -66.667 116 -100 200 -100c100 0 194 24.667 282 74s158 114 210 194l16 -10c-53.333 -84 -125.333 -151.333 -216 -202
c-26 -14.667 -52.667 -27 -80 -37c-50.667 -22.667 -92 -48.334 -124 -77.001c-32 -28 -48 -62.333 -48 -103c0 -54.667 34.667 -82 104 -82c61.333 0 103.333 26.667 126 80l19 -8l-75 -199h-44c-106.667 0.666992 -160 70.334 -160 209.001c0 53.333 20 95.666 60 126.999
v18c-22.667 -2.66699 -46 -4 -70 -4z" />
    <glyph glyph-name="Ecaron" unicode="&#x11a;" horiz-adv-x="1240" 
d="M680 1520c20 0 52 17.333 96 52l234 188h30l-200 -320h-320l-200 320h30l236 -188c44 -34.667 75.333 -52 94 -52zM40 1360h1120v-300h-20c-12 186.667 -95.333 280 -250 280h-370v-560h178c93.333 0 140 53.333 140 160h20v-340h-20c0 106.667 -46.667 160 -140 160
h-178v-740h390c154.667 0 238 93.333 250 280h20v-300h-1140v20c102.667 0 156 40.667 160 122v1058c0 93.333 -53.333 140 -160 140v20z" />
    <glyph glyph-name="ecaron" unicode="&#x11b;" 
d="M600 1280c20 0 52 17.333 96 52l234 188h30l-200 -320h-320l-200 320h30l236 -188c44 -34.667 75.333 -52 94 -52zM360 540l479.999 -0.000976562c0 202.667 -10 325.334 -30 368.001c-37.333 81.333 -107.333 122 -210 122c-101.333 0 -166.666 -34 -195.999 -102
c-29.333 -70.667 -44 -200 -44 -388zM599.999 -10.001c-180 0 -318.667 46 -416 138c-96 92 -144 222.667 -144 392c0 168 48.667 298.667 146 392c97.333 92 235.333 138 414 138s316.667 -46 414 -138c97.333 -93.333 146 -224 146 -392h-800
c0 -236 13.333 -372.667 40 -410c49.333 -66.667 116 -100 200 -100c100 0 194 24.667 282 74s158 114 210 194l16 -10c-53.333 -84 -125.333 -151.333 -216 -202s-188 -76 -292 -76z" />
    <glyph glyph-name="Gcircumflex" unicode="&#x11c;" horiz-adv-x="1240" 
d="M630 1680c-18.667 0 -50 -17.333 -94 -52l-236 -188h-30l200 320h320l200 -320h-30l-234 188c-44 34.667 -76 52 -96 52zM618 10c30 0 61.165 12.001 93.498 36.001s48.5 62 48.5 114v320c0 93.333 -53.333 140 -160 140v20h600v-20c-106.667 0 -160 -46.667 -160 -140
v-274c-72 -82.667 -149.333 -142 -232 -178c-57.333 -25.333 -120.666 -38 -189.999 -38c-177.333 0 -321.333 66.667 -432 200s-166 296.666 -166 489.999c0 190.667 56 353.334 168 488.001s256.667 202 434 202c62.667 0 117 -8.66699 163 -26
c42.667 -16.667 82.667 -25 120 -25c38 0 57 13.667 57 41h20l18 -308h-20c0 21.333 -5 46.666 -15 75.999c-30 87.333 -83.667 149.333 -161 186c-50.667 24 -110.667 36 -180 36c-113.333 0 -193.333 -70 -240 -210c-29.333 -88.667 -44 -242 -44 -460
c0 -189.333 14 -341.333 42 -456c34.667 -142.667 113.334 -214 236.001 -214z" />
    <glyph glyph-name="gcircumflex" unicode="&#x11d;" horiz-adv-x="1280" 
d="M640 1440c-18.667 0 -50 -17.333 -94 -52l-236 -188h-30l200 320h320l200 -320h-30l-234 188c-44 34.667 -76 52 -96 52zM360 520c0 -220 7.99902 -351.333 23.999 -394c30.667 -76 89.334 -114 176.001 -114c68 0 134.667 24 200 72v796c0 26.667 1.33301 52 4 76
c-66.667 49.333 -134.667 74 -204 74c-85.333 0 -144 -38 -176 -114c-16 -37.333 -24 -169.333 -24 -396zM759.999 58c-66.667 -44 -133.332 -65.998 -199.999 -65.998c-158.667 0 -285.334 46.667 -380.001 140c-93.333 93.333 -140 222.666 -140 387.999
s47.333 294.666 142 387.999c94.667 94.667 220.667 142 378 142c66.667 0 136 -24 208 -72c2.66699 0 12 10 28 30c17.333 21.333 32 32 44 32h400v-20c-106.667 0 -160 -46.667 -160 -140v-750c0 -168 -51.333 -298 -154 -390c-102.667 -93.333 -244.667 -140 -426 -140
c-113.333 0 -223.333 29.333 -330 88l12 18c101.333 -57.333 207.333 -86 318 -86c96 0 162.667 25.333 200 76c37.333 49.333 57.333 127.333 60 234v128z" />
    <glyph glyph-name="Gbreve" unicode="&#x11e;" horiz-adv-x="1240" 
d="M250 1760h40c69.333 -101.333 176 -152 320 -152s250.667 50.667 320 152h40c-110.667 -213.333 -230.667 -320 -360 -320c-128 0 -248 106.667 -360 320zM618 10c30 0 61.165 12.001 93.498 36.001s48.5 62 48.5 114v320c0 93.333 -53.333 140 -160 140v20h600v-20
c-106.667 0 -160 -46.667 -160 -140v-274c-72 -82.667 -149.333 -142 -232 -178c-57.333 -25.333 -120.666 -38 -189.999 -38c-177.333 0 -321.333 66.667 -432 200s-166 296.666 -166 489.999c0 190.667 56 353.334 168 488.001s256.667 202 434 202
c62.667 0 117 -8.66699 163 -26c42.667 -16.667 82.667 -25 120 -25c38 0 57 13.667 57 41h20l18 -308h-20c0 21.333 -5 46.666 -15 75.999c-30 87.333 -83.667 149.333 -161 186c-50.667 24 -110.667 36 -180 36c-113.333 0 -193.333 -70 -240 -210
c-29.333 -88.667 -44 -242 -44 -460c0 -189.333 14 -341.333 42 -456c34.667 -142.667 113.334 -214 236.001 -214z" />
    <glyph glyph-name="gbreve" unicode="&#x11f;" horiz-adv-x="1280" 
d="M280 1520h40c69.333 -101.333 176 -152 320 -152s250.667 50.667 320 152h40c-110.667 -213.333 -230.667 -320 -360 -320c-128 0 -248 106.667 -360 320zM360 520c0 -220 7.99902 -351.333 23.999 -394c30.667 -76 89.334 -114 176.001 -114c68 0 134.667 24 200 72v796
c0 26.667 1.33301 52 4 76c-66.667 49.333 -134.667 74 -204 74c-85.333 0 -144 -38 -176 -114c-16 -37.333 -24 -169.333 -24 -396zM759.999 58c-66.667 -44 -133.332 -65.998 -199.999 -65.998c-158.667 0 -285.334 46.667 -380.001 140
c-93.333 93.333 -140 222.666 -140 387.999s47.333 294.666 142 387.999c94.667 94.667 220.667 142 378 142c66.667 0 136 -24 208 -72c2.66699 0 12 10 28 30c17.333 21.333 32 32 44 32h400v-20c-106.667 0 -160 -46.667 -160 -140v-750c0 -168 -51.333 -298 -154 -390
c-102.667 -93.333 -244.667 -140 -426 -140c-113.333 0 -223.333 29.333 -330 88l12 18c101.333 -57.333 207.333 -86 318 -86c96 0 162.667 25.333 200 76c37.333 49.333 57.333 127.333 60 234v128z" />
    <glyph glyph-name="Gdotaccent" unicode="&#x120;" horiz-adv-x="1240" 
d="M450 1600c0 44 15.667 81.667 47 113s69 47 113 47s81.667 -15.667 113 -47s47 -69 47 -113s-15.667 -81.667 -47 -113s-69 -47 -113 -47s-81.667 15.667 -113 47s-47 69 -47 113zM618 10c30 0 61.165 12.001 93.498 36.001s48.5 62 48.5 114v320
c0 93.333 -53.333 140 -160 140v20h600v-20c-106.667 0 -160 -46.667 -160 -140v-274c-72 -82.667 -149.333 -142 -232 -178c-57.333 -25.333 -120.666 -38 -189.999 -38c-177.333 0 -321.333 66.667 -432 200s-166 296.666 -166 489.999c0 190.667 56 353.334 168 488.001
s256.667 202 434 202c62.667 0 117 -8.66699 163 -26c42.667 -16.667 82.667 -25 120 -25c38 0 57 13.667 57 41h20l18 -308h-20c0 21.333 -5 46.666 -15 75.999c-30 87.333 -83.667 149.333 -161 186c-50.667 24 -110.667 36 -180 36c-113.333 0 -193.333 -70 -240 -210
c-29.333 -88.667 -44 -242 -44 -460c0 -189.333 14 -341.333 42 -456c34.667 -142.667 113.334 -214 236.001 -214z" />
    <glyph glyph-name="gdotaccent" unicode="&#x121;" horiz-adv-x="1280" 
d="M480 1360c0 44 15.667 81.667 47 113s69 47 113 47s81.667 -15.667 113 -47s47 -69 47 -113s-15.667 -81.667 -47 -113s-69 -47 -113 -47s-81.667 15.667 -113 47s-47 69 -47 113zM360 520c0 -220 7.99902 -351.333 23.999 -394c30.667 -76 89.334 -114 176.001 -114
c68 0 134.667 24 200 72v796c0 26.667 1.33301 52 4 76c-66.667 49.333 -134.667 74 -204 74c-85.333 0 -144 -38 -176 -114c-16 -37.333 -24 -169.333 -24 -396zM759.999 58c-66.667 -44 -133.332 -65.998 -199.999 -65.998c-158.667 0 -285.334 46.667 -380.001 140
c-93.333 93.333 -140 222.666 -140 387.999s47.333 294.666 142 387.999c94.667 94.667 220.667 142 378 142c66.667 0 136 -24 208 -72c2.66699 0 12 10 28 30c17.333 21.333 32 32 44 32h400v-20c-106.667 0 -160 -46.667 -160 -140v-750c0 -168 -51.333 -298 -154 -390
c-102.667 -93.333 -244.667 -140 -426 -140c-113.333 0 -223.333 29.333 -330 88l12 18c101.333 -57.333 207.333 -86 318 -86c96 0 162.667 25.333 200 76c37.333 49.333 57.333 127.333 60 234v128z" />
    <glyph glyph-name="Gcommaaccent" unicode="&#x122;" horiz-adv-x="1240" 
d="M430 -230c0 44 15.666 81.667 46.999 113s69 47 113 47s81.667 -15.667 113 -47s47 -69 47 -113c0 -98.667 -25.667 -180.667 -77 -246s-103.666 -98 -156.999 -98v20c29.333 0 57.333 14.333 84 43s40 55.667 40 81c0 26.667 -16.667 40 -50 40
c-44 0 -81.667 15.667 -113 47s-47 69 -47 113zM617.999 10c30 0 61.165 12.001 93.498 36.001s48.5 62 48.5 114v320c0 93.333 -53.333 140 -160 140v20h600v-20c-106.667 0 -160 -46.667 -160 -140v-274c-72 -82.667 -149.333 -142 -232 -178
c-57.333 -25.333 -120.666 -38 -189.999 -38c-177.333 0 -321.333 66.667 -432 200s-166 296.666 -166 489.999c0 190.667 56 353.334 168 488.001s256.667 202 434 202c62.667 0 117 -8.66699 163 -26c42.667 -16.667 82.667 -25 120 -25c38 0 57 13.667 57 41h20l18 -308
h-20c0 21.333 -5 46.666 -15 75.999c-30 87.333 -83.667 149.333 -161 186c-50.667 24 -110.667 36 -180 36c-113.333 0 -193.333 -70 -240 -210c-29.333 -88.667 -44 -242 -44 -460c0 -189.333 14 -341.333 42 -456c34.667 -142.667 113.334 -214 236.001 -214z" />
    <glyph glyph-name="gcommaaccent" unicode="&#x123;" horiz-adv-x="1280" 
d="M726 1282c0 -44 -15.666 -81.667 -46.999 -113s-69 -47 -113 -47s-81.667 15.667 -113 47s-47 69 -47 113c0 98.667 25.667 180.667 77 246s103.666 98 156.999 98v-20c-29.333 0 -57.333 -14.333 -84 -43s-40 -55.667 -40 -81c0 -26.667 16.667 -40 50 -40
c44 0 81.667 -15.667 113 -47s47 -69 47 -113zM360.001 520c0 -220 7.99902 -351.333 23.999 -394c30.667 -76 89.334 -114 176.001 -114c68 0 134.667 24 200 72v796c0 26.667 1.33301 52 4 76c-66.667 49.333 -134.667 74 -204 74c-85.333 0 -144 -38 -176 -114
c-16 -37.333 -24 -169.333 -24 -396zM760 58c-66.667 -44 -133.332 -65.998 -199.999 -65.998c-158.667 0 -285.334 46.667 -380.001 140c-93.333 93.333 -140 222.666 -140 387.999s47.333 294.666 142 387.999c94.667 94.667 220.667 142 378 142
c66.667 0 136 -24 208 -72c2.66699 0 12 10 28 30c17.333 21.333 32 32 44 32h400v-20c-106.667 0 -160 -46.667 -160 -140v-750c0 -168 -51.333 -298 -154 -390c-102.667 -93.333 -244.667 -140 -426 -140c-113.333 0 -223.333 29.333 -330 88l12 18
c101.333 -57.333 207.333 -86 318 -86c96 0 162.667 25.333 200 76c37.333 49.333 57.333 127.333 60 234v128z" />
    <glyph glyph-name="Hcircumflex" unicode="&#x124;" horiz-adv-x="1520" 
d="M780 1680c-18.667 0 -50 -17.333 -94 -52l-236 -188h-30l200 320h320l200 -320h-30l-234 188c-44 34.667 -76 52 -96 52zM1000 160v580h-480v-580c0 -93.333 53.333 -140 160 -140v-20h-640v20c106.667 0 160 46.667 160 140v1040c0 93.333 -53.333 140 -160 140v20h400
c53.333 0 80 -53.333 80 -160v-440h480v440c0 93.333 -53.333 140 -160 140v20h640v-20c-106.667 0 -160 -46.667 -160 -140v-1040c0 -93.333 53.333 -140 160 -140v-20h-640v20c106.667 0 160 46.667 160 140z" />
    <glyph glyph-name="hcircumflex" unicode="&#x125;" horiz-adv-x="1440" 
d="M560 1820c-18.667 0 -50 -17.333 -94 -52l-236 -188h-30l200 320h320l200 -320h-30l-234 188c-44 34.667 -76 52 -96 52zM200 1360c0 93.333 -53.334 140 -160.001 140v20h400c53.333 0 80 -53.333 80 -160v-376c66.667 44 133.334 66 200.001 66
c346.667 0 520 -123.333 520 -370v-520c0 -93.333 53.333 -140 160 -140v-20h-640v20c106.667 0 160 46.667 160 140v500c0 246.667 -66.667 370 -200 370c-68 0 -134.667 -24 -200 -72v-798c0 -93.333 53.333 -140 160 -140v-20h-640v20c106.667 0 160 46.667 160 140v1200
z" />
    <glyph glyph-name="Hbar" unicode="&#x126;" horiz-adv-x="1520" 
d="M1000 160v580h-480v-580c0 -93.333 53.333 -140 160 -140v-20h-640v20c106.667 0 160 46.667 160 140v840h-100l10 80h90v120c0 93.333 -53.333 140 -160 140v20h400c53.333 0 80 -53.333 80 -160v-120h480v120c0 93.333 -53.333 140 -160 140v20h640v-20
c-106.667 0 -160 -46.667 -160 -140v-120h110l-10 -80h-100v-840c0 -93.333 53.333 -140 160 -140v-20h-640v20c106.667 0 160 46.667 160 140zM1000 1000h-480v-240h480v240z" />
    <glyph glyph-name="hbar" unicode="&#x127;" horiz-adv-x="1440" 
d="M50 1180l9.99902 80h140v100c0 93.333 -53.333 140 -160 140v20h400c53.333 0 80 -53.333 80 -160v-100h300l-10 -80h-290v-196c66.667 44 133.334 66 200.001 66c346.667 0 520 -123.333 520 -370v-520c0 -93.333 53.333 -140 160 -140v-20h-640v20
c106.667 0 160 46.667 160 140v500c0 246.667 -66.667 370 -200 370c-68 0 -134.667 -24 -200 -72v-798c0 -93.333 53.333 -140 160 -140v-20h-640v20c106.667 0 160 46.667 160 140v1020h-150z" />
    <glyph glyph-name="Itilde" unicode="&#x128;" horiz-adv-x="720" 
d="M348 1720l134 -100c32.667 -21.333 60 -32 82 -32c69.333 0 104 32 104 96c0 13.333 -2.66699 27.333 -8 42l18 8c14.667 -38.667 22 -74 22 -106c0 -125.333 -70.667 -188 -212 -188c-40 0 -78.667 12 -116 36l-134 100c-34 22.667 -68.667 34 -104 34
c-54.667 0 -82 -32.667 -82 -98c0 -12 2.66699 -26 8 -42l-18 -8c-14.667 40 -22 76 -22 108c0 126.667 65.333 190 196 190c52 0 96 -13.333 132 -40zM40 1360h640v-20c-106.667 0 -160 -46.667 -160 -140v-1040c0 -93.333 53.333 -140 160 -140v-20h-640v20
c106.667 0 160 46.667 160 140v1040c0 93.333 -53.333 140 -160 140v20z" />
    <glyph glyph-name="itilde" unicode="&#x129;" horiz-adv-x="720" 
d="M348 1480l134 -100c32.667 -21.333 60 -32 82 -32c69.333 0 104 32 104 96c0 13.333 -2.66699 27.333 -8 42l18 8c14.667 -38.667 22 -74 22 -106c0 -125.333 -70.667 -188 -212 -188c-40 0 -78.667 12 -116 36l-134 100c-34 22.667 -68.667 34 -104 34
c-54.667 0 -82 -32.667 -82 -98c0 -12 2.66699 -26 8 -42l-18 -8c-14.667 40 -22 76 -22 108c0 126.667 65.333 190 196 190c52 0 96 -13.333 132 -40zM40 1040l400 0.000976562c14.667 0 25.334 -1 32.001 -3s14.667 -7.66699 24 -17s15.666 -25.333 18.999 -48
s5 -53.334 5 -92.001v-720c0 -33.333 4 -60.333 12 -81s21.333 -34.667 40 -42s34.667 -12 48 -14s33.333 -3 60 -3v-20h-640v20c26.667 0 46.667 1 60 3s29.333 6.66699 48 14s32 21.333 40 42s12 47.667 12 81v720c0 33.333 -4 60.333 -12 81s-21.333 34.667 -40 42
s-34.667 12 -48 14s-33.333 3 -60 3v20z" />
    <glyph glyph-name="Imacron" unicode="&#x12a;" horiz-adv-x="720" 
d="M715 1520h-720l10 100h720zM40 1360h640v-20c-106.667 0 -160 -46.667 -160 -140v-1040c0 -93.333 53.333 -140 160 -140v-20h-640v20c106.667 0 160 46.667 160 140v1040c0 93.333 -53.333 140 -160 140v20z" />
    <glyph glyph-name="imacron" unicode="&#x12b;" horiz-adv-x="720" 
d="M715 1260h-720l10 100h720zM40 1040l400 0.000976562c14.667 0 25.334 -1 32.001 -3s14.667 -7.66699 24 -17s15.666 -25.333 18.999 -48s5 -53.334 5 -92.001v-720c0 -33.333 4 -60.333 12 -81s21.333 -34.667 40 -42s34.667 -12 48 -14s33.333 -3 60 -3v-20h-640v20
c26.667 0 46.667 1 60 3s29.333 6.66699 48 14s32 21.333 40 42s12 47.667 12 81v720c0 33.333 -4 60.333 -12 81s-21.333 34.667 -40 42s-34.667 12 -48 14s-33.333 3 -60 3v20z" />
    <glyph glyph-name="Ibreve" unicode="&#x12c;" horiz-adv-x="720" 
d="M0 1760h40c69.333 -101.333 176 -152 320 -152s250.667 50.667 320 152h40c-110.667 -213.333 -230.667 -320 -360 -320c-128 0 -248 106.667 -360 320zM40 1360h640v-20c-106.667 0 -160 -46.667 -160 -140v-1040c0 -93.333 53.333 -140 160 -140v-20h-640v20
c106.667 0 160 46.667 160 140v1040c0 93.333 -53.333 140 -160 140v20z" />
    <glyph glyph-name="ibreve" unicode="&#x12d;" horiz-adv-x="720" 
d="M0 1520h40c69.333 -101.333 176 -152 320 -152s250.667 50.667 320 152h40c-110.667 -213.333 -230.667 -320 -360 -320c-128 0 -248 106.667 -360 320zM40 1040l400 0.000976562c14.667 0 25.334 -1 32.001 -3s14.667 -7.66699 24 -17s15.666 -25.333 18.999 -48
s5 -53.334 5 -92.001v-720c0 -33.333 4 -60.333 12 -81s21.333 -34.667 40 -42s34.667 -12 48 -14s33.333 -3 60 -3v-20h-640v20c26.667 0 46.667 1 60 3s29.333 6.66699 48 14s32 21.333 40 42s12 47.667 12 81v720c0 33.333 -4 60.333 -12 81s-21.333 34.667 -40 42
s-34.667 12 -48 14s-33.333 3 -60 3v20z" />
    <glyph glyph-name="Iogonek" unicode="&#x12e;" horiz-adv-x="720" 
d="M40 1360l640 0.000976562v-20c-106.667 0 -160 -46.667 -160 -140v-1040c0 -93.333 53.333 -140 160 -140v-20h-202c-68.667 -4 -118.667 -20 -150 -48c-32 -28 -48 -62.333 -48 -103c0 -54.667 34.667 -82 104 -82c61.333 0 103.333 26.667 126 80l19 -8l-75 -199h-44
c-106.667 0 -160 69.667 -160 209c0 53.333 20 95.666 60 126.999v24h-270v20c106.667 0 160 46.667 160 140v1040c0 93.333 -53.333 140 -160 140v20z" />
    <glyph glyph-name="iogonek" unicode="&#x12f;" horiz-adv-x="720" 
d="M680 0l-202 0.000976562c-68.667 -4 -118.667 -20 -150 -48c-32 -28 -48 -62.333 -48 -103c0 -54.667 34.667 -82 104 -82c61.333 0 103.333 26.667 126 80l19 -8l-75 -199h-44c-106.667 0 -160 69.667 -160 209c0 53.333 20 95.666 60 126.999v24h-270v20
c106.667 0 160 46.667 160 140v720c0 93.333 -53.333 140 -160 140v20h400c53.333 0 80 -53.333 80 -160v-720c0 -93.333 53.333 -140 160 -140v-20zM200 1360c0 44 15.667 81.667 47 113s69 47 113 47s81.667 -15.667 113 -47s47 -69 47 -113s-15.667 -81.667 -47 -113
s-69 -47 -113 -47s-81.667 15.667 -113 47s-47 69 -47 113z" />
    <glyph glyph-name="Idotaccent" unicode="&#x130;" horiz-adv-x="720" 
d="M200 1600c0 44 15.667 81.667 47 113s69 47 113 47s81.667 -15.667 113 -47s47 -69 47 -113s-15.667 -81.667 -47 -113s-69 -47 -113 -47s-81.667 15.667 -113 47s-47 69 -47 113zM40 1360h640v-20c-106.667 0 -160 -46.667 -160 -140v-1040
c0 -93.333 53.333 -140 160 -140v-20h-640v20c106.667 0 160 46.667 160 140v1040c0 93.333 -53.333 140 -160 140v20z" />
    <glyph glyph-name="dotlessi" unicode="&#x131;" horiz-adv-x="720" 
d="M40 1040l400 0.000976562c14.667 0 25.334 -1 32.001 -3s14.667 -7.66699 24 -17s15.666 -25.333 18.999 -48s5 -53.334 5 -92.001v-720c0 -33.333 4 -60.333 12 -81s21.333 -34.667 40 -42s34.667 -12 48 -14s33.333 -3 60 -3v-20h-640v20c26.667 0 46.667 1 60 3
s29.333 6.66699 48 14s32 21.333 40 42s12 47.667 12 81v720c0 33.333 -4 60.333 -12 81s-21.333 34.667 -40 42s-34.667 12 -48 14s-33.333 3 -60 3v20z" />
    <glyph glyph-name="Jcircumflex" unicode="&#x134;" horiz-adv-x="700" 
d="M347 1680c-18.667 0 -50 -17.333 -94 -52l-236 -188h-30l200 320h320l200 -320h-30l-234 188c-44 34.667 -76 52 -96 52zM0 -380c133.333 0 200 140 200 420v1160c0 93.333 -53.333 140 -160 140v20h640v-20c-106.667 0 -160 -46.667 -160 -140v-920
c0 -198.667 -44.333 -361.667 -133 -489s-217.667 -191 -387 -191c-92 0 -155.333 38.667 -190 116l18 8c30.667 -69.333 88 -104 172 -104z" />
    <glyph glyph-name="jcircumflex" unicode="&#x135;" horiz-adv-x="610" 
d="M303 1440c-18.667 0 -50 -17.333 -94 -52l-236 -188h-30l200 320h320l200 -320h-30l-234 188c-44 34.667 -76 52 -96 52zM520 880l-0.00292969 -780.001c0 -149.333 -39.667 -270 -119 -362s-199.666 -138 -360.999 -138c-92 0 -155.333 38.667 -190 116l18 8
c30.667 -69.333 88 -104 172 -104c66.667 0 111.334 41.333 134.001 124c14.667 54.667 23.334 173.334 26.001 356.001v780c0 93.333 -53.333 140 -160 140v20h400c53.333 0 80 -53.333 80 -160z" />
    <glyph glyph-name="Kcommaaccent" unicode="&#x136;" horiz-adv-x="1440" 
d="M560 -220c0 44 15.666 81.667 46.999 113s69 47 113 47s81.667 -15.667 113 -47s47 -69 47 -113c0 -98.667 -25.667 -180.667 -77 -246s-103.666 -98 -156.999 -98v20c29.333 0 57.333 14.333 84 43s40 55.667 40 81c0 26.667 -16.667 40 -50 40
c-44 0 -81.667 15.667 -113 47s-47 69 -47 113zM39.999 1360h640v-20c-106.667 0 -160 -46.667 -160 -140v-704l564 716c22.667 30.667 34 54.667 34 72c0 37.333 -46 56 -138 56v20h340v-20c-45.333 0 -80.333 -7 -105 -21s-61.667 -52.333 -111 -115l-244 -310l370 -738
c30.667 -64 55.667 -102.667 75 -116s51 -20 95 -20v-20h-380c-50.667 -0 -98 49.333 -142 148l-236 468l-122 -154v-302c0 -93.333 53.333 -140 160 -140v-20h-640v20c106.667 0 160 46.667 160 140v1040c0 93.333 -53.333 140 -160 140v20z" />
    <glyph glyph-name="kcommaaccent" unicode="&#x137;" horiz-adv-x="1340" 
d="M560 -220c0 44 15.666 81.667 46.999 113s69 47 113 47s81.667 -15.667 113 -47s47 -69 47 -113c0 -98.667 -25.667 -180.667 -77 -246s-103.666 -98 -156.999 -98v20c29.333 0 57.333 14.333 84 43s40 55.667 40 81c0 26.667 -16.667 40 -50 40
c-44 0 -81.667 15.667 -113 47s-47 69 -47 113zM179.999 1360c0 93.333 -53.334 140 -160.001 140v20h400c53.333 0 80 -53.333 80 -160v-1058l462 590c22.667 28 34 52 34 72c0 37.333 -45.333 56 -136 56v20h340v-20c-44 0 -79.333 -7.33301 -106 -22
s-64 -52.667 -112 -114l-132 -168l282 -560c30.667 -64 55.334 -102.667 74.001 -116s50 -20 94 -20v-20h-380c-50.667 -0 -98 49.333 -142 148l-146 288l-132 -166v-110c0 -93.333 53.333 -140 160 -140v-20h-640v20c106.667 0 160 46.667 160 140v1200z" />
    <glyph glyph-name="kgreenlandic" unicode="&#x138;" horiz-adv-x="1340" 
d="M180 880c0 93.333 -53.334 140 -160.001 140v20h400c53.333 0 80 -53.333 80 -160v-578l462 590c22.667 28.667 34 52.667 34 72c0 37.333 -45.333 56 -136 56v20h340v-20c-44 0 -79.333 -7.33301 -106 -22c-26 -14.667 -63.333 -52.667 -112 -114l-132 -168l282 -560
c30.667 -64 55.334 -102.667 74.001 -116s50 -20 94 -20v-20h-380c-50.667 -0 -98 49.333 -142 148l-146 288l-132 -166v-110c0 -93.333 53.333 -140 160 -140v-20h-640v20c106.667 0 160 46.667 160 140v720z" />
    <glyph glyph-name="Lacute" unicode="&#x139;" 
d="M380 1440l20.001 60c49.333 142.667 82 224 98 244c8 10.667 15.333 16 22 16h260v-20c-6.66699 0 -20.334 -5 -41.001 -15c-22.667 -10.667 -42.667 -25 -60 -43l-239 -242h-60zM871.001 20c154 0 237 93.333 249 280h20v-300h-1098v20c97.333 0 150 35.333 158 106
v1074c0 93.333 -53.333 140 -160 140v20h640v-20c-105.333 0 -158 -46.667 -158 -140v-1180h349z" />
    <glyph glyph-name="lacute" unicode="&#x13a;" horiz-adv-x="700" 
d="M220 1600l20.001 60c49.333 142.667 82 224 98 244c8 10.667 15.333 16 22 16h260v-20c-6.66699 0 -20.334 -5 -41.001 -15c-22.667 -10.667 -42.667 -25 -60 -43l-239 -242h-60zM500.001 1360v-1200c0 -93.333 53.333 -140 160 -140v-20h-640v20
c106.667 0 160 46.667 160 140v1200c0 93.333 -53.333 140 -160 140v20h400c53.333 0 80 -53.333 80 -160z" />
    <glyph glyph-name="Lcommaaccent" unicode="&#x13b;" 
d="M440 -220c0 44 15.666 81.667 46.999 113s69 47 113 47s81.667 -15.667 113 -47s47 -69 47 -113c0 -98.667 -25.667 -180.667 -77 -246s-103.666 -98 -156.999 -98v20c29.333 0 57.333 14.333 84 43s40 55.667 40 81c0 26.667 -16.667 40 -50 40
c-44 0 -81.667 15.667 -113 47s-47 69 -47 113zM870.999 20c154 0 237 93.333 249 280h20v-300h-1098v20c97.333 0 150 35.333 158 106v1074c0 93.333 -53.333 140 -160 140v20h640v-20c-105.333 0 -158 -46.667 -158 -140v-1180h349z" />
    <glyph glyph-name="lcommaaccent" unicode="&#x13c;" horiz-adv-x="700" 
d="M180 -220c0 44 15.666 81.667 46.999 113s69 47 113 47s81.667 -15.667 113 -47s47 -69 47 -113c0 -98.667 -25.667 -180.667 -77 -246s-103.666 -98 -156.999 -98v20c29.333 0 57.333 14.333 84 43s40 55.667 40 81c0 26.667 -16.667 40 -50 40
c-44 0 -81.667 15.667 -113 47s-47 69 -47 113zM499.999 1360v-1200c0 -93.333 53.333 -140 160 -140v-20h-640v20c106.667 0 160 46.667 160 140v1200c0 93.333 -53.333 140 -160 140v20h400c53.333 0 80 -53.333 80 -160z" />
    <glyph glyph-name="Lcaron" unicode="&#x13d;" horiz-adv-x="1260" 
d="M900 1440c0 44 15.666 81.667 46.999 113s69 47 113 47s81.667 -15.667 113 -47s47 -69 47 -113c0 -98.667 -25.667 -180.667 -77 -246s-103.666 -98 -156.999 -98v20c29.333 0 57.333 14.333 84 43s40 55.667 40 81c0 26.667 -16.667 40 -50 40
c-44 0 -81.667 15.667 -113 47s-47 69 -47 113zM870.999 20c154 0 237 93.333 249 280h20v-300h-1098v20c97.333 0 150 35.333 158 106v1074c0 93.333 -53.333 140 -160 140v20h640v-20c-105.333 0 -158 -46.667 -158 -140v-1180h349z" />
    <glyph glyph-name="lcaron" unicode="&#x13e;" horiz-adv-x="960" 
d="M620 1440c0 44 15.666 81.667 46.999 113s69 47 113 47s81.667 -15.667 113 -47s47 -69 47 -113c0 -98.667 -25.667 -180.667 -77 -246s-103.666 -98 -156.999 -98v20c29.333 0 57.333 14.333 84 43s40 55.667 40 81c0 26.667 -16.667 40 -50 40
c-44 0 -81.667 15.667 -113 47s-47 69 -47 113zM499.999 1360v-1200c0 -93.333 53.333 -140 160 -140v-20h-640v20c106.667 0 160 46.667 160 140v1200c0 93.333 -53.333 140 -160 140v20h400c53.333 0 80 -53.333 80 -160z" />
    <glyph glyph-name="Ldot" unicode="&#x13f;" 
d="M840 685c0 44 15.667 81.667 47 113s69 47 113 47s81.667 -15.667 113 -47s47 -69 47 -113s-15.667 -81.667 -47 -113s-69 -47 -113 -47s-81.667 15.667 -113 47s-47 69 -47 113zM871 20c154 0 237 93.333 249 280h20v-300h-1098v20c97.333 0 150 35.333 158 106v1074
c0 93.333 -53.333 140 -160 140v20h640v-20c-105.333 0 -158 -46.667 -158 -140v-1180h349z" />
    <glyph glyph-name="ldot" unicode="&#x140;" horiz-adv-x="960" 
d="M600 720c0 44 15.667 81.667 47 113s69 47 113 47s81.667 -15.667 113 -47s47 -69 47 -113s-15.667 -81.667 -47 -113s-69 -47 -113 -47s-81.667 15.667 -113 47s-47 69 -47 113zM500 1360v-1200c0 -93.333 53.333 -140 160 -140v-20h-640v20
c106.667 0 160 46.667 160 140v1200c0 93.333 -53.333 140 -160 140v20h400c53.333 0 80 -53.333 80 -160z" />
    <glyph glyph-name="Lslash" unicode="&#x141;" 
d="M1140 0h-1098v20c97.333 0 150 35.333 158 106v242l-106 -106l-14 24l120 120v794c0 93.333 -53.333 140 -160 140v20h640v-20c-105.333 0 -158 -46.667 -158 -140v-473l376 375l14 -24l-390 -389v-669h351c152.667 0 235 93.333 247 280h20v-300z" />
    <glyph glyph-name="lslash" unicode="&#x142;" horiz-adv-x="700" 
d="M180 604v756c0 93.333 -53.333 140 -160 140v20h400c53.333 0 80 -53.333 80 -160v-438l148 148l14 -24l-162 -161v-725c0 -93.333 53.333 -140 160 -140v-20h-640v20c106.667 0 160 46.667 160 140v406l-136 -136l-14 24z" />
    <glyph glyph-name="Nacute" unicode="&#x143;" horiz-adv-x="1360" 
d="M668 1440l20.001 60c49.333 142.667 82 224 98 244c8 10.667 15.333 16 22 16h260v-20c-6.66699 0 -20.334 -5 -41.001 -15c-22.667 -10.667 -42.667 -25 -60 -43l-239 -242h-60zM1160 232v-232h-234l-706 1200v-1040c0 -93.333 53.333 -140 160 -140v-20h-340v20
c106.667 0 160 46.667 160 140v1040c0 93.333 -53.333 140 -160 140v20h456l644 -1094v934c0 93.333 -53.333 140 -160 140v20h340v-20c-106.667 0 -160 -46.667 -160 -140v-968z" />
    <glyph glyph-name="nacute" unicode="&#x144;" horiz-adv-x="1440" 
d="M626 1200l20.001 60c49.333 142.667 82 224 98 244c8 10.667 15.333 16 22 16h260v-20c-6.66699 0 -20.334 -5 -41.001 -15c-22.667 -10.667 -42.667 -25 -60 -43l-239 -242h-60zM520.001 880l-0.000976562 -720c0 -93.333 53.333 -140 160 -140v-20h-640v20
c106.667 0 160 46.667 160 140v720c0 93.333 -53.333 140 -160 140v20h400c12 0 26.333 -10.333 43 -31s26.334 -31 29.001 -31c72 48 141.333 72 208 72c346.667 0 520 -123.333 520 -370v-520c0 -93.333 53.333 -140 160 -140v-20h-640v20c106.667 0 160 46.667 160 140
v500c0 246.667 -66.667 370 -200 370c-69.333 0 -137.333 -24.667 -204 -74c2.66699 -24 4 -49.333 4 -76z" />
    <glyph glyph-name="Ncommaaccent" unicode="&#x145;" horiz-adv-x="1360" 
d="M520 -220c0 44 15.666 81.667 46.999 113s69 47 113 47s81.667 -15.667 113 -47s47 -69 47 -113c0 -98.667 -25.667 -180.667 -77 -246s-103.666 -98 -156.999 -98v20c29.333 0 57.333 14.333 84 43s40 55.667 40 81c0 26.667 -16.667 40 -50 40
c-44 0 -81.667 15.667 -113 47s-47 69 -47 113zM1160 232v-232h-234l-706 1200v-1040c0 -93.333 53.333 -140 160 -140v-20h-340v20c106.667 0 160 46.667 160 140v1040c0 93.333 -53.333 140 -160 140v20h456l644 -1094v934c0 93.333 -53.333 140 -160 140v20h340v-20
c-106.667 0 -160 -46.667 -160 -140v-968z" />
    <glyph glyph-name="ncommaaccent" unicode="&#x146;" horiz-adv-x="1440" 
d="M560 -220c0 44 15.666 81.667 46.999 113s69 47 113 47s81.667 -15.667 113 -47s47 -69 47 -113c0 -98.667 -25.667 -180.667 -77 -246s-103.666 -98 -156.999 -98v20c29.333 0 57.333 14.333 84 43s40 55.667 40 81c0 26.667 -16.667 40 -50 40
c-44 0 -81.667 15.667 -113 47s-47 69 -47 113zM519.999 880l-0.000976562 -720c0 -93.333 53.333 -140 160 -140v-20h-640v20c106.667 0 160 46.667 160 140v720c0 93.333 -53.333 140 -160 140v20h400c12 0 26.333 -10.333 43 -31s26.334 -31 29.001 -31
c72 48 141.333 72 208 72c346.667 0 520 -123.333 520 -370v-520c0 -93.333 53.333 -140 160 -140v-20h-640v20c106.667 0 160 46.667 160 140v500c0 246.667 -66.667 370 -200 370c-69.333 0 -137.333 -24.667 -204 -74c2.66699 -24 4 -49.333 4 -76z" />
    <glyph glyph-name="Ncaron" unicode="&#x147;" horiz-adv-x="1360" 
d="M680 1520c20 0 52 17.333 96 52l234 188h30l-200 -320h-320l-200 320h30l236 -188c44 -34.667 75.333 -52 94 -52zM1160 232v-232h-234l-706 1200v-1040c0 -93.333 53.333 -140 160 -140v-20h-340v20c106.667 0 160 46.667 160 140v1040c0 93.333 -53.333 140 -160 140
v20h456l644 -1094v934c0 93.333 -53.333 140 -160 140v20h340v-20c-106.667 0 -160 -46.667 -160 -140v-968z" />
    <glyph glyph-name="ncaron" unicode="&#x148;" horiz-adv-x="1440" 
d="M720 1280c20 0 52 17.333 96 52l234 188h30l-200 -320h-320l-200 320h30l236 -188c44 -34.667 75.333 -52 94 -52zM520 880l-0.000976562 -720c0 -93.333 53.333 -140 160 -140v-20h-640v20c106.667 0 160 46.667 160 140v720c0 93.333 -53.333 140 -160 140v20h400
c12 0 26.333 -10.333 43 -31s26.334 -31 29.001 -31c72 48 141.333 72 208 72c346.667 0 520 -123.333 520 -370v-520c0 -93.333 53.333 -140 160 -140v-20h-640v20c106.667 0 160 46.667 160 140v500c0 246.667 -66.667 370 -200 370c-69.333 0 -137.333 -24.667 -204 -74
c2.66699 -24 4 -49.333 4 -76z" />
    <glyph glyph-name="napostrophe" unicode="&#x149;" horiz-adv-x="1600" 
d="M200 1040h399.999c12 0 26.333 -10.333 43 -31s26.334 -31 29.001 -31c72 48 141.333 72 208 72c346.667 0 520 -123.333 520 -370v-520c0 -93.333 53.333 -140 160 -140v-20h-640v20c106.667 0 160 46.667 160 140v500c0 246.667 -66.667 370 -200 370
c-69.333 0 -137.333 -24.667 -204 -74c2.66699 -24 4 -49.333 4 -76v-720c0 -93.333 53.333 -140 160 -140v-20h-640v20c106.667 0 160 46.667 160 140v720c0 93.333 -53.333 140 -160 140v20zM19.999 1440c0 44 15.666 81.667 46.999 113s69 47 113 47
s81.667 -15.667 113 -47s47 -69 47 -113c0 -98.667 -25.667 -180.667 -77 -246s-103.666 -98 -156.999 -98v20c29.333 0 57.333 14.333 84 43s40 55.667 40 81c0 26.667 -16.667 40 -50 40c-44 0 -81.667 15.667 -113 47s-47 69 -47 113z" />
    <glyph glyph-name="Eng" unicode="&#x14a;" horiz-adv-x="1400" 
d="M1320 100c0 -149.333 -39.6709 -270.001 -119.004 -362.001s-199.666 -138 -360.999 -138c-92 0 -155.333 38.667 -190 116l18 8c30.667 -69.333 88 -104 172 -104c66.667 0 111.334 41.333 134.001 124c14.667 54.667 23.334 173.334 26.001 356.001v880
c0 246.667 -80 370 -240 370c-96 0 -177.333 -24.667 -244 -74c2.66699 -24 4 -49.333 4 -76v-1040c0 -93.333 53.333 -140 160 -140v-20h-640v20c106.667 0 160 46.667 160 140v1040c0 93.333 -53.333 140 -160 140v20h400c12 0 26.333 -10.333 43 -31
s26.334 -31 29.001 -31c72 48 154.667 72 248 72c373.333 0 560 -123.333 560 -370v-900z" />
    <glyph glyph-name="eng" unicode="&#x14b;" horiz-adv-x="1330" 
d="M1240 100c0 -149.333 -39.6709 -270.001 -119.004 -362.001s-199.666 -138 -360.999 -138c-92 0 -155.333 38.667 -190 116l18 8c30.667 -69.333 88 -104 172 -104c66.667 0 111.334 41.333 134.001 124c14.667 54.667 23.334 173.334 26.001 356.001v560
c0 246.667 -66.667 370 -200 370c-69.333 0 -137.333 -24.667 -204 -74c2.66699 -24 4 -49.333 4 -76v-720c0 -93.333 53.333 -140 160 -140v-20h-640v20c106.667 0 160 46.667 160 140v720c0 93.333 -53.333 140 -160 140v20h400c12 0 26.333 -10.333 43 -31
s26.334 -31 29.001 -31c72 48 141.333 72 208 72c346.667 0 520 -123.333 520 -370v-580z" />
    <glyph glyph-name="Omacron" unicode="&#x14c;" horiz-adv-x="1260" 
d="M1000 1580h-720l10 100h720zM620 1370c173.333 0 316.665 -67 429.998 -201s170 -297 170 -489s-56.667 -355 -170 -489s-256.666 -201 -429.999 -201s-316.666 67 -429.999 201s-170 297 -170 489s56 355 168 489s256 201 432 201zM619.999 1350
c-96 0 -166.667 -45.333 -212 -136c-45.333 -92 -68 -270 -68 -534s22.667 -442 68 -534c45.333 -90.667 116 -136 212 -136s166.667 45.333 212 136c45.333 92 68 270 68 534s-22.667 442 -68 534c-45.333 90.667 -116 136 -212 136z" />
    <glyph glyph-name="omacron" unicode="&#x14d;" 
d="M981 1280h-720l10 100h720zM600 10c101.333 0 166.666 35.333 195.999 106c29.333 72 44 206.667 44 404s-14.667 332 -44 404c-29.333 70.667 -94.666 106 -195.999 106c-114.667 0 -184.667 -44 -210 -132c-20 -70.667 -30 -196.667 -30 -378s10 -307.333 30 -378
c25.333 -88 95.333 -132 210 -132zM600 -10c-180 0 -318.667 46 -416 138c-96 92 -144 222.667 -144 392c0 168 48.667 298.667 146 392c97.333 92 235.333 138 414 138s316.667 -46 414 -138c97.333 -93.333 146 -224 146 -392c0 -169.333 -48 -300 -144 -392
c-97.333 -92 -236 -138 -416 -138z" />
    <glyph glyph-name="Obreve" unicode="&#x14e;" horiz-adv-x="1260" 
d="M260 1760h40c69.333 -101.333 176 -152 320 -152s250.667 50.667 320 152h40c-110.667 -213.333 -230.667 -320 -360 -320c-128 0 -248 106.667 -360 320zM620 1370c173.333 0 316.665 -67 429.998 -201s170 -297 170 -489s-56.667 -355 -170 -489
s-256.666 -201 -429.999 -201s-316.666 67 -429.999 201s-170 297 -170 489s56 355 168 489s256 201 432 201zM619.999 1350c-96 0 -166.667 -45.333 -212 -136c-45.333 -92 -68 -270 -68 -534s22.667 -442 68 -534c45.333 -90.667 116 -136 212 -136
s166.667 45.333 212 136c45.333 92 68 270 68 534s-22.667 442 -68 534c-45.333 90.667 -116 136 -212 136z" />
    <glyph glyph-name="obreve" unicode="&#x14f;" 
d="M260 1520h40c69.333 -101.333 176 -152 320 -152s250.667 50.667 320 152h40c-110.667 -213.333 -230.667 -320 -360 -320c-128 0 -248 106.667 -360 320zM600 10c101.333 0 166.666 35.333 195.999 106c29.333 72 44 206.667 44 404s-14.667 332 -44 404
c-29.333 70.667 -94.666 106 -195.999 106c-114.667 0 -184.667 -44 -210 -132c-20 -70.667 -30 -196.667 -30 -378s10 -307.333 30 -378c25.333 -88 95.333 -132 210 -132zM600 -10c-180 0 -318.667 46 -416 138c-96 92 -144 222.667 -144 392
c0 168 48.667 298.667 146 392c97.333 92 235.333 138 414 138s316.667 -46 414 -138c97.333 -93.333 146 -224 146 -392c0 -169.333 -48 -300 -144 -392c-97.333 -92 -236 -138 -416 -138z" />
    <glyph glyph-name="Ohungarumlaut" unicode="&#x150;" horiz-adv-x="1260" 
d="M300 1440l20.001 60c49.333 142.667 82 224 98 244c8 10.667 15.333 16 22 16h260v-20c-6.66699 0 -20.334 -5 -41.001 -15c-22.667 -10.667 -42.667 -25 -60 -43l-239 -242h-60zM780.001 1440l20.001 60c49.333 142.667 82 224 98 244c8 10.667 15.333 16 22 16h260v-20
c-6.66699 0 -20.334 -5 -41.001 -15c-22.667 -10.667 -42.667 -25 -60 -43l-239 -242h-60zM620.002 1370c173.333 0 316.665 -67 429.998 -201s170 -297 170 -489s-56.667 -355 -170 -489s-256.666 -201 -429.999 -201s-316.666 67 -429.999 201s-170 297 -170 489
s56 355 168 489s256 201 432 201zM620.001 1350c-96 0 -166.667 -45.333 -212 -136c-45.333 -92 -68 -270 -68 -534s22.667 -442 68 -534c45.333 -90.667 116 -136 212 -136s166.667 45.333 212 136c45.333 92 68 270 68 534s-22.667 442 -68 534
c-45.333 90.667 -116 136 -212 136z" />
    <glyph glyph-name="ohungarumlaut" unicode="&#x151;" 
d="M260 1200l20.001 60c49.333 142.667 82 224 98 244c8 10.667 15.333 16 22 16h260v-20c-6.66699 0 -20.334 -5 -41.001 -15c-22.667 -10.667 -42.667 -25 -60 -43l-239 -242h-60zM740.001 1200l20.001 60c49.333 142.667 82 224 98 244c8 10.667 15.333 16 22 16h260v-20
c-6.66699 0 -20.334 -5 -41.001 -15c-22.667 -10.667 -42.667 -25 -60 -43l-239 -242h-60zM600.002 10c101.333 0 166.666 35.333 195.999 106c29.333 72 44 206.667 44 404s-14.667 332 -44 404c-29.333 70.667 -94.666 106 -195.999 106
c-114.667 0 -184.667 -44 -210 -132c-20 -70.667 -30 -196.667 -30 -378s10 -307.333 30 -378c25.333 -88 95.333 -132 210 -132zM600.002 -10c-180 0 -318.667 46 -416 138c-96 92 -144 222.667 -144 392c0 168 48.667 298.667 146 392c97.333 92 235.333 138 414 138
s316.667 -46 414 -138c97.333 -93.333 146 -224 146 -392c0 -169.333 -48 -300 -144 -392c-97.333 -92 -236 -138 -416 -138z" />
    <glyph glyph-name="OE" unicode="&#x152;" horiz-adv-x="1900" 
d="M620 1360h1200v-300h-20c-12 186.667 -95.333 280 -250 280h-370v-560h178c93.333 0 140 53.333 140 160h20v-340h-20c0 106.667 -46.667 160 -140 160h-178v-740h390c154.667 0 238 93.333 250 280h20v-300h-1220c-173.333 0 -316.666 67 -429.999 201
s-170 293.667 -170 479s56 345 168 479s256 201 432 201zM619.999 1340c-96 0 -166.668 -45.333 -212.001 -136c-45.333 -92 -68 -266.667 -68 -524s22.667 -432 68 -524c45.333 -90.667 116 -136 212 -136c102.667 0 173.334 45.333 212.001 136
c18.667 44 28 218.667 28 524c0 311.333 -9.33301 486 -28 524c-45.333 90.667 -116 136 -212 136z" />
    <glyph glyph-name="oe" unicode="&#x153;" horiz-adv-x="2000" 
d="M1160 540l479.999 -0.000976562c0 202.667 -10 325.334 -30 368.001c-37.333 81.333 -107.333 122 -210 122c-101.333 0 -166.666 -34 -195.999 -102c-29.333 -70.667 -44 -200 -44 -388zM599.999 1030c-114.667 0 -184.668 -44 -210.001 -132
c-20 -70.667 -30 -196.667 -30 -378c0 -236 13.333 -372.667 40 -410c49.333 -66.667 116 -100 200 -100s150.667 33.333 200 100c26.667 37.333 40 174 40 410c0 197.333 -14.667 332 -44 404c-29.333 70.667 -94.666 106 -195.999 106zM599.998 -10.001
c-180 0 -318.667 46 -416 138c-96 92 -144 222.667 -144 392c0 168 48.667 298.667 146 392c97.333 92 235.333 138 414 138c170 0 303.333 -41.667 400 -125c96.667 83.333 230 125 400 125c178.667 0 316.667 -46 414 -138c97.333 -93.333 146 -224 146 -392h-800
c0 -236 13.333 -372.667 40 -410c49.333 -66.667 116 -100 200 -100c100 0 194 24.667 282 74s158 114 210 194l16 -10c-53.333 -84 -125.333 -151.333 -216 -202s-188 -76 -292 -76c-170.667 0 -304 41.333 -400 124c-96 -82.667 -229.333 -124 -400 -124z" />
    <glyph glyph-name="Racute" unicode="&#x154;" horiz-adv-x="1460" 
d="M550 1440l20.001 60c49.333 142.667 82 224 98 244c8 10.667 15.333 16 22 16h260v-20c-6.66699 0 -20.334 -5 -41.001 -15c-22.667 -10.667 -42.667 -25 -60 -43l-239 -242h-60zM520.001 1340v-760h200c186.667 0 280 126.667 280 380s-93.333 380 -280 380h-200z
M40.001 1360l679.999 -0.000976562c182.667 0 328.334 -34.667 437.001 -104s163 -169.333 163 -300c0 -76 -27.333 -144.667 -82 -206s-128.667 -108.666 -222 -141.999l218 -452c21.333 -44 42 -76 62 -96c26.667 -26.667 68 -40 124 -40v-20h-380
c-50.667 -0 -98 49.333 -142 148l-198 412h-180v-400c0 -93.333 53.333 -140 160 -140v-20h-640v20c106.667 0 160 46.667 160 140v1058c-4 81.333 -57.333 122 -160 122v20z" />
    <glyph glyph-name="racute" unicode="&#x155;" horiz-adv-x="1180" 
d="M440 1200l20.001 60c49.333 142.667 82 224 98 244c8 10.667 15.333 16 22 16h260v-20c-6.66699 0 -20.334 -5 -41.001 -15c-22.667 -10.667 -42.667 -25 -60 -43l-239 -242h-60zM1160 850c0 -42.667 -15.334 -80 -46.001 -112s-68.667 -48 -114 -48
c-42.667 0 -80 15.333 -112 46s-48 68.667 -48 114l8 80c0 53.333 -25.333 80 -76 80c-90.667 0 -174.667 -44 -252 -132v-718c0 -93.333 53.333 -140 160 -140v-20h-640v20c106.667 0 160 46.667 160 140v720c0 93.333 -53.333 140 -160 140v20h400c12 0 24 -10.667 36 -32
c14.667 -22.667 25.334 -44 32.001 -64l12 -34c52 48 98.667 82 140 102c53.333 25.333 128 38 224 38c72 0 136 -17.333 192 -52s84 -84 84 -148z" />
    <glyph glyph-name="Rcommaaccent" unicode="&#x156;" horiz-adv-x="1460" 
d="M570 -220c0 44 15.666 81.667 46.999 113s69 47 113 47s81.667 -15.667 113 -47s47 -69 47 -113c0 -98.667 -25.667 -180.667 -77 -246s-103.666 -98 -156.999 -98v20c29.333 0 57.333 14.333 84 43s40 55.667 40 81c0 26.667 -16.667 40 -50 40
c-44 0 -81.667 15.667 -113 47s-47 69 -47 113zM519.999 1340v-760h200c186.667 0 280 126.667 280 380s-93.333 380 -280 380h-200zM39.999 1360l679.999 -0.000976562c182.667 0 328.334 -34.667 437.001 -104s163 -169.333 163 -300c0 -76 -27.333 -144.667 -82 -206
s-128.667 -108.666 -222 -141.999l218 -452c21.333 -44 42 -76 62 -96c26.667 -26.667 68 -40 124 -40v-20h-380c-50.667 -0 -98 49.333 -142 148l-198 412h-180v-400c0 -93.333 53.333 -140 160 -140v-20h-640v20c106.667 0 160 46.667 160 140v1058
c-4 81.333 -57.333 122 -160 122v20z" />
    <glyph glyph-name="rcommaaccent" unicode="&#x157;" horiz-adv-x="1180" 
d="M440 -220c0 44 15.666 81.667 46.999 113s69 47 113 47s81.667 -15.667 113 -47s47 -69 47 -113c0 -98.667 -25.667 -180.667 -77 -246s-103.666 -98 -156.999 -98v20c29.333 0 57.333 14.333 84 43s40 55.667 40 81c0 26.667 -16.667 40 -50 40
c-44 0 -81.667 15.667 -113 47s-47 69 -47 113zM1160 850c0 -42.667 -15.334 -80 -46.001 -112s-68.667 -48 -114 -48c-42.667 0 -80 15.333 -112 46s-48 68.667 -48 114l8 80c0 53.333 -25.333 80 -76 80c-90.667 0 -174.667 -44 -252 -132v-718
c0 -93.333 53.333 -140 160 -140v-20h-640v20c106.667 0 160 46.667 160 140v720c0 93.333 -53.333 140 -160 140v20h400c12 0 24 -10.667 36 -32c14.667 -22.667 25.334 -44 32.001 -64l12 -34c52 48 98.667 82 140 102c53.333 25.333 128 38 224 38
c72 0 136 -17.333 192 -52s84 -84 84 -148z" />
    <glyph glyph-name="Rcaron" unicode="&#x158;" horiz-adv-x="1460" 
d="M710 1520c20 0 52 17.333 96 52l234 188h30l-200 -320h-320l-200 320h30l236 -188c44 -34.667 75.333 -52 94 -52zM520 1340v-760h200c186.667 0 280 126.667 280 380s-93.333 380 -280 380h-200zM40 1360l679.999 -0.000976562c182.667 0 328.334 -34.667 437.001 -104
s163 -169.333 163 -300c0 -76 -27.333 -144.667 -82 -206s-128.667 -108.666 -222 -141.999l218 -452c21.333 -44 42 -76 62 -96c26.667 -26.667 68 -40 124 -40v-20h-380c-50.667 -0 -98 49.333 -142 148l-198 412h-180v-400c0 -93.333 53.333 -140 160 -140v-20h-640v20
c106.667 0 160 46.667 160 140v1058c-4 81.333 -57.333 122 -160 122v20z" />
    <glyph glyph-name="rcaron" unicode="&#x159;" horiz-adv-x="1180" 
d="M580 1280c20 0 52 17.333 96 52l234 188h30l-200 -320h-320l-200 320h30l236 -188c44 -34.667 75.333 -52 94 -52zM1160 850c0 -42.667 -15.334 -80 -46.001 -112s-68.667 -48 -114 -48c-42.667 0 -80 15.333 -112 46s-48 68.667 -48 114l8 80
c0 53.333 -25.333 80 -76 80c-90.667 0 -174.667 -44 -252 -132v-718c0 -93.333 53.333 -140 160 -140v-20h-640v20c106.667 0 160 46.667 160 140v720c0 93.333 -53.333 140 -160 140v20h400c12 0 24 -10.667 36 -32c14.667 -22.667 25.334 -44 32.001 -64l12 -34
c52 48 98.667 82 140 102c53.333 25.333 128 38 224 38c72 0 136 -17.333 192 -52s84 -84 84 -148z" />
    <glyph glyph-name="Sacute" unicode="&#x15a;" horiz-adv-x="1010" 
d="M402 1440l20.001 60c49.333 142.667 82 224 98 244c8 10.667 15.333 16 22 16h260v-20c-6.66699 0 -20.334 -5 -41.001 -15c-22.667 -10.667 -42.667 -25 -60 -43l-239 -242h-60zM507.001 1370c64 0 119 -8.66406 165 -25.9971c42.667 -16.667 82.667 -25 120 -25
c38 0 57 13.667 57 41h20l18 -308h-20c0 21.333 -5 46.666 -15 75.999s-26.667 61.666 -50 96.999s-60.333 65 -111 89s-110.667 36 -180 36c-136 0 -204 -47 -204 -141c0 -87.333 39.667 -164.333 119 -231l382 -322c114.667 -96.667 172 -206.667 172 -330
c0 -106 -56.667 -190.667 -170 -254c-96 -54.667 -218 -82 -366 -82c-100 0 -186 24 -258 72c-20 13.333 -38.667 20 -56 20c-28.667 0 -50 -16 -64 -48c-4 -9.33301 -6 -20.666 -6 -33.999h-20l6 312h20c0 -16 3.33301 -35 10 -57c16.667 -55.333 52 -108 106 -158
c26.667 -24.667 63 -45.334 109 -62.001s97 -25 153 -25c73.333 0 132.333 18.333 177 55c46 38 69 84.333 69 139c0 87.333 -28 154.666 -84 201.999l-382 322c-118 99.333 -177 210 -177 332c0 94.667 48.333 171.667 145 231c85.333 52.667 190.333 79 315 79z" />
    <glyph glyph-name="sacute" unicode="&#x15b;" horiz-adv-x="984" 
d="M410 1200l20.001 60c49.333 142.667 82 224 98 244c8 10.667 15.333 16 22 16h260v-20c-6.66699 0 -20.334 -5 -41.001 -15c-22.667 -10.667 -42.667 -25 -60 -43l-239 -242h-60zM842.001 1030l20 0.000976562l18 -282h-20c-5.33301 50 -27.666 104 -66.999 162
c-23.333 34 -60.333 62.5 -111 85.5s-110.667 34.5 -180 34.5c-62.667 0 -112.334 -16.333 -149.001 -49s-55 -67 -55 -103c0 -45.333 15.333 -79.333 46 -102c28 -21.333 65.333 -44 112 -68l300 -140c125.333 -66.667 188 -153.334 188 -260.001
c0 -212 -160 -318 -480 -318c-50 0 -97.333 6.66699 -142 20c-61.333 18.667 -116 47.334 -164 86.001c-16.667 13.333 -33.334 20 -50.001 20c-33.333 0 -50 -37.333 -50 -112h-20l8 308h20c0 -20 7.33301 -45.333 22 -76c42 -87.333 105 -150 189 -188
c56 -25.333 118.333 -38 187 -38c136 0 204 50.667 204 152c0 72 -40 128.667 -120 170l-282 128c-69.333 31.333 -122.333 70.666 -159 117.999c-34 44.667 -51 96.667 -51 156c0 98.667 41 176 123 232c80.667 56 188.334 84 323.001 84c64 0 119 -8.66699 165 -26
c42.667 -16.667 81.5 -25 116.5 -25s54.5 10.333 58.5 31z" />
    <glyph glyph-name="Scircumflex" unicode="&#x15c;" horiz-adv-x="1010" 
d="M490 1680c-18.667 0 -50 -17.333 -94 -52l-236 -188h-30l200 320h320l200 -320h-30l-234 188c-44 34.667 -76 52 -96 52zM507 1370c64 0 119 -8.66406 165 -25.9971c42.667 -16.667 82.667 -25 120 -25c38 0 57 13.667 57 41h20l18 -308h-20
c0 21.333 -5 46.666 -15 75.999s-26.667 61.666 -50 96.999s-60.333 65 -111 89s-110.667 36 -180 36c-136 0 -204 -47 -204 -141c0 -87.333 39.667 -164.333 119 -231l382 -322c114.667 -96.667 172 -206.667 172 -330c0 -106 -56.667 -190.667 -170 -254
c-96 -54.667 -218 -82 -366 -82c-100 0 -186 24 -258 72c-20 13.333 -38.667 20 -56 20c-28.667 0 -50 -16 -64 -48c-4 -9.33301 -6 -20.666 -6 -33.999h-20l6 312h20c0 -16 3.33301 -35 10 -57c16.667 -55.333 52 -108 106 -158c26.667 -24.667 63 -45.334 109 -62.001
s97 -25 153 -25c73.333 0 132.333 18.333 177 55c46 38 69 84.333 69 139c0 87.333 -28 154.666 -84 201.999l-382 322c-118 99.333 -177 210 -177 332c0 94.667 48.333 171.667 145 231c85.333 52.667 190.333 79 315 79z" />
    <glyph glyph-name="scircumflex" unicode="&#x15d;" horiz-adv-x="984" 
d="M491 1440c-18.667 0 -50 -17.333 -94 -52l-236 -188h-30l200 320h320l200 -320h-30l-234 188c-44 34.667 -76 52 -96 52zM842 1030l20 0.000976562l18 -282h-20c-5.33301 50 -27.666 104 -66.999 162c-23.333 34 -60.333 62.5 -111 85.5s-110.667 34.5 -180 34.5
c-62.667 0 -112.334 -16.333 -149.001 -49s-55 -67 -55 -103c0 -45.333 15.333 -79.333 46 -102c28 -21.333 65.333 -44 112 -68l300 -140c125.333 -66.667 188 -153.334 188 -260.001c0 -212 -160 -318 -480 -318c-50 0 -97.333 6.66699 -142 20
c-61.333 18.667 -116 47.334 -164 86.001c-16.667 13.333 -33.334 20 -50.001 20c-33.333 0 -50 -37.333 -50 -112h-20l8 308h20c0 -20 7.33301 -45.333 22 -76c42 -87.333 105 -150 189 -188c56 -25.333 118.333 -38 187 -38c136 0 204 50.667 204 152
c0 72 -40 128.667 -120 170l-282 128c-69.333 31.333 -122.333 70.666 -159 117.999c-34 44.667 -51 96.667 -51 156c0 98.667 41 176 123 232c80.667 56 188.334 84 323.001 84c64 0 119 -8.66699 165 -26c42.667 -16.667 81.5 -25 116.5 -25s54.5 10.333 58.5 31z" />
    <glyph glyph-name="Scedilla" unicode="&#x15e;" horiz-adv-x="1010" 
d="M507 1370c64 0 119.001 -8.66406 165.001 -25.9971c42.667 -16.667 82.667 -25 120 -25c38 0 57 13.667 57 41h20l18 -308h-20c0 21.333 -5 46.666 -15 75.999s-26.667 61.666 -50 96.999s-60.333 65 -111 89s-110.667 36 -180 36c-136 0 -204 -47 -204 -141
c0 -87.333 39.667 -164.333 119 -231l382 -322c114.667 -96.667 172 -206.667 172 -330c0 -105.333 -56.667 -190 -170 -254c-93.333 -52.667 -210.333 -80 -351 -82l-18 -79c20.667 9.33301 46 14 76 14c71.333 0 134.333 -26 189 -78
c36.667 -35.333 55 -74.666 55 -117.999c0 -58.667 -29.333 -106.334 -88 -143.001c-44 -27.333 -94.333 -41 -151 -41c-76 0 -142.667 32 -200 96l3 22c59.333 -64.667 119.666 -97 180.999 -97c88.667 0 133 69.333 133 208c0 86 -40.333 129 -121 129
c-46 0 -82.667 -11.333 -110 -34l27 121c-96 1.33301 -179 25.333 -249 72c-20 13.333 -38.667 20 -56 20c-28.667 0 -50 -16 -64 -48c-4 -9.33301 -6 -20.666 -6 -33.999h-20l6 312h20c0 -16 3.33301 -35 10 -57c16.667 -55.333 52 -108 106 -158
c26.667 -24.667 63 -45.334 109 -62.001s97 -25 153 -25c73.333 0 132.333 18.333 177 55c46 38 69 84.333 69 139c0 87.333 -28 154.666 -84 201.999l-382 322c-118 99.333 -177 210 -177 332c0 94.667 48.333 171.667 145 231c85.333 52.667 190.333 79 315 79z" />
    <glyph glyph-name="scedilla" unicode="&#x15f;" horiz-adv-x="984" 
d="M842 1030l20.0039 0.00195312l18 -282h-20c-5.33301 50 -27.666 104 -66.999 162c-23.333 34 -60.333 62.5 -111 85.5s-110.667 34.5 -180 34.5c-62.667 0 -112.334 -16.333 -149.001 -49s-55 -67 -55 -103c0 -45.333 15.333 -79.333 46 -102
c28 -21.333 65.333 -44 112 -68l300 -140c125.333 -66.667 188 -153.334 188 -260.001c0 -212 -160 -318 -480 -318h-3l-17 -79c20.667 9.33301 46 14 76 14c71.333 0 134.333 -26 189 -78c36.667 -35.333 55 -74.666 55 -117.999c0 -58.667 -29.333 -106.334 -88 -143.001
c-44 -27.333 -94.333 -41 -151 -41c-76 0 -142.667 32 -200 96l3 22c59.333 -64.667 119.666 -97 180.999 -97c88.667 0 133 69.333 133 208c0 86 -40.333 129 -121 129c-46 0 -82.667 -11.333 -110 -34l27 122c-40.667 1.33301 -79.334 7.66602 -116.001 18.999
c-60.667 18.667 -115.334 47.334 -164.001 86.001c-16.667 13.333 -33.334 20 -50.001 20c-33.333 0 -50 -37.333 -50 -112h-20l8 308h20c0 -20 7.33301 -45.333 22 -76c42 -87.333 105 -150 189 -188c56 -25.333 118.333 -38 187 -38c136 0 204 50.667 204 152
c0 72 -40 128.667 -120 170l-282 128c-69.333 31.333 -122.333 70.666 -159 117.999c-34 44.667 -51 96.667 -51 156c0 98 41 175.333 123 232c81.333 56 189 84 323 84c64 0 119 -8.66699 165 -26c42.667 -16.667 81.5 -25 116.5 -25s54.5 10.333 58.5 31z" />
    <glyph glyph-name="Scaron" unicode="&#x160;" horiz-adv-x="1010" 
d="M490 1520c20 0 52 17.333 96 52l234 188h30l-200 -320h-320l-200 320h30l236 -188c44 -34.667 75.333 -52 94 -52zM507 1370c64 0 119 -8.66406 165 -25.9971c42.667 -16.667 82.667 -25 120 -25c38 0 57 13.667 57 41h20l18 -308h-20c0 21.333 -5 46.666 -15 75.999
s-26.667 61.666 -50 96.999s-60.333 65 -111 89s-110.667 36 -180 36c-136 0 -204 -47 -204 -141c0 -87.333 39.667 -164.333 119 -231l382 -322c114.667 -96.667 172 -206.667 172 -330c0 -106 -56.667 -190.667 -170 -254c-96 -54.667 -218 -82 -366 -82
c-100 0 -186 24 -258 72c-20 13.333 -38.667 20 -56 20c-28.667 0 -50 -16 -64 -48c-4 -9.33301 -6 -20.666 -6 -33.999h-20l6 312h20c0 -16 3.33301 -35 10 -57c16.667 -55.333 52 -108 106 -158c26.667 -24.667 63 -45.334 109 -62.001s97 -25 153 -25
c73.333 0 132.333 18.333 177 55c46 38 69 84.333 69 139c0 87.333 -28 154.666 -84 201.999l-382 322c-118 99.333 -177 210 -177 332c0 94.667 48.333 171.667 145 231c85.333 52.667 190.333 79 315 79z" />
    <glyph glyph-name="scaron" unicode="&#x161;" horiz-adv-x="984" 
d="M491 1280c20 0 52 17.333 96 52l234 188h30l-200 -320h-320l-200 320h30l236 -188c44 -34.667 75.333 -52 94 -52zM842 1030l20 0.000976562l18 -282h-20c-5.33301 50 -27.666 104 -66.999 162c-23.333 34 -60.333 62.5 -111 85.5s-110.667 34.5 -180 34.5
c-62.667 0 -112.334 -16.333 -149.001 -49s-55 -67 -55 -103c0 -45.333 15.333 -79.333 46 -102c28 -21.333 65.333 -44 112 -68l300 -140c125.333 -66.667 188 -153.334 188 -260.001c0 -212 -160 -318 -480 -318c-50 0 -97.333 6.66699 -142 20
c-61.333 18.667 -116 47.334 -164 86.001c-16.667 13.333 -33.334 20 -50.001 20c-33.333 0 -50 -37.333 -50 -112h-20l8 308h20c0 -20 7.33301 -45.333 22 -76c42 -87.333 105 -150 189 -188c56 -25.333 118.333 -38 187 -38c136 0 204 50.667 204 152
c0 72 -40 128.667 -120 170l-282 128c-69.333 31.333 -122.333 70.666 -159 117.999c-34 44.667 -51 96.667 -51 156c0 98.667 41 176 123 232c80.667 56 188.334 84 323.001 84c64 0 119 -8.66699 165 -26c42.667 -16.667 81.5 -25 116.5 -25s54.5 10.333 58.5 31z" />
    <glyph glyph-name="Tcedilla" unicode="&#x162;" 
d="M310 1340c-154.667 0 -237.999 -93.333 -249.999 -280h-20v300h1120v-300h-20c-12 186.667 -95 280 -249 280h-131v-1180c0 -93.333 53.333 -140 160 -140v-20h-371l-18 -78c20.667 9.33301 46 14 76 14c71.333 0 134.333 -26 189 -78
c36.667 -35.333 55 -74.666 55 -117.999c0 -58.667 -29.333 -106.334 -88 -143.001c-44 -27.333 -94.333 -41 -151 -41c-76 0 -142.667 32 -200 96l3 22c59.333 -64.667 119.666 -97 180.999 -97c88.667 0 133 69.333 133 208c0 86 -40.333 129 -121 129
c-46 0 -82.667 -11.333 -110 -34l27 120h-245v20c106.667 0 160 46.667 160 140v1180h-130z" />
    <glyph glyph-name="tcedilla" unicode="&#x163;" horiz-adv-x="790" 
d="M414 12c-182.667 56 -273.998 215.333 -273.998 478v390c0 93.333 -53.333 140 -160 140v20h88c128 0 192 93.333 192 280h200v-280h280v-20h-280v-805c0 -136.667 40 -205 120 -205c82.667 0 140 34.667 172 104l18 -8c-34.667 -77.333 -98 -116 -190 -116
c-52.667 0 -100.334 5.33301 -143.001 16l-21 -91c20.667 9.33301 46 14 76 14c71.333 0 134.333 -26 189 -78c36.667 -35.333 55 -74.666 55 -117.999c0 -58.667 -29.333 -106.334 -88 -143.001c-44 -27.333 -94.333 -41 -151 -41c-76 0 -142.667 32 -200 96l3 22
c59.333 -64.667 119.666 -97 180.999 -97c88.667 0 133 69.333 133 208c0 86 -40.333 129 -121 129c-46 0 -82.667 -11.333 -110 -34zM414.002 12z" />
    <glyph glyph-name="Tcaron" unicode="&#x164;" 
d="M600 1520c20 0 52 17.333 96 52l234 188h30l-200 -320h-320l-200 320h30l236 -188c44 -34.667 75.333 -52 94 -52zM310 1340c-154.667 0 -238 -93.333 -250 -280h-20v300h1120v-300h-20c-12 186.667 -95 280 -249 280h-131v-1180c0 -93.333 53.333 -140 160 -140v-20
h-640v20c106.667 0 160 46.667 160 140v1180h-130z" />
    <glyph glyph-name="tcaron" unicode="&#x165;" horiz-adv-x="910" 
d="M570 1440c0 44 15.666 81.667 46.999 113s69 47 113 47s81.667 -15.667 113 -47s47 -69 47 -113c0 -98.667 -25.667 -180.667 -77 -246s-103.666 -98 -156.999 -98v20c29.333 0 57.333 14.333 84 43s40 55.667 40 81c0 26.667 -16.667 40 -50 40
c-44 0 -81.667 15.667 -113 47s-47 69 -47 113zM459.999 215c0 -136.667 40 -205 120 -205c82.667 0 140 34.667 172 104l18 -8c-34.667 -77.333 -98 -116 -190 -116c-293.333 0 -440 166.667 -440 500v390c0 93.333 -53.333 140 -160 140v20h88c128 0 192 93.333 192 280
h200v-280h280v-20h-280v-805z" />
    <glyph glyph-name="Tbar" unicode="&#x166;" 
d="M310 1340c-154.667 0 -238 -93.333 -250 -280h-20v300h1120v-300h-20c-12 186.667 -95 280 -249 280h-131v-480h205l-10 -100h-195v-600c0 -93.333 53.333 -140 160 -140v-20h-640v20c106.667 0 160 46.667 160 140v600h-205l10 100h195v480h-130z" />
    <glyph glyph-name="tbar" unicode="&#x167;" horiz-adv-x="790" 
d="M460 490v-276c0 -136 40 -204 120 -204c82.667 0 140 34.667 172 104l18 -8c-34.667 -77.333 -98 -116 -190 -116c-293.333 0 -440 166.667 -440 500v150h-125l10 100h115v140c0 93.333 -53.333 140 -160 140v20h88c128 0 192 93.333 192 280h200v-280h280v-20h-280v-280
h285l-10 -100h-275v-150z" />
    <glyph glyph-name="Utilde" unicode="&#x168;" horiz-adv-x="1440" 
d="M787 1720l134 -100c32.667 -21.333 60 -32 82 -32c69.333 0 104 32 104 96c0 13.333 -2.66699 27.333 -8 42l18 8c14.667 -38.667 22 -74 22 -106c0 -125.333 -70.667 -188 -212 -188c-40 0 -78.667 12 -116 36l-134 100c-34 22.667 -68.667 34 -104 34
c-54.667 0 -82 -32.667 -82 -98c0 -12 2.66699 -26 8 -42l-18 -8c-14.667 40 -22 76 -22 108c0 126.667 65.333 190 196 190c52 0 96 -13.333 132 -40zM1220 680l-0.000976562 520c0 93.333 -53.333 140 -160 140v20h340v-20c-106.667 0 -160 -46.667 -160 -140v-520
c0 -210.667 -27.333 -371 -82 -481c-69.333 -139.333 -188.666 -209 -357.999 -209c-209.333 0 -366.666 62 -471.999 186c-85.333 100.667 -128 255.334 -128 464.001v560c0 93.333 -53.333 140 -160 140v20h640v-20c-106.667 0 -160 -46.667 -160 -140v-800
c0 -260 93.333 -390 280 -390c161.333 0 274.666 66 339.999 198c53.333 107.333 80 264.666 80 471.999z" />
    <glyph glyph-name="utilde" unicode="&#x169;" horiz-adv-x="1380" 
d="M647 1480l134 -100c32.667 -21.333 60 -32 82 -32c69.333 0 104 32 104 96c0 13.333 -2.66699 27.333 -8 42l18 8c14.667 -38.667 22 -74 22 -106c0 -125.333 -70.667 -188 -212 -188c-40 0 -78.667 12 -116 36l-134 100c-34 22.667 -68.667 34 -104 34
c-54.667 0 -82 -32.667 -82 -98c0 -12 2.66699 -26 8 -42l-18 -8c-14.667 40 -22 76 -22 108c0 126.667 65.333 190 196 190c52 0 96 -13.333 132 -40zM1180 880l0.000976562 -720c0 -93.333 53.333 -140 160 -140v-20h-400c-12 -0 -26.333 10.333 -43 31
s-26.334 31 -29.001 31c-72 -48 -141.333 -72 -208 -72c-346.667 0 -520 123.333 -520 370v520c0 93.333 -53.333 140 -160 140v20h400c53.333 0 80 -53.333 80 -160v-660c0 -140 66.667 -210 200 -210c69.333 0 137.333 24.667 204 74c-2.66699 24 -4 49.333 -4 76v720
c0 93.333 -53.333 140 -160 140v20h400c53.333 0 80 -53.333 80 -160z" />
    <glyph glyph-name="Umacron" unicode="&#x16a;" horiz-adv-x="1440" 
d="M1120 1520h-720l10 100h720zM1220 680l-0.000976562 520c0 93.333 -53.333 140 -160 140v20h340v-20c-106.667 0 -160 -46.667 -160 -140v-520c0 -210.667 -27.333 -371 -82 -481c-69.333 -139.333 -188.666 -209 -357.999 -209c-209.333 0 -366.666 62 -471.999 186
c-85.333 100.667 -128 255.334 -128 464.001v560c0 93.333 -53.333 140 -160 140v20h640v-20c-106.667 0 -160 -46.667 -160 -140v-800c0 -260 93.333 -390 280 -390c161.333 0 274.666 66 339.999 198c53.333 107.333 80 264.666 80 471.999z" />
    <glyph glyph-name="umacron" unicode="&#x16b;" horiz-adv-x="1380" 
d="M995 1280h-720l10 100h720zM1180 880l0.000976562 -720c0 -93.333 53.333 -140 160 -140v-20h-400c-12 -0 -26.333 10.333 -43 31s-26.334 31 -29.001 31c-72 -48 -141.333 -72 -208 -72c-346.667 0 -520 123.333 -520 370v520c0 93.333 -53.333 140 -160 140v20h400
c53.333 0 80 -53.333 80 -160v-660c0 -140 66.667 -210 200 -210c69.333 0 137.333 24.667 204 74c-2.66699 24 -4 49.333 -4 76v720c0 93.333 -53.333 140 -160 140v20h400c53.333 0 80 -53.333 80 -160z" />
    <glyph glyph-name="Ubreve" unicode="&#x16c;" horiz-adv-x="1440" 
d="M400 1760h40c69.333 -101.333 176 -152 320 -152s250.667 50.667 320 152h40c-110.667 -213.333 -230.667 -320 -360 -320c-128 0 -248 106.667 -360 320zM1220 680l-0.000976562 520c0 93.333 -53.333 140 -160 140v20h340v-20c-106.667 0 -160 -46.667 -160 -140v-520
c0 -210.667 -27.333 -371 -82 -481c-69.333 -139.333 -188.666 -209 -357.999 -209c-209.333 0 -366.666 62 -471.999 186c-85.333 100.667 -128 255.334 -128 464.001v560c0 93.333 -53.333 140 -160 140v20h640v-20c-106.667 0 -160 -46.667 -160 -140v-800
c0 -260 93.333 -390 280 -390c161.333 0 274.666 66 339.999 198c53.333 107.333 80 264.666 80 471.999z" />
    <glyph glyph-name="ubreve" unicode="&#x16d;" horiz-adv-x="1380" 
d="M260 1520h40c69.333 -101.333 176 -152 320 -152s250.667 50.667 320 152h40c-110.667 -213.333 -230.667 -320 -360 -320c-128 0 -248 106.667 -360 320zM1180 880l0.000976562 -720c0 -93.333 53.333 -140 160 -140v-20h-400c-12 -0 -26.333 10.333 -43 31
s-26.334 31 -29.001 31c-72 -48 -141.333 -72 -208 -72c-346.667 0 -520 123.333 -520 370v520c0 93.333 -53.333 140 -160 140v20h400c53.333 0 80 -53.333 80 -160v-660c0 -140 66.667 -210 200 -210c69.333 0 137.333 24.667 204 74c-2.66699 24 -4 49.333 -4 76v720
c0 93.333 -53.333 140 -160 140v20h400c53.333 0 80 -53.333 80 -160z" />
    <glyph glyph-name="Uring" unicode="&#x16e;" horiz-adv-x="1440" 
d="M820 1840c49.333 0 95 -20.333 137 -61s63 -87 63 -139s-21 -98.333 -63 -139s-87.667 -61 -137 -61s-95 20.667 -137 62s-63 87.333 -63 138c0 52 21 98.333 63 139s87.667 61 137 61zM820 1820c-66.667 0 -100 -60 -100 -180s33.333 -180 100 -180s100 60 100 180
s-33.333 180 -100 180zM1220 680l-0.000976562 520c0 93.333 -53.333 140 -160 140v20h340v-20c-106.667 0 -160 -46.667 -160 -140v-520c0 -210.667 -27.333 -371 -82 -481c-69.333 -139.333 -188.666 -209 -357.999 -209c-209.333 0 -366.666 62 -471.999 186
c-85.333 100.667 -128 255.334 -128 464.001v560c0 93.333 -53.333 140 -160 140v20h640v-20c-106.667 0 -160 -46.667 -160 -140v-800c0 -260 93.333 -390 280 -390c161.333 0 274.666 66 339.999 198c53.333 107.333 80 264.666 80 471.999z" />
    <glyph glyph-name="uring" unicode="&#x16f;" horiz-adv-x="1380" 
d="M640 1580c49.333 0 95 -20.333 137 -61s63 -87 63 -139s-21 -98.333 -63 -139s-87.667 -61 -137 -61s-95 20.667 -137 62s-63 87.333 -63 138c0 52 21 98.333 63 139s87.667 61 137 61zM640 1560c-66.667 0 -100 -60 -100 -180s33.333 -180 100 -180s100 60 100 180
s-33.333 180 -100 180zM1180 880l0.000976562 -720c0 -93.333 53.333 -140 160 -140v-20h-400c-12 -0 -26.333 10.333 -43 31s-26.334 31 -29.001 31c-72 -48 -141.333 -72 -208 -72c-346.667 0 -520 123.333 -520 370v520c0 93.333 -53.333 140 -160 140v20h400
c53.333 0 80 -53.333 80 -160v-660c0 -140 66.667 -210 200 -210c69.333 0 137.333 24.667 204 74c-2.66699 24 -4 49.333 -4 76v720c0 93.333 -53.333 140 -160 140v20h400c53.333 0 80 -53.333 80 -160z" />
    <glyph glyph-name="Uhungarumlaut" unicode="&#x170;" horiz-adv-x="1440" 
d="M420 1440l20.001 60c49.333 142.667 82 224 98 244c8 10.667 15.333 16 22 16h260v-20c-6.66699 0 -20.334 -5 -41.001 -15c-22.667 -10.667 -42.667 -25 -60 -43l-239 -242h-60zM900.001 1440l20.001 60c49.333 142.667 82 224 98 244c8 10.667 15.333 16 22 16h260v-20
c-6.66699 0 -20.334 -5 -41.001 -15c-22.667 -10.667 -42.667 -25 -60 -43l-239 -242h-60zM1220 680l-0.000976562 520c0 93.333 -53.333 140 -160 140v20h340v-20c-106.667 0 -160 -46.667 -160 -140v-520c0 -210.667 -27.333 -371 -82 -481
c-69.333 -139.333 -188.666 -209 -357.999 -209c-209.333 0 -366.666 62 -471.999 186c-85.333 100.667 -128 255.334 -128 464.001v560c0 93.333 -53.333 140 -160 140v20h640v-20c-106.667 0 -160 -46.667 -160 -140v-800c0 -260 93.333 -390 280 -390
c161.333 0 274.666 66 339.999 198c53.333 107.333 80 264.666 80 471.999z" />
    <glyph glyph-name="uhungarumlaut" unicode="&#x171;" horiz-adv-x="1380" 
d="M300 1200l20.001 60c49.333 142.667 82 224 98 244c8 10.667 15.333 16 22 16h260v-20c-6.66699 0 -20.334 -5 -41.001 -15c-22.667 -10.667 -42.667 -25 -60 -43l-239 -242h-60zM780.001 1200l20.001 60c49.333 142.667 82 224 98 244c8 10.667 15.333 16 22 16h260v-20
c-6.66699 0 -20.334 -5 -41.001 -15c-22.667 -10.667 -42.667 -25 -60 -43l-239 -242h-60zM1180 880l0.000976562 -720c0 -93.333 53.333 -140 160 -140v-20h-400c-12 -0 -26.333 10.333 -43 31s-26.334 31 -29.001 31c-72 -48 -141.333 -72 -208 -72
c-346.667 0 -520 123.333 -520 370v520c0 93.333 -53.333 140 -160 140v20h400c53.333 0 80 -53.333 80 -160v-660c0 -140 66.667 -210 200 -210c69.333 0 137.333 24.667 204 74c-2.66699 24 -4 49.333 -4 76v720c0 93.333 -53.333 140 -160 140v20h400
c53.333 0 80 -53.333 80 -160z" />
    <glyph glyph-name="Uogonek" unicode="&#x172;" horiz-adv-x="1440" 
d="M1220 680v520c0 93.333 -53.333 140 -160 140v20h340v-20c-106.667 0 -160 -46.667 -160 -140v-520c0 -210 -27.333 -370.333 -82 -481c-36.667 -73.333 -87 -127.333 -151 -162l-119 -85c-32 -28 -48 -62.333 -48 -103c0 -54.667 34.667 -82 104 -82
c61.333 0 103.333 26.667 126 80l19 -8l-75 -199h-44c-106.667 0.666992 -160 70.334 -160 209.001c0 53.333 20 95.666 60 126.999v18c-22 -2.66699 -45.333 -4 -70 -4c-209.333 0 -366.666 62 -471.999 186c-85.333 100.667 -128 255.334 -128 464.001v560
c0 93.333 -53.333 140 -160 140v20h640v-20c-106.667 0 -160 -46.667 -160 -140v-800c0 -260 93.333 -390 280 -390c161.333 0 274.666 66 339.999 198c53.333 107.333 80 264.666 80 471.999z" />
    <glyph glyph-name="uogonek" unicode="&#x173;" horiz-adv-x="1380" 
d="M940 0c-12.667 0 -27.167 10.334 -43.5 31.001s-25.833 31 -28.5 31c-72 -48 -141.333 -72 -208 -72c-346.667 0 -520 123.333 -520 370v520c0 93.333 -53.333 140 -160 140v20h400c53.333 0 80 -53.333 80 -160v-660c0 -140 66.667 -210 200 -210
c69.333 0 137.333 24.667 204 74c-2.66699 24 -4 49.333 -4 76v720c0 93.333 -53.333 140 -160 140v20h400c53.333 0 80 -53.333 80 -160v-720c0 -93.333 53.333 -140 160 -140v-20h-151c-68.667 -4 -118.667 -20 -150 -48c-32 -28 -48 -62.333 -48 -103
c0 -54.667 34.667 -82 104 -82c61.333 0 103.333 26.667 126 80l19 -8l-75 -199h-44c-106.667 0 -160 69.667 -160 209c0 53.333 20 95.666 60 126.999l-6 24h-75z" />
    <glyph glyph-name="Wcircumflex" unicode="&#x174;" horiz-adv-x="2120" 
d="M1060 1680c-18.667 0 -50 -17.333 -94 -52l-236 -188h-30l200 320h320l200 -320h-30l-234 188c-44 34.667 -76 52 -96 52zM20 1360h424c21.333 0 37.333 -8 48 -24c12 -16 28.667 -57.333 50 -124l315 -971l192 588l-123 375c-28 90.667 -90 136 -186 136v20h640v-20
c-87.333 0 -131 -22.333 -131 -67c0 -14.667 4.33301 -35 13 -61l315 -971l317 971c8 24.667 12 44 12 58c0 46.667 -48.667 70 -146 70v20h340v-20c-94.667 0 -156.667 -45.333 -186 -136l-325 -997l-58 -207h-125c-56.667 0 -98 39.667 -124 119l-222 675l-191 -587
l-58 -207h-125c-56.667 0 -98 39.667 -124 119l-356 1085c-28 90.667 -90 136 -186 136v20z" />
    <glyph glyph-name="wcircumflex" unicode="&#x175;" horiz-adv-x="1780" 
d="M925 1440c-18.667 0 -50 -17.333 -94 -52l-236 -188h-30l200 320h320l200 -320h-30l-234 188c-44 34.667 -76 52 -96 52zM1250 0l-64 -0.000976562c-24 0 -42 7.33301 -54 22c-1.33301 2.66699 -17.333 44.667 -48 126l-208 518l-150 -374l-116 -292h-64
c-24 0 -42 7.33301 -54 22c-1.33301 2.66699 -17.333 44.667 -48 126l-296 736c-26.667 66.667 -50.667 106 -72 118c-18.667 12 -50.667 18 -96 18v20h380c45.333 0 86 -49.333 122 -148l232 -570l152 374l-76 188c-18.667 48 -34.667 80 -48 96
c-22.667 26.667 -63.334 40 -122.001 40v20h620v-20c-85.333 0 -128 -22 -128 -66c0 -21.333 4 -42 12 -62l230 -570l230 570c9.33301 22.667 14 44 14 64c0 42.667 -39.333 64 -118 64v20h260v-20c-57.333 -1.33301 -102.666 -46.666 -135.999 -135.999l-238 -592z" />
    <glyph glyph-name="Ycircumflex" unicode="&#x176;" horiz-adv-x="1338" 
d="M689 1680c-18.667 0 -50 -17.333 -94 -52l-236 -188h-30l200 320h320l200 -320h-30l-234 188c-44 34.667 -76 52 -96 52zM560 1212l280.001 -554l272 554c12 24 18 44.667 18 62c0 44 -50.667 66 -152 66v20h340v-20c-56 0 -97.333 -13.333 -124 -40
c-18.667 -18.667 -39.334 -50.667 -62.001 -96l-270 -546l2 -498c0 -93.333 53.333 -140 160 -140v-20h-640v20c106.667 0 160 46.667 160 140l-2 380l-336 664c-44 90.667 -106 136 -186 136v20h398c50.667 0 98 -49.333 142 -148z" />
    <glyph glyph-name="ycircumflex" unicode="&#x177;" horiz-adv-x="1140" 
d="M580 1440c-18.667 0 -50 -17.333 -94 -52l-236 -188h-30l200 320h320l200 -320h-30l-234 188c-44 34.667 -76 52 -96 52zM482 892l231.998 -570l230 570c9.33301 23.333 14 44.666 14 63.999c0 42.667 -39.333 64 -118 64v20h260v-20
c-57.333 -1.33301 -102.666 -46.666 -135.999 -135.999l-238 -592l-112 -282l-114 -282c-46.667 -98.667 -104 -148 -172 -148c-44 0 -81.667 15.667 -113 47s-47 69 -47 113s15.333 81.667 46 113s68 47 112 47c40.667 0 77.334 -14 110.001 -42c28 -24 49.333 -36 64 -36
c10.667 0 18 5.33301 22 16l64 162h-40c-28.667 -0 -46.667 7.33301 -54 22c-1.33301 2.66699 -17.333 44.667 -48 126l-296 736c-26 64.667 -50 104 -72 118c-18.667 12 -50.667 18 -96 18v20h380c45.333 0 86 -49.333 122 -148z" />
    <glyph glyph-name="Ydieresis" unicode="&#x178;" horiz-adv-x="1338" 
d="M789 1600c0 44 15.667 81.667 47 113s69 47 113 47s81.667 -15.667 113 -47s47 -69 47 -113s-15.667 -81.667 -47 -113s-69 -47 -113 -47s-81.667 15.667 -113 47s-47 69 -47 113zM309 1600c0 44 15.667 81.667 47 113s69 47 113 47s81.667 -15.667 113 -47
s47 -69 47 -113s-15.667 -81.667 -47 -113s-69 -47 -113 -47s-81.667 15.667 -113 47s-47 69 -47 113zM560 1212l280.001 -554l272 554c12 24 18 44.667 18 62c0 44 -50.667 66 -152 66v20h340v-20c-56 0 -97.333 -13.333 -124 -40
c-18.667 -18.667 -39.334 -50.667 -62.001 -96l-270 -546l2 -498c0 -93.333 53.333 -140 160 -140v-20h-640v20c106.667 0 160 46.667 160 140l-2 380l-336 664c-44 90.667 -106 136 -186 136v20h398c50.667 0 98 -49.333 142 -148z" />
    <glyph glyph-name="Zacute" unicode="&#x179;" horiz-adv-x="1340" 
d="M570 1440l20.001 60c49.333 142.667 82 224 98 244c8 10.667 15.333 16 22 16h260v-20c-6.66699 0 -20.334 -5 -41.001 -15c-22.667 -10.667 -42.667 -25 -60 -43l-239 -242h-60zM1010 20c154.667 0 238.002 93.333 250.002 280h20v-300h-1260v20
c44 0 76.667 6.66699 98 20s50.666 52 87.999 116l532 1056c13.333 26.667 20 48.667 20 66c0 41.333 -46 62 -138 62h-210c-154.667 0 -238 -93.333 -250 -280h-20v300h1138v-20c-54.667 0 -95.334 -13.333 -122.001 -40c-18 -18 -38.667 -50 -62 -96l-534 -1056
c-12 -24 -18 -45.333 -18 -64c0 -42.667 45.333 -64 136 -64h332z" />
    <glyph glyph-name="zacute" unicode="&#x17a;" horiz-adv-x="1210" 
d="M476 1200l20.001 60c49.333 142.667 82 224 98 244c8 10.667 15.333 16 22 16h260v-20c-6.66699 0 -20.334 -5 -41.001 -15c-22.667 -10.667 -42.667 -25 -60 -43l-239 -242h-60zM870.001 20c154.667 0 237.998 93.333 249.998 280h20v-300h-1120v20
c28 0 73.333 45.333 136 136l476 736c13.333 20.667 20 42.667 20 66c0 41.333 -46 62 -138 62h-184c-154.667 0 -238 -93.333 -250 -280h-20v300h1080v-20c-15.333 0 -37.666 -13.333 -66.999 -40c-3.33301 -2.66699 -24.666 -34.667 -63.999 -96l-476 -736
c-12 -18.667 -18 -40.667 -18 -66c0 -41.333 45.333 -62 136 -62h219z" />
    <glyph glyph-name="Zdotaccent" unicode="&#x17b;" horiz-adv-x="1340" 
d="M530 1602c0 44 15.667 81.667 47 113s69 47 113 47s81.667 -15.667 113 -47s47 -69 47 -113s-15.667 -81.667 -47 -113s-69 -47 -113 -47s-81.667 15.667 -113 47s-47 69 -47 113zM1010 20c154.667 0 238.002 93.333 250.002 280h20v-300h-1260v20
c44 0 76.667 6.66699 98 20s50.666 52 87.999 116l532 1056c13.333 26.667 20 48.667 20 66c0 41.333 -46 62 -138 62h-210c-154.667 0 -238 -93.333 -250 -280h-20v300h1138v-20c-54.667 0 -95.334 -13.333 -122.001 -40c-18 -18 -38.667 -50 -62 -96l-534 -1056
c-12 -24 -18 -45.333 -18 -64c0 -42.667 45.333 -64 136 -64h332z" />
    <glyph glyph-name="zdotaccent" unicode="&#x17c;" horiz-adv-x="1210" 
d="M436 1360c0 44 15.667 81.667 47 113s69 47 113 47s81.667 -15.667 113 -47s47 -69 47 -113s-15.667 -81.667 -47 -113s-69 -47 -113 -47s-81.667 15.667 -113 47s-47 69 -47 113zM870 20c154.667 0 237.998 93.333 249.998 280h20v-300h-1120v20
c28 0 73.333 45.333 136 136l476 736c13.333 20.667 20 42.667 20 66c0 41.333 -46 62 -138 62h-184c-154.667 0 -238 -93.333 -250 -280h-20v300h1080v-20c-15.333 0 -37.666 -13.333 -66.999 -40c-3.33301 -2.66699 -24.666 -34.667 -63.999 -96l-476 -736
c-12 -18.667 -18 -40.667 -18 -66c0 -41.333 45.333 -62 136 -62h219z" />
    <glyph glyph-name="Zcaron" unicode="&#x17d;" horiz-adv-x="1340" 
d="M710 1520c20 0 52 17.333 96 52l234 188h30l-200 -320h-320l-200 320h30l236 -188c44 -34.667 75.333 -52 94 -52zM1010 20c154.667 0 238.002 93.333 250.002 280h20v-300h-1260v20c44 0 76.667 6.66699 98 20s50.666 52 87.999 116l532 1056
c13.333 26.667 20 48.667 20 66c0 41.333 -46 62 -138 62h-210c-154.667 0 -238 -93.333 -250 -280h-20v300h1138v-20c-54.667 0 -95.334 -13.333 -122.001 -40c-18 -18 -38.667 -50 -62 -96l-534 -1056c-12 -24 -18 -45.333 -18 -64c0 -42.667 45.333 -64 136 -64h332z" />
    <glyph glyph-name="zcaron" unicode="&#x17e;" horiz-adv-x="1210" 
d="M580 1280c20 0 52 17.333 96 52l234 188h30l-200 -320h-320l-200 320h30l236 -188c44 -34.667 75.333 -52 94 -52zM870 20c154.667 0 237.998 93.333 249.998 280h20v-300h-1120v20c28 0 73.333 45.333 136 136l476 736c13.333 20.667 20 42.667 20 66
c0 41.333 -46 62 -138 62h-184c-154.667 0 -238 -93.333 -250 -280h-20v300h1080v-20c-15.333 0 -37.666 -13.333 -66.999 -40c-3.33301 -2.66699 -24.666 -34.667 -63.999 -96l-476 -736c-12 -18.667 -18 -40.667 -18 -66c0 -41.333 45.333 -62 136 -62h219z" />
    <glyph glyph-name="uni01CD" unicode="&#x1cd;" horiz-adv-x="1400" 
d="M610 1520c20 0 52 17.333 96 52l234 188h30l-200 -320h-320l-200 320h30l236 -188c44 -34.667 75.333 -52 94 -52zM743 440l-220 678l-222 -678h442zM750 420h-455l-89 -272c-8 -22.667 -12 -42 -12 -58c0 -46.667 48.667 -70 146 -70v-20h-340v20
c94.667 0 156.667 45.333 186 136l325 996l-17 52c-32 90.667 -94 136 -186 136v20h386c57.333 0 102 -49.333 134 -148l344 -1056c29.333 -90.667 92 -136 188 -136v-20h-640v20c86.667 0 130 22.667 130 68c0 15.333 -4 35.333 -12 60z" />
    <glyph glyph-name="uni01CE" unicode="&#x1ce;" horiz-adv-x="1358" 
d="M680 1280c20 0 52 17.333 96 52l234 188h30l-200 -320h-320l-200 320h30l236 -188c44 -34.667 75.333 -52 94 -52zM1320 0l-400 -0.000976562c-13.333 0 -28 10.667 -44 32s-25.333 32 -28 32c-68 -49.333 -150.667 -74 -248 -74c-169.333 0 -305 38 -407 114
s-153 161.333 -153 256s50.667 178.334 152 251.001s237.333 109 408 109c82.667 0 162.667 -16.667 240 -50v50c0 206.667 -86.667 310 -260 310c-110.667 0 -216.667 -28.667 -318 -86l-12 18c106.667 58.667 216.667 88 330 88c386.667 0 580 -176.667 580 -530v-360
c0 -93.333 53.333 -140 160 -140v-20zM840 647.999c-76 34.667 -155.999 52 -239.999 52c-98.667 0 -168 -37.333 -208 -112c-21.333 -36 -32 -112 -32 -228c0 -141.333 17.333 -233.333 52 -276c41.333 -49.333 104 -74 188 -74c101.333 0 182.666 25.333 243.999 76
c-2.66699 82.667 -4 162 -4 238v324z" />
    <glyph glyph-name="uni01CF" unicode="&#x1cf;" horiz-adv-x="720" 
d="M360 1520c20 0 52 17.333 96 52l234 188h30l-200 -320h-320l-200 320h30l236 -188c44 -34.667 75.333 -52 94 -52zM40 1360h640v-20c-106.667 0 -160 -46.667 -160 -140v-1040c0 -93.333 53.333 -140 160 -140v-20h-640v20c106.667 0 160 46.667 160 140v1040
c0 93.333 -53.333 140 -160 140v20z" />
    <glyph glyph-name="uni01D0" unicode="&#x1d0;" horiz-adv-x="720" 
d="M340 1280c20 0 52 17.333 96 52l234 188h30l-200 -320h-320l-200 320h30l236 -188c44 -34.667 75.333 -52 94 -52zM40 1040l400 0.000976562c14.667 0 25.334 -1 32.001 -3s14.667 -7.66699 24 -17s15.666 -25.333 18.999 -48s5 -53.334 5 -92.001v-720
c0 -33.333 4 -60.333 12 -81s21.333 -34.667 40 -42s34.667 -12 48 -14s33.333 -3 60 -3v-20h-640v20c26.667 0 46.667 1 60 3s29.333 6.66699 48 14s32 21.333 40 42s12 47.667 12 81v720c0 33.333 -4 60.333 -12 81s-21.333 34.667 -40 42s-34.667 12 -48 14
s-33.333 3 -60 3v20z" />
    <glyph glyph-name="uni01D1" unicode="&#x1d1;" horiz-adv-x="1260" 
d="M620 1520c20 0 52 17.333 96 52l234 188h30l-200 -320h-320l-200 320h30l236 -188c44 -34.667 75.333 -52 94 -52zM620 1370c173.333 0 316.665 -67 429.998 -201s170 -297 170 -489s-56.667 -355 -170 -489s-256.666 -201 -429.999 -201s-316.666 67 -429.999 201
s-170 297 -170 489s56 355 168 489s256 201 432 201zM619.999 1350c-96 0 -166.667 -45.333 -212 -136c-45.333 -92 -68 -270 -68 -534s22.667 -442 68 -534c45.333 -90.667 116 -136 212 -136s166.667 45.333 212 136c45.333 92 68 270 68 534s-22.667 442 -68 534
c-45.333 90.667 -116 136 -212 136z" />
    <glyph glyph-name="uni01D2" unicode="&#x1d2;" 
d="M600 1280c20 0 52 17.333 96 52l234 188h30l-200 -320h-320l-200 320h30l236 -188c44 -34.667 75.333 -52 94 -52zM600 10c101.333 0 166.666 35.333 195.999 106c29.333 72 44 206.667 44 404s-14.667 332 -44 404c-29.333 70.667 -94.666 106 -195.999 106
c-114.667 0 -184.667 -44 -210 -132c-20 -70.667 -30 -196.667 -30 -378s10 -307.333 30 -378c25.333 -88 95.333 -132 210 -132zM600 -10c-180 0 -318.667 46 -416 138c-96 92 -144 222.667 -144 392c0 168 48.667 298.667 146 392c97.333 92 235.333 138 414 138
s316.667 -46 414 -138c97.333 -93.333 146 -224 146 -392c0 -169.333 -48 -300 -144 -392c-97.333 -92 -236 -138 -416 -138z" />
    <glyph glyph-name="uni01D3" unicode="&#x1d3;" horiz-adv-x="1440" 
d="M760 1520c20 0 52 17.333 96 52l234 188h30l-200 -320h-320l-200 320h30l236 -188c44 -34.667 75.333 -52 94 -52zM1220 680l-0.000976562 520c0 93.333 -53.333 140 -160 140v20h340v-20c-106.667 0 -160 -46.667 -160 -140v-520c0 -210.667 -27.333 -371 -82 -481
c-69.333 -139.333 -188.666 -209 -357.999 -209c-209.333 0 -366.666 62 -471.999 186c-85.333 100.667 -128 255.334 -128 464.001v560c0 93.333 -53.333 140 -160 140v20h640v-20c-106.667 0 -160 -46.667 -160 -140v-800c0 -260 93.333 -390 280 -390
c161.333 0 274.666 66 339.999 198c53.333 107.333 80 264.666 80 471.999z" />
    <glyph glyph-name="uni01D4" unicode="&#x1d4;" horiz-adv-x="1380" 
d="M660 1280c20 0 52 17.333 96 52l234 188h30l-200 -320h-320l-200 320h30l236 -188c44 -34.667 75.333 -52 94 -52zM1180 880l0.000976562 -720c0 -93.333 53.333 -140 160 -140v-20h-400c-12 -0 -26.333 10.333 -43 31s-26.334 31 -29.001 31
c-72 -48 -141.333 -72 -208 -72c-346.667 0 -520 123.333 -520 370v520c0 93.333 -53.333 140 -160 140v20h400c53.333 0 80 -53.333 80 -160v-660c0 -140 66.667 -210 200 -210c69.333 0 137.333 24.667 204 74c-2.66699 24 -4 49.333 -4 76v720
c0 93.333 -53.333 140 -160 140v20h400c53.333 0 80 -53.333 80 -160z" />
    <glyph glyph-name="uni01D5" unicode="&#x1d5;" horiz-adv-x="1440" 
d="M1115 1793h-720l10 100h720zM820 1600c0 44 15.667 81.667 47 113s69 47 113 47s81.667 -15.667 113 -47s47 -69 47 -113s-15.667 -81.667 -47 -113s-69 -47 -113 -47s-81.667 15.667 -113 47s-47 69 -47 113zM340 1600c0 44 15.667 81.667 47 113s69 47 113 47
s81.667 -15.667 113 -47s47 -69 47 -113s-15.667 -81.667 -47 -113s-69 -47 -113 -47s-81.667 15.667 -113 47s-47 69 -47 113zM1220 680l-0.000976562 520c0 93.333 -53.333 140 -160 140v20h340v-20c-106.667 0 -160 -46.667 -160 -140v-520
c0 -210.667 -27.333 -371 -82 -481c-69.333 -139.333 -188.666 -209 -357.999 -209c-209.333 0 -366.666 62 -471.999 186c-85.333 100.667 -128 255.334 -128 464.001v560c0 93.333 -53.333 140 -160 140v20h640v-20c-106.667 0 -160 -46.667 -160 -140v-800
c0 -260 93.333 -390 280 -390c161.333 0 274.666 66 339.999 198c53.333 107.333 80 264.666 80 471.999z" />
    <glyph glyph-name="uni01D6" unicode="&#x1d6;" horiz-adv-x="1380" 
d="M1005 1568h-720l10 100h720zM720 1360c0 44 15.667 81.667 47 113s69 47 113 47s81.667 -15.667 113 -47s47 -69 47 -113s-15.667 -81.667 -47 -113s-69 -47 -113 -47s-81.667 15.667 -113 47s-47 69 -47 113zM240 1360c0 44 15.667 81.667 47 113s69 47 113 47
s81.667 -15.667 113 -47s47 -69 47 -113s-15.667 -81.667 -47 -113s-69 -47 -113 -47s-81.667 15.667 -113 47s-47 69 -47 113zM1180 880l0.000976562 -720c0 -93.333 53.333 -140 160 -140v-20h-400c-12 -0 -26.333 10.333 -43 31s-26.334 31 -29.001 31
c-72 -48 -141.333 -72 -208 -72c-346.667 0 -520 123.333 -520 370v520c0 93.333 -53.333 140 -160 140v20h400c53.333 0 80 -53.333 80 -160v-660c0 -140 66.667 -210 200 -210c69.333 0 137.333 24.667 204 74c-2.66699 24 -4 49.333 -4 76v720
c0 93.333 -53.333 140 -160 140v20h400c53.333 0 80 -53.333 80 -160z" />
    <glyph glyph-name="uni01D7" unicode="&#x1d7;" horiz-adv-x="1440" 
d="M600 1810l20.001 60c49.333 142.667 82 224 98 244c8 10.667 15.333 16 22 16h260v-20c-6.66699 0 -20.334 -5 -41.001 -15c-22.667 -10.667 -42.667 -25 -60 -43l-239 -242h-60zM820.001 1600c0 44 15.667 81.667 47 113s69 47 113 47s81.667 -15.667 113 -47
s47 -69 47 -113s-15.667 -81.667 -47 -113s-69 -47 -113 -47s-81.667 15.667 -113 47s-47 69 -47 113zM340.001 1600c0 44 15.667 81.667 47 113s69 47 113 47s81.667 -15.667 113 -47s47 -69 47 -113s-15.667 -81.667 -47 -113s-69 -47 -113 -47s-81.667 15.667 -113 47
s-47 69 -47 113zM1220 680l-0.000976562 520c0 93.333 -53.333 140 -160 140v20h340v-20c-106.667 0 -160 -46.667 -160 -140v-520c0 -210.667 -27.333 -371 -82 -481c-69.333 -139.333 -188.666 -209 -357.999 -209c-209.333 0 -366.666 62 -471.999 186
c-85.333 100.667 -128 255.334 -128 464.001v560c0 93.333 -53.333 140 -160 140v20h640v-20c-106.667 0 -160 -46.667 -160 -140v-800c0 -260 93.333 -390 280 -390c161.333 0 274.666 66 339.999 198c53.333 107.333 80 264.666 80 471.999z" />
    <glyph glyph-name="uni01D8" unicode="&#x1d8;" horiz-adv-x="1380" 
d="M480 1568l20.001 60c49.333 142.667 82 224 98 244c8 10.667 15.333 16 22 16h260v-20c-6.66699 0 -20.334 -5 -41.001 -15c-22.667 -10.667 -42.667 -25 -60 -43l-239 -242h-60zM720.001 1360c0 44 15.667 81.667 47 113s69 47 113 47s81.667 -15.667 113 -47
s47 -69 47 -113s-15.667 -81.667 -47 -113s-69 -47 -113 -47s-81.667 15.667 -113 47s-47 69 -47 113zM240.001 1360c0 44 15.667 81.667 47 113s69 47 113 47s81.667 -15.667 113 -47s47 -69 47 -113s-15.667 -81.667 -47 -113s-69 -47 -113 -47s-81.667 15.667 -113 47
s-47 69 -47 113zM1180 880l0.000976562 -720c0 -93.333 53.333 -140 160 -140v-20h-400c-12 -0 -26.333 10.333 -43 31s-26.334 31 -29.001 31c-72 -48 -141.333 -72 -208 -72c-346.667 0 -520 123.333 -520 370v520c0 93.333 -53.333 140 -160 140v20h400
c53.333 0 80 -53.333 80 -160v-660c0 -140 66.667 -210 200 -210c69.333 0 137.333 24.667 204 74c-2.66699 24 -4 49.333 -4 76v720c0 93.333 -53.333 140 -160 140v20h400c53.333 0 80 -53.333 80 -160z" />
    </font>
</defs>
</svg>
